<?xml version="1.0" standalone="no"?>
<!-- Generator: Gravit.io -->
<svg xmlns="http://www.w3.org/2000/svg" xmlns:xlink="http://www.w3.org/1999/xlink" style="isolation:isolate" viewBox="0 0 400 400" width="400" height="400">
<defs>
<clipPath id="_clipPath_zv7Tr9a5aex4sVGmMoD2S1UKKTzylnl0">
<rect width="400" height="400"/>
</clipPath>
</defs>
<g clip-path="url(#_clipPath_zv7Tr9a5aex4sVGmMoD2S1UKKTzylnl0)">
<rect width="400" height="400" style="fill:rgb(0,0,0)"/>
<rect x="50" y="150" width="50" height="50" transform="matrix(1,0,0,1,0,0)" fill="rgb(255,255,255)"/>
<rect x="150" y="150" width="50" height="50" transform="matrix(1,0,0,1,0,0)" fill="rgb(255,255,255)"/>
<rect x="100" y="150" width="50" height="50" transform="matrix(1,0,0,1,0,0)" fill="rgb(255,255,255)"/>
<rect x="250" y="150" width="50" height="50" transform="matrix(1,0,0,1,0,0)" fill="rgb(255,255,255)"/>
<rect x="200" y="150" width="50" height="50" transform="matrix(1,0,0,1,0,0)" fill="rgb(255,255,255)"/>
<rect x="100" y="250" width="50" height="50" transform="matrix(1,0,0,1,0,0)" fill="rgb(255,255,255)"/>
<rect x="100" y="200" width="50" height="50" transform="matrix(1,0,0,1,0,0)" fill="rgb(255,255,255)"/>
<rect x="50" y="200" width="50" height="50" transform="matrix(1,0,0,1,0,0)" fill="rgb(255,255,255)"/>
<rect x="150" y="250" width="50" height="50" transform="matrix(1,0,0,1,0,0)" fill="rgb(255,255,255)"/>
<rect x="200" y="250" width="50" height="50" transform="matrix(1,0,0,1,0,0)" fill="rgb(255,255,255)"/>
<rect x="200" y="200" width="50" height="50" transform="matrix(1,0,0,1,0,0)" fill="rgb(255,255,255)"/>
<rect x="250" y="200" width="50" height="50" transform="matrix(1,0,0,1,0,0)" fill="rgb(255,255,255)"/>
<rect x="150" y="200" width="50" height="50" transform="matrix(1,0,0,1,0,0)" fill="rgb(255,255,255)"/>
<rect x="150" y="50" width="50" height="50" transform="matrix(1,0,0,1,0,0)" fill="rgb(255,255,255)"/>
<rect x="200" y="50" width="50" height="50" transform="matrix(1,0,0,1,0,0)" fill="rgb(255,255,255)"/>
<rect x="200" y="100" width="50" height="50" transform="matrix(1,0,0,1,0,0)" fill="rgb(255,255,255)"/>
<rect x="250" y="100" width="50" height="50" transform="matrix(1,0,0,1,0,0)" fill="rgb(255,255,255)"/>
<rect x="150" y="100" width="50" height="50" transform="matrix(1,0,0,1,0,0)" fill="rgb(255,255,255)"/>
<g>
<path d=" M 227.687 95.7 L 243.431 111.444 C 280.351 148.364 280.089 208.612 243.169 245.532 C 206.248 282.452 146.001 282.714 109.081 245.794 L 93.337 230.05 C 91.132 227.846 90.87 224.645 93.074 222.44 L 140.307 175.208 C 142.511 173.003 145.974 173.003 148.179 175.208 L 163.923 190.952 C 170.456 197.486 181.53 196.961 188.064 190.427 C 194.598 183.893 194.86 173.082 188.326 166.549 L 172.582 150.804 C 170.378 148.6 170.378 145.137 172.582 142.932 L 219.815 95.7 C 222.019 93.495 225.482 93.495 227.687 95.7 Z " fill="rgb(254,168,50)"/>
<path d=" M 227.687 95.7 L 243.431 111.444 C 280.351 148.364 280.089 208.612 243.169 245.532 L 188.064 190.427 C 194.598 183.893 194.86 173.082 188.326 166.549 L 172.582 150.804 C 170.378 148.6 170.378 145.137 172.582 142.932 L 219.815 95.7 C 222.019 93.495 225.482 93.495 227.687 95.7 Z " fill="rgb(255,135,60)"/>
<path d=" M 140.307 222.44 C 124.858 237.889 104.372 241.086 93.337 230.05 C 82.301 219.014 85.498 198.528 100.946 183.08 C 116.394 167.632 137.143 164.172 148.179 175.208 C 159.214 186.243 155.755 206.992 140.307 222.44 Z " fill="rgb(254,219,65)"/>
<path d=" M 219.815 142.932 C 204.367 158.38 183.618 161.84 172.582 150.804 C 161.547 139.769 165.006 119.02 180.454 103.572 C 195.902 88.124 216.651 84.664 227.687 95.7 C 238.722 106.735 235.263 127.484 219.815 142.932 Z " fill="rgb(252,191,41)"/>
<path d=" M 108.818 190.952 C 98.152 201.618 94.546 216.04 100.946 222.44 C 107.346 228.84 121.768 225.235 132.435 214.568 C 143.101 203.902 146.707 189.48 140.307 183.08 C 133.907 176.68 119.485 180.286 108.818 190.952 Z " fill="rgb(254,168,50)"/>
<path d=" M 188.326 111.444 C 177.66 122.11 174.054 136.532 180.454 142.932 C 186.854 149.332 201.276 145.727 211.943 135.06 C 222.609 124.394 226.215 109.972 219.815 103.572 C 213.415 97.172 198.993 100.778 188.326 111.444 Z " fill="rgb(244,106,26)"/>
</g>
</g>
</svg>
