<?xml version="1.0" standalone="no"?>
<!-- Generator: Gravit.io -->
<svg xmlns="http://www.w3.org/2000/svg" xmlns:xlink="http://www.w3.org/1999/xlink" style="isolation:isolate" viewBox="0 0 400 400" width="400" height="400">
<defs>
<clipPath id="_clipPath_FQ4cm67wAnVwHYkH1BGaQ4SvQ5kux5Q6">
<rect width="400" height="400"/>
</clipPath>
</defs>
<g clip-path="url(#_clipPath_FQ4cm67wAnVwHYkH1BGaQ4SvQ5kux5Q6)">
<rect width="400" height="400" style="fill:rgb(0,0,0)"/>
<rect x="50" y="150" width="50" height="50" transform="matrix(1,0,0,1,0,0)" fill="rgb(255,255,255)"/>
<rect x="150" y="150" width="50" height="50" transform="matrix(1,0,0,1,0,0)" fill="rgb(255,255,255)"/>
<rect x="100" y="150" width="50" height="50" transform="matrix(1,0,0,1,0,0)" fill="rgb(255,255,255)"/>
<rect x="200" y="150" width="50" height="50" transform="matrix(1,0,0,1,0,0)" fill="rgb(255,255,255)"/>
<rect x="100" y="300" width="50" height="50" transform="matrix(1,0,0,1,0,0)" fill="rgb(255,255,255)"/>
<rect x="50" y="300" width="50" height="50" transform="matrix(1,0,0,1,0,0)" fill="rgb(255,255,255)"/>
<rect x="200" y="300" width="50" height="50" transform="matrix(1,0,0,1,0,0)" fill="rgb(255,255,255)"/>
<rect x="150" y="300" width="50" height="50" transform="matrix(1,0,0,1,0,0)" fill="rgb(255,255,255)"/>
<rect x="50" y="250" width="50" height="50" transform="matrix(1,0,0,1,0,0)" fill="rgb(255,255,255)"/>
<rect x="100" y="250" width="50" height="50" transform="matrix(1,0,0,1,0,0)" fill="rgb(255,255,255)"/>
<rect x="100" y="200" width="50" height="50" transform="matrix(1,0,0,1,0,0)" fill="rgb(255,255,255)"/>
<rect x="50" y="200" width="50" height="50" transform="matrix(1,0,0,1,0,0)" fill="rgb(255,255,255)"/>
<rect x="150" y="250" width="50" height="50" transform="matrix(1,0,0,1,0,0)" fill="rgb(255,255,255)"/>
<rect x="200" y="250" width="50" height="50" transform="matrix(1,0,0,1,0,0)" fill="rgb(255,255,255)"/>
<rect x="200" y="200" width="50" height="50" transform="matrix(1,0,0,1,0,0)" fill="rgb(255,255,255)"/>
<rect x="250" y="300" width="50" height="50" transform="matrix(1,0,0,1,0,0)" fill="rgb(255,255,255)"/>
<rect x="250" y="250" width="50" height="50" transform="matrix(1,0,0,1,0,0)" fill="rgb(255,255,255)"/>
<rect x="150" y="200" width="50" height="50" transform="matrix(1,0,0,1,0,0)" fill="rgb(255,255,255)"/>
<rect x="150" y="50" width="50" height="50" transform="matrix(1,0,0,1,0,0)" fill="rgb(255,255,255)"/>
<rect x="100" y="50" width="50" height="50" transform="matrix(1,0,0,1,0,0)" fill="rgb(255,255,255)"/>
<rect x="100" y="100" width="50" height="50" transform="matrix(1,0,0,1,0,0)" fill="rgb(255,255,255)"/>
<rect x="200" y="100" width="50" height="50" transform="matrix(1,0,0,1,0,0)" fill="rgb(255,255,255)"/>
<rect x="150" y="100" width="50" height="50" transform="matrix(1,0,0,1,0,0)" fill="rgb(255,255,255)"/>
<g>
<path d=" M 252.866 299.249 C 238.35 307.984 227.553 319.675 221.809 331.466 C 234.916 331.915 250.304 327.851 264.821 319.118 C 277.888 311.255 287.941 300.995 294.008 290.426 C 294.909 288.857 293.696 286.842 291.889 286.901 C 279.706 287.311 265.933 291.388 252.866 299.249 L 252.866 299.249 Z " fill="rgb(179,229,159)"/>
<path d=" M 238.281 280.085 C 227.371 293.046 220.935 307.599 219.316 320.616 C 231.863 316.799 245.107 307.976 256.017 295.017 C 265.838 283.35 272.033 270.389 274.354 258.426 C 274.699 256.649 272.901 255.136 271.21 255.778 C 259.816 260.103 248.103 268.418 238.281 280.085 L 238.281 280.085 Z " fill="rgb(149,214,164)"/>
<path d=" M 201.677 211.693 C 177.176 211.693 157.241 191.758 157.241 167.257 C 157.241 142.755 177.176 122.823 201.677 122.823 C 226.179 122.823 246.114 142.755 246.114 167.257 C 246.114 191.758 226.179 211.693 201.677 211.693 Z  M 201.677 136.855 C 184.913 136.855 171.275 150.495 171.275 167.257 C 171.275 184.021 184.913 197.661 201.677 197.661 C 218.439 197.661 232.08 184.021 232.08 167.257 C 232.08 150.495 218.439 136.855 201.677 136.855 L 201.677 136.855 Z " fill="rgb(236,234,236)"/>
<path d=" M 233.77 197.958 C 230.827 194.318 227.641 190.867 224.232 187.623 C 218.663 193.783 210.616 197.661 201.677 197.661 C 184.913 197.661 171.273 184.021 171.273 167.259 C 171.273 153.758 180.125 142.282 192.323 138.326 L 192.323 123.812 C 172.299 128.122 157.241 145.968 157.241 167.259 C 157.241 191.761 177.176 211.693 201.677 211.693 C 214.282 211.693 225.674 206.416 233.77 197.958 L 233.77 197.958 Z " fill="rgb(218,216,219)"/>
<path d=" M 199.48 180.605 C 189.318 174.706 182.966 163.951 182.966 152.201 L 182.966 87.741 C 182.966 85.159 180.873 83.064 178.289 83.064 L 107.514 83.064 C 103.777 83.064 101.549 87.228 103.623 90.336 L 115.128 107.594 C 116.663 109.899 117.484 112.607 117.484 115.378 L 117.484 152.201 C 117.484 163.949 111.134 174.704 100.972 180.603 C 71.705 197.591 52 229.203 52 265.484 C 52 295.65 65.653 322.574 87.064 340.582 C 90.458 343.436 94.755 345 99.189 345 L 201.264 345 C 205.697 345 209.994 343.434 213.388 340.582 C 234.799 322.574 248.452 295.65 248.452 265.484 C 248.45 229.203 228.748 197.591 199.48 180.605 L 199.48 180.605 Z " fill="rgb(236,234,236)"/>
<path d=" M 125.724 335.645 C 116.34 335.645 107.678 330.119 104.191 321.406 C 97.844 305.557 94.095 286.319 94.095 265.484 C 94.095 229.203 110.114 197.591 126.839 180.605 C 132.644 174.706 136.273 163.951 136.273 152.201 L 136.273 83.064 L 107.512 83.064 C 103.777 83.064 101.549 87.228 103.62 90.336 L 115.128 107.594 C 116.663 109.899 117.484 112.607 117.484 115.378 L 117.484 152.201 C 117.484 163.949 111.134 174.704 100.972 180.603 C 71.705 197.591 52 229.203 52 265.484 C 52 295.65 65.651 322.574 87.064 340.582 C 90.458 343.436 94.755 345 99.187 345 L 201.264 345 C 205.697 345 209.994 343.434 213.386 340.582 C 215.256 339.011 217.041 337.347 218.787 335.645 L 125.724 335.645 Z " fill="rgb(218,216,219)"/>
<path d=" M 194.783 188.694 C 181.725 181.114 173.611 167.131 173.611 152.201 L 173.611 148.548 C 173.611 145.966 171.518 143.87 168.934 143.87 L 131.516 143.87 C 128.932 143.87 126.839 145.966 126.839 148.548 L 126.839 152.201 C 126.839 167.131 118.725 181.114 105.667 188.694 C 78.333 204.56 61.355 233.984 61.355 265.484 C 61.355 291.76 72.973 316.576 93.224 333.539 C 94.883 334.929 97.02 335.645 99.187 335.645 L 201.264 335.645 C 203.43 335.645 205.565 334.929 207.226 333.539 C 227.478 316.576 239.095 291.76 239.095 265.484 C 239.095 233.982 222.117 204.56 194.783 188.694 L 194.783 188.694 Z " fill="rgb(255,234,168)"/>
<path d=" M 104.191 321.406 C 97.844 305.557 94.095 286.319 94.095 265.484 C 94.095 229.203 110.114 197.591 126.839 180.605 C 132.644 174.706 136.273 163.951 136.273 152.201 L 136.273 143.87 L 131.516 143.87 C 128.932 143.87 126.839 145.966 126.839 148.548 L 126.839 152.201 C 126.839 167.131 118.725 181.114 105.667 188.694 C 78.333 204.56 61.355 233.984 61.355 265.484 C 61.355 291.76 72.973 316.576 93.224 333.539 C 94.883 334.931 97.02 335.645 99.187 335.645 L 125.724 335.645 C 116.34 335.645 107.678 330.119 104.191 321.406 Z " fill="rgb(255,224,125)"/>
<path d=" M 164.257 55 L 136.193 55 C 131.027 55 126.839 59.188 126.839 64.355 L 126.839 83.064 L 173.614 83.064 L 173.614 64.355 C 173.611 59.188 169.425 55 164.257 55 Z " fill="rgb(195,140,102)"/>
<path d=" M 173.611 73.709 L 150.225 73.709 C 145.059 73.709 140.87 69.521 140.87 64.355 L 140.87 55 L 164.257 55 C 169.425 55 173.611 59.188 173.611 64.355 L 173.611 73.709 Z " fill="rgb(209,154,110)"/>
<path d=" M 209.833 334.771 C 217.782 324.589 217.623 311.182 209.479 304.823 C 201.334 298.464 188.287 301.562 180.34 311.744 C 172.39 321.923 172.549 335.331 180.694 341.69 C 188.838 348.049 201.883 344.951 209.833 334.771 L 209.833 334.771 Z " fill="rgb(93,83,96)"/>
<path d=" M 193.396 337.427 C 185.251 331.068 185.092 317.66 193.04 307.478 C 194.896 305.102 197.046 303.099 199.332 301.524 C 192.668 301.586 185.464 305.206 180.355 311.748 C 172.408 321.93 172.567 335.338 180.711 341.697 C 186.953 346.571 196.093 345.881 203.591 340.712 C 199.885 340.748 196.307 339.699 193.396 337.427 L 193.396 337.427 Z " fill="rgb(75,63,78)"/>
<path d=" M 242.66 326.408 C 246.189 313.985 240.994 301.623 231.053 298.798 C 221.114 295.975 210.195 303.756 206.667 316.182 C 203.135 328.605 208.33 340.967 218.271 343.79 C 228.21 346.615 239.129 338.831 242.66 326.408 L 242.66 326.408 Z " fill="rgb(111,101,113)"/>
<path d=" M 228.42 335.066 C 218.481 332.243 213.286 319.881 216.815 307.456 C 217.641 304.555 218.86 301.898 220.382 299.579 C 214.231 302.146 208.941 308.204 206.671 316.189 C 203.142 328.614 208.337 340.975 218.278 343.799 C 225.896 345.962 234.089 341.896 239.091 334.285 C 235.671 335.712 231.973 336.075 228.42 335.066 L 228.42 335.066 Z " fill="rgb(93,83,96)"/>
</g>
</g>
</svg>
