<?xml version="1.0" standalone="no"?>
<!-- Generator: Gravit.io -->
<svg xmlns="http://www.w3.org/2000/svg" xmlns:xlink="http://www.w3.org/1999/xlink" style="isolation:isolate" viewBox="0 0 400 400" width="400" height="400">
<defs>
<clipPath id="_clipPath_vHKjSN44p9JyBzmpHaH9Zhk260YzQLsd">
<rect width="400" height="400"/>
</clipPath>
</defs>
<g clip-path="url(#_clipPath_vHKjSN44p9JyBzmpHaH9Zhk260YzQLsd)">
<rect width="400" height="400" style="fill:rgb(0,0,0)"/>
<rect x="150" y="150" width="50" height="50" transform="matrix(1,0,0,1,0,0)" fill="rgb(255,255,255)"/>
<rect x="100" y="150" width="50" height="50" transform="matrix(1,0,0,1,0,0)" fill="rgb(255,255,255)"/>
<rect x="250" y="150" width="50" height="50" transform="matrix(1,0,0,1,0,0)" fill="rgb(255,255,255)"/>
<rect x="200" y="150" width="50" height="50" transform="matrix(1,0,0,1,0,0)" fill="rgb(255,255,255)"/>
<rect x="100" y="250" width="50" height="50" transform="matrix(1,0,0,1,0,0)" fill="rgb(255,255,255)"/>
<rect x="100" y="200" width="50" height="50" transform="matrix(1,0,0,1,0,0)" fill="rgb(255,255,255)"/>
<rect x="150" y="250" width="50" height="50" transform="matrix(1,0,0,1,0,0)" fill="rgb(255,255,255)"/>
<rect x="200" y="250" width="50" height="50" transform="matrix(1,0,0,1,0,0)" fill="rgb(255,255,255)"/>
<rect x="200" y="200" width="50" height="50" transform="matrix(1,0,0,1,0,0)" fill="rgb(255,255,255)"/>
<rect x="250" y="200" width="50" height="50" transform="matrix(1,0,0,1,0,0)" fill="rgb(255,255,255)"/>
<rect x="150" y="200" width="50" height="50" transform="matrix(1,0,0,1,0,0)" fill="rgb(255,255,255)"/>
<rect x="200" y="100" width="50" height="50" transform="matrix(1,0,0,1,0,0)" fill="rgb(255,255,255)"/>
<rect x="250" y="100" width="50" height="50" transform="matrix(1,0,0,1,0,0)" fill="rgb(255,255,255)"/>
<rect x="150" y="100" width="50" height="50" transform="matrix(1,0,0,1,0,0)" fill="rgb(255,255,255)"/>
<g>
<linearGradient id="_lgradient_0" x1="0.2990697074302498" y1="0.524895925895609" x2="0.6888299242073329" y2="0.9146561426726929" gradientTransform="matrix(22.353,-3.37,-2.929,22.415,108.133,277.947)" gradientUnits="userSpaceOnUse">
<stop offset="0%" stop-opacity="1" style="stop-color:rgb(172,193,48)"/>
<stop offset="100%" stop-opacity="1" style="stop-color:rgb(151,160,59)"/>
</linearGradient>
<path d=" M 128.387 290.646 L 114.461 276.993 L 112.691 278.799 C 111.65 279.861 110.974 281.191 110.815 282.494 L 110.749 283.036 C 110.59 284.34 109.915 285.671 108.874 286.733 C 105.969 289.695 105.423 293.871 107.656 296.058 L 109.459 297.827 C 111.692 300.015 115.855 299.387 118.76 296.424 C 119.8 295.364 121.118 294.663 122.418 294.477 L 122.958 294.401 C 124.258 294.217 125.576 293.514 126.616 292.454 L 128.387 290.646 Z " fill="url(#_lgradient_0)"/>
<linearGradient id="_lgradient_1" x1="0.431899109182394" y1="0.4318986132071722" x2="0.7073850343963854" y2="0.7073845384211638" gradientTransform="matrix(167.4,-25.239,-21.933,167.867,132.021,127.516)" gradientUnits="userSpaceOnUse">
<stop offset="0%" stop-opacity="1" style="stop-color:rgb(255,229,72)"/>
<stop offset="100%" stop-opacity="1" style="stop-color:rgb(255,178,17)"/>
</linearGradient>
<path d=" M 229.7 223.288 C 180.604 273.363 129.634 303.006 115.857 289.498 C 102.081 275.989 130.713 224.445 179.81 174.371 C 228.906 124.296 279.876 94.653 293.652 108.161 C 307.429 121.668 278.797 173.213 229.7 223.288 Z " fill="url(#_lgradient_1)"/>
<linearGradient id="_lgradient_2" x1="-0.16059040416862838" y1="-2.2946584721789236" x2="1.4452890012669228" y2="-0.6887790667433746" gradientTransform="matrix(28.951,-4.365,-1.01,7.729,115.942,288.847)" gradientUnits="userSpaceOnUse">
<stop offset="0%" stop-opacity="1" style="stop-color:rgb(255,229,72)"/>
<stop offset="100%" stop-opacity="1" style="stop-color:rgb(255,178,17)"/>
</linearGradient>
<path d=" M 115.857 289.498 C 120.959 294.5 129.651 295.237 140.691 292.355 C 143.999 291.491 145.685 287.173 143.359 285.544 C 143.334 285.526 143.308 285.509 143.283 285.491 C 142.366 284.846 141.033 284.848 139.764 285.499 C 128.129 291.468 119.604 293.172 115.857 289.498 Z " fill="url(#_lgradient_2)"/>
<linearGradient id="_lgradient_3" x1="0.36665640139228106" y1="0.3126028710280969" x2="1.97248103631149" y2="1.9184275059473066" gradientTransform="matrix(28.952,-4.365,-1.01,7.729,265.625,105.448)" gradientUnits="userSpaceOnUse">
<stop offset="0%" stop-opacity="1" style="stop-color:rgb(255,229,72)"/>
<stop offset="100%" stop-opacity="1" style="stop-color:rgb(255,178,17)"/>
</linearGradient>
<path d=" M 293.652 108.161 C 288.551 103.159 279.858 102.422 268.819 105.304 C 265.51 106.168 263.824 110.485 266.151 112.115 C 266.176 112.133 266.201 112.15 266.226 112.168 C 267.143 112.811 268.477 112.811 269.746 112.16 C 281.381 106.191 289.906 104.487 293.652 108.161 Z " fill="url(#_lgradient_3)"/>
<linearGradient id="_lgradient_4" x1="0.3668337327339586" y1="0.4187412363514863" x2="0.44080276856036504" y2="1.0943199299954358" gradientTransform="matrix(7.707,-1.162,-3.793,29.032,293.004,108.258)" gradientUnits="userSpaceOnUse">
<stop offset="0%" stop-opacity="1" style="stop-color:rgb(255,229,72)"/>
<stop offset="100%" stop-opacity="1" style="stop-color:rgb(255,178,17)"/>
</linearGradient>
<path d=" M 290.186 135.66 C 290.205 135.686 290.223 135.71 290.242 135.735 C 291.917 138.029 296.2 136.258 296.998 132.933 C 299.662 121.839 298.755 113.164 293.652 108.161 C 297.399 111.834 295.865 120.391 290.126 132.141 C 289.501 133.423 289.525 134.757 290.186 135.66 Z " fill="url(#_lgradient_4)"/>
<linearGradient id="_lgradient_5" x1="0.3125832886766482" y1="0.3666343636858542" x2="4.726755982428196" y2="4.780807057437396" gradientTransform="matrix(7.707,-1.162,-3.793,29.032,112.592,261.53)" gradientUnits="userSpaceOnUse">
<stop offset="0%" stop-opacity="1" style="stop-color:rgb(255,229,72)"/>
<stop offset="100%" stop-opacity="1" style="stop-color:rgb(255,178,17)"/>
</linearGradient>
<path d=" M 119.322 261.998 C 119.304 261.973 119.287 261.948 119.268 261.923 C 117.593 259.63 113.31 261.401 112.511 264.726 C 109.848 275.82 110.755 284.495 115.857 289.498 C 112.11 285.825 113.645 277.268 119.384 265.517 C 120.009 264.235 119.984 262.902 119.322 261.998 L 119.322 261.998 Z " fill="url(#_lgradient_5)"/>
<linearGradient id="_lgradient_6" x1="-1.580141728577297" y1="-2.256929942022463" x2="3.8044963923062878" y2="3.1277081788611243" gradientTransform="matrix(18.35,-2.767,-1.789,13.695,147.349,275.983)" gradientUnits="userSpaceOnUse">
<stop offset="0%" stop-opacity="1" style="stop-color:rgb(255,229,72)"/>
<stop offset="100%" stop-opacity="1" style="stop-color:rgb(255,178,17)"/>
</linearGradient>
<path d=" M 156.843 275.196 C 154.296 276.921 151.826 278.524 149.445 279.994 C 145.958 282.146 145.025 286.745 147.724 288.436 C 148.819 289.123 150.315 289.177 151.801 288.566 C 154.817 287.325 157.948 285.881 161.177 284.245 C 164.979 282.318 166.251 277.37 163.441 275.524 C 163.041 275.26 162.641 274.994 162.242 274.725 C 160.818 273.765 158.69 273.945 156.843 275.196 Z " fill="url(#_lgradient_6)"/>
<linearGradient id="_lgradient_7" x1="-0.08111904086567456" y1="-0.32204322074600233" x2="5.296672741016068" y2="5.055748561135743" gradientTransform="matrix(18.437,-2.78,-1.792,13.718,245.549,110.747)" gradientUnits="userSpaceOnUse">
<stop offset="0%" stop-opacity="1" style="stop-color:rgb(255,229,72)"/>
<stop offset="100%" stop-opacity="1" style="stop-color:rgb(255,178,17)"/>
</linearGradient>
<path d=" M 252.636 122.483 C 255.214 120.735 257.714 119.115 260.122 117.629 C 263.572 115.501 264.514 110.934 261.846 109.259 C 261.82 109.243 261.795 109.227 261.768 109.21 C 260.688 108.534 259.219 108.471 257.754 109.073 C 254.697 110.33 251.522 111.795 248.246 113.457 C 244.482 115.368 243.221 120.264 246.003 122.091 C 246.442 122.38 246.88 122.671 247.316 122.966 C 248.719 123.914 250.815 123.716 252.636 122.483 Z " fill="url(#_lgradient_7)"/>
<linearGradient id="_lgradient_8" x1="-0.32010324250042277" y1="-0.08200345592689384" x2="6.057271128222725" y2="6.2953709147962575" gradientTransform="matrix(13.657,-2.059,-2.404,18.401,117.495,241.403)" gradientUnits="userSpaceOnUse">
<stop offset="0%" stop-opacity="1" style="stop-color:rgb(255,229,72)"/>
<stop offset="100%" stop-opacity="1" style="stop-color:rgb(255,178,17)"/>
</linearGradient>
<path d=" M 129.712 242.831 C 129.435 242.437 129.16 242.042 128.89 241.647 C 126.988 238.874 122.066 240.244 120.214 244.084 C 118.641 247.344 117.261 250.502 116.08 253.542 C 115.498 255.04 115.581 256.536 116.288 257.616 C 118.033 260.281 122.612 259.258 124.697 255.73 C 126.121 253.32 127.673 250.818 129.347 248.238 C 130.562 246.366 130.7 244.235 129.712 242.831 Z " fill="url(#_lgradient_8)"/>
<linearGradient id="_lgradient_9" x1="0.2908743306484993" y1="-0.2723377814647556" x2="0.43768107055031447" y2="0.4225479897930955" gradientTransform="matrix(13.68,-2.063,-2.416,18.489,280.751,139.88)" gradientUnits="userSpaceOnUse">
<stop offset="0%" stop-opacity="1" style="stop-color:rgb(255,229,72)"/>
<stop offset="100%" stop-opacity="1" style="stop-color:rgb(255,178,17)"/>
</linearGradient>
<path d=" M 279.763 154.781 C 280.067 155.212 280.367 155.643 280.664 156.076 C 282.546 158.822 287.416 157.465 289.252 153.664 C 290.85 150.356 292.252 147.152 293.448 144.07 C 294.021 142.594 293.93 141.126 293.232 140.059 C 293.214 140.035 293.198 140.009 293.182 139.983 C 291.455 137.348 286.907 138.382 284.847 141.871 C 283.409 144.31 281.838 146.839 280.142 149.452 C 278.945 151.296 278.788 153.396 279.763 154.781 L 279.763 154.781 Z " fill="url(#_lgradient_9)"/>
<linearGradient id="_lgradient_10" x1="-0.009114655975199892" y1="0.06998609002063372" x2="5.941773145787395" y2="6.020873891783231" gradientTransform="matrix(17.083,-2.576,-2.567,19.649,127.561,221.549)" gradientUnits="userSpaceOnUse">
<stop offset="0%" stop-opacity="1" style="stop-color:rgb(255,229,72)"/>
<stop offset="100%" stop-opacity="1" style="stop-color:rgb(255,178,17)"/>
</linearGradient>
<path d=" M 131.329 224.279 C 129.785 226.716 128.321 229.123 126.939 231.493 C 125.59 233.806 125.431 236.346 126.55 238.106 C 126.572 238.138 126.593 238.172 126.614 238.206 C 128.77 241.59 134.382 240.69 137.44 236.455 C 138.902 234.431 140.424 232.372 142.001 230.282 C 143.975 227.669 144.291 224.508 142.817 222.491 C 142.657 222.271 142.496 222.053 142.336 221.833 C 139.95 218.532 134.16 219.813 131.329 224.279 L 131.329 224.279 Z " fill="url(#_lgradient_10)"/>
<linearGradient id="_lgradient_11" x1="0.27200149111912353" y1="-0.3311653277324811" x2="0.4729490468448868" y2="0.49088740060824654" gradientTransform="matrix(17.081,-2.575,-2.567,19.647,267.434,159.037)" gradientUnits="userSpaceOnUse">
<stop offset="0%" stop-opacity="1" style="stop-color:rgb(255,229,72)"/>
<stop offset="100%" stop-opacity="1" style="stop-color:rgb(255,178,17)"/>
</linearGradient>
<path d=" M 278.181 173.378 C 279.725 170.94 281.189 168.535 282.571 166.165 C 283.918 163.853 284.078 161.313 282.96 159.553 C 282.938 159.519 282.917 159.486 282.895 159.453 C 280.74 156.069 275.128 156.969 272.069 161.204 C 270.608 163.228 269.087 165.287 267.51 167.375 C 265.536 169.99 265.22 173.151 266.694 175.167 C 266.854 175.386 267.014 175.606 267.172 175.825 C 269.56 179.126 275.352 177.845 278.181 173.378 Z " fill="url(#_lgradient_11)"/>
<linearGradient id="_lgradient_12" x1="0.6150834567067598" y1="-0.035565944959726536" x2="0.46118484062981313" y2="0.6071898678052403" gradientTransform="matrix(19.594,-2.954,-2.238,17.13,166.206,262.28)" gradientUnits="userSpaceOnUse">
<stop offset="0%" stop-opacity="1" style="stop-color:rgb(255,229,72)"/>
<stop offset="100%" stop-opacity="1" style="stop-color:rgb(255,178,17)"/>
</linearGradient>
<path d=" M 174.546 262.191 C 172.488 263.81 170.459 265.371 168.463 266.874 C 164.29 270.014 163.501 275.642 166.927 277.732 C 166.961 277.752 166.995 277.773 167.027 277.793 C 168.81 278.878 171.346 278.668 173.632 277.274 C 175.974 275.847 178.351 274.335 180.758 272.742 C 185.167 269.826 186.334 264.011 182.988 261.689 C 182.765 261.535 182.54 261.378 182.318 261.221 C 180.273 259.787 177.12 260.167 174.546 262.191 Z " fill="url(#_lgradient_12)"/>
<linearGradient id="_lgradient_13" x1="0.06995945825531447" y1="-0.009118207191190941" x2="5.600486754100263" y2="5.52140908865376" gradientTransform="matrix(19.593,-2.954,-2.238,17.13,225.949,121.203)" gradientUnits="userSpaceOnUse">
<stop offset="0%" stop-opacity="1" style="stop-color:rgb(255,229,72)"/>
<stop offset="100%" stop-opacity="1" style="stop-color:rgb(255,178,17)"/>
</linearGradient>
<path d=" M 242.583 119.927 C 242.549 119.906 242.515 119.886 242.481 119.866 C 240.699 118.781 238.164 118.991 235.878 120.385 C 233.536 121.812 231.16 123.323 228.753 124.915 C 224.344 127.833 223.176 133.649 226.523 135.971 C 226.746 136.126 226.968 136.281 227.19 136.437 C 229.235 137.871 232.391 137.492 234.965 135.467 C 237.023 133.847 239.051 132.286 241.045 130.786 C 245.22 127.644 246.009 122.016 242.583 119.927 Z " fill="url(#_lgradient_13)"/>
<linearGradient id="_lgradient_14" x1="0.15826436392884968" y1="0.1284587669693551" x2="6.046132503110925" y2="6.016326906151433" gradientTransform="matrix(20.194,-3.045,-2.482,18.999,206.59,134.902)" gradientUnits="userSpaceOnUse">
<stop offset="0%" stop-opacity="1" style="stop-color:rgb(255,229,72)"/>
<stop offset="100%" stop-opacity="1" style="stop-color:rgb(255,178,17)"/>
</linearGradient>
<path d=" M 223.517 133.935 C 223.479 133.911 223.442 133.886 223.405 133.861 C 221.054 132.312 217.532 132.746 214.598 134.967 C 212.805 136.326 211.001 137.723 209.189 139.159 C 204.744 142.681 203.701 148.676 207.101 151.327 C 207.231 151.427 207.36 151.528 207.49 151.629 C 209.98 153.579 214.069 152.986 217.213 150.235 C 218.849 148.803 220.476 147.398 222.091 146.023 C 226.424 142.33 227.135 136.326 223.517 133.935 Z " fill="url(#_lgradient_14)"/>
<linearGradient id="_lgradient_15" x1="0.12845165921319923" y1="0.1583003942176382" x2="6.213006362471194" y2="6.242855097475637" gradientTransform="matrix(18.947,-2.857,-2.646,20.251,140.876,201.924)" gradientUnits="userSpaceOnUse">
<stop offset="0%" stop-opacity="1" style="stop-color:rgb(255,229,72)"/>
<stop offset="100%" stop-opacity="1" style="stop-color:rgb(255,178,17)"/>
</linearGradient>
<path d=" M 157.618 202.495 C 157.514 202.367 157.411 202.239 157.307 202.11 C 154.591 198.764 148.618 199.924 145.184 204.438 C 143.785 206.278 142.422 208.109 141.1 209.93 C 138.937 212.907 138.571 216.436 140.168 218.757 C 140.193 218.794 140.218 218.831 140.244 218.867 C 142.705 222.439 148.694 221.609 152.3 217.203 C 153.644 215.561 155.017 213.907 156.417 212.242 C 159.105 209.045 159.616 204.946 157.618 202.495 Z " fill="url(#_lgradient_15)"/>
<linearGradient id="_lgradient_16" x1="0.2884104538521761" y1="-0.24563986144583527" x2="0.509020882498761" y2="0.5750290976275587" gradientTransform="matrix(18.947,-2.857,-2.646,20.25,252.333,178.34)" gradientUnits="userSpaceOnUse">
<stop offset="0%" stop-opacity="1" style="stop-color:rgb(255,229,72)"/>
<stop offset="100%" stop-opacity="1" style="stop-color:rgb(255,178,17)"/>
</linearGradient>
<path d=" M 251.892 195.164 C 251.995 195.291 252.099 195.419 252.203 195.546 C 254.919 198.893 260.892 197.733 264.327 193.219 C 265.726 191.38 267.088 189.548 268.411 187.728 C 270.575 184.751 270.939 181.221 269.342 178.902 C 269.317 178.865 269.291 178.828 269.266 178.791 C 266.805 175.22 260.816 176.05 257.209 180.455 C 255.865 182.097 254.494 183.751 253.095 185.415 C 250.405 188.612 249.894 192.713 251.892 195.164 L 251.892 195.164 Z " fill="url(#_lgradient_16)"/>
<linearGradient id="_lgradient_17" x1="0.6181280580614281" y1="-0.1224241214284385" x2="0.5039416195522914" y2="0.448515283044136" gradientTransform="matrix(20.195,-3.045,-2.482,19,185.207,246.802)" gradientUnits="userSpaceOnUse">
<stop offset="0%" stop-opacity="1" style="stop-color:rgb(255,229,72)"/>
<stop offset="100%" stop-opacity="1" style="stop-color:rgb(255,178,17)"/>
</linearGradient>
<path d=" M 185.992 263.723 C 186.029 263.747 186.067 263.772 186.104 263.796 C 188.456 265.347 191.978 264.912 194.91 262.692 C 196.705 261.333 198.51 259.934 200.321 258.499 C 204.766 254.977 205.809 248.982 202.41 246.334 C 202.279 246.231 202.15 246.13 202.019 246.029 C 199.529 244.08 195.441 244.671 192.297 247.422 C 190.661 248.855 189.034 250.259 187.419 251.636 C 183.084 255.328 182.373 261.334 185.992 263.723 L 185.992 263.723 Z " fill="url(#_lgradient_17)"/>
<linearGradient id="_lgradient_18" x1="0.1822200667846663" y1="0.17411433419613775" x2="6.875194062410156" y2="6.867088329821629" gradientTransform="matrix(19.213,-2.897,-2.471,18.911,189.258,150.328)" gradientUnits="userSpaceOnUse">
<stop offset="0%" stop-opacity="1" style="stop-color:rgb(255,229,72)"/>
<stop offset="100%" stop-opacity="1" style="stop-color:rgb(255,178,17)"/>
</linearGradient>
<path d=" M 205.236 149.886 C 205.198 149.858 205.16 149.828 205.123 149.8 C 202.414 147.732 198.011 148.382 194.643 151.368 C 193.621 152.274 192.598 153.192 191.576 154.119 C 187.442 157.867 186.572 163.613 189.703 166.429 C 189.76 166.481 189.819 166.534 189.878 166.585 C 192.628 169.062 197.49 168.354 201.052 164.975 C 201.976 164.098 202.897 163.229 203.817 162.368 C 208.016 158.438 208.691 152.527 205.236 149.886 Z " fill="url(#_lgradient_18)"/>
<linearGradient id="_lgradient_19" x1="0.17409273422817573" y1="0.18224112128306968" x2="6.930230588911776" y2="6.938378975966673" gradientTransform="matrix(18.858,-2.843,-2.517,19.267,155.958,184.292)" gradientUnits="userSpaceOnUse">
<stop offset="0%" stop-opacity="1" style="stop-color:rgb(255,229,72)"/>
<stop offset="100%" stop-opacity="1" style="stop-color:rgb(255,178,17)"/>
</linearGradient>
<path d=" M 172.224 184.59 C 172.17 184.533 172.117 184.476 172.065 184.419 C 169.188 181.344 163.46 182.327 159.794 186.534 C 158.887 187.575 157.99 188.615 157.104 189.655 C 154.185 193.081 153.621 197.496 155.743 200.164 C 155.772 200.201 155.801 200.238 155.831 200.275 C 158.54 203.679 164.435 202.886 168.283 198.611 C 169.126 197.673 169.976 196.735 170.835 195.794 C 174.143 192.166 174.753 187.292 172.224 184.59 Z " fill="url(#_lgradient_19)"/>
<linearGradient id="_lgradient_20" x1="0.36364488810539886" y1="-0.5534040832772567" x2="0.4929429918835798" y2="0.46250742270913636" gradientTransform="matrix(18.858,-2.843,-2.517,19.266,237.211,196.944)" gradientUnits="userSpaceOnUse">
<stop offset="0%" stop-opacity="1" style="stop-color:rgb(255,229,72)"/>
<stop offset="100%" stop-opacity="1" style="stop-color:rgb(255,178,17)"/>
</linearGradient>
<path d=" M 237.285 213.069 C 237.338 213.125 237.392 213.183 237.445 213.24 C 240.321 216.315 246.048 215.331 249.716 211.125 C 250.623 210.084 251.52 209.042 252.406 208.003 C 255.324 204.578 255.888 200.161 253.767 197.495 C 253.738 197.458 253.708 197.42 253.678 197.384 C 250.97 193.98 245.073 194.774 241.227 199.048 C 240.383 199.985 239.532 200.924 238.675 201.865 C 235.367 205.491 234.755 210.366 237.285 213.069 L 237.285 213.069 Z " fill="url(#_lgradient_20)"/>
<linearGradient id="_lgradient_21" x1="0.6252920949985299" y1="-0.2723099273321159" x2="0.4867962854005734" y2="0.5678920880122627" gradientTransform="matrix(19.212,-2.897,-2.471,18.911,203.51,231.316)" gradientUnits="userSpaceOnUse">
<stop offset="0%" stop-opacity="1" style="stop-color:rgb(255,229,72)"/>
<stop offset="100%" stop-opacity="1" style="stop-color:rgb(255,178,17)"/>
</linearGradient>
<path d=" M 204.274 247.771 C 204.312 247.801 204.35 247.829 204.387 247.858 C 207.096 249.926 211.499 249.277 214.865 246.29 C 215.889 245.383 216.911 244.466 217.934 243.539 C 222.067 239.79 222.938 234.044 219.807 231.229 C 219.748 231.177 219.691 231.125 219.632 231.072 C 216.881 228.597 212.02 229.304 208.458 232.684 C 207.534 233.559 206.613 234.428 205.692 235.291 C 201.494 239.221 200.819 245.13 204.274 247.771 L 204.274 247.771 Z " fill="url(#_lgradient_21)"/>
<linearGradient id="_lgradient_22" x1="0.20884579596501185" y1="0.20879832335063409" x2="6.817704240629537" y2="6.817656768015162" gradientTransform="matrix(20.618,-3.109,-2.701,20.675,171.486,166.211)" gradientUnits="userSpaceOnUse">
<stop offset="0%" stop-opacity="1" style="stop-color:rgb(255,229,72)"/>
<stop offset="100%" stop-opacity="1" style="stop-color:rgb(255,178,17)"/>
</linearGradient>
<path d=" M 185.668 180.114 C 186.349 179.421 187.03 178.729 187.71 178.042 C 191.551 174.162 192.173 168.646 189.111 165.899 C 189.075 165.866 189.04 165.833 189.003 165.802 C 186.128 163.225 181.004 164.033 177.389 167.661 C 176.662 168.391 175.937 169.126 175.212 169.864 C 174.487 170.604 173.767 171.344 173.052 172.084 C 169.496 175.771 168.789 180.909 171.421 183.733 C 171.455 183.767 171.488 183.803 171.521 183.839 C 174.328 186.847 179.831 186.116 183.633 182.199 C 184.309 181.504 184.986 180.809 185.668 180.114 Z " fill="url(#_lgradient_22)"/>
<linearGradient id="_lgradient_23" x1="0.50000530889755" y1="-0.1416953006402739" x2="0.5000064862823503" y2="0.5033102369406349" gradientTransform="matrix(20.617,-3.108,-2.701,20.674,220.107,213.881)" gradientUnits="userSpaceOnUse">
<stop offset="0%" stop-opacity="1" style="stop-color:rgb(255,229,72)"/>
<stop offset="100%" stop-opacity="1" style="stop-color:rgb(255,178,17)"/>
</linearGradient>
<path d=" M 223.842 217.543 C 223.161 218.238 222.48 218.929 221.799 219.617 C 217.959 223.496 217.335 229.013 220.398 231.759 C 220.434 231.792 220.47 231.824 220.507 231.857 C 223.381 234.433 228.504 233.625 232.12 229.997 C 232.846 229.268 233.572 228.533 234.297 227.794 C 235.022 227.054 235.742 226.314 236.457 225.573 C 240.013 221.887 240.72 216.749 238.087 213.926 C 238.054 213.891 238.021 213.855 237.987 213.819 C 235.181 210.811 229.678 211.544 225.876 215.459 C 225.201 216.154 224.523 216.848 223.842 217.543 L 223.842 217.543 Z " fill="url(#_lgradient_23)"/>
<linearGradient id="_lgradient_24" x1="0.45499732722001873" y1="0.28369570324737625" x2="0.4911458481149207" y2="0.8018259708055583" gradientTransform="matrix(10.118,-1.526,-2.915,22.312,286.566,109.229)" gradientUnits="userSpaceOnUse">
<stop offset="0%" stop-opacity="1" style="stop-color:rgb(255,229,72)"/>
<stop offset="100%" stop-opacity="1" style="stop-color:rgb(255,178,17)"/>
</linearGradient>
<path d=" M 284.876 128.997 C 285.16 129.324 285.44 129.652 285.718 129.981 C 287.308 131.862 290.912 130.628 292.13 127.769 C 296.172 118.27 296.918 111.362 293.652 108.161 C 295.07 109.55 291.891 115.445 285.188 124.556 C 284.068 126.078 283.934 127.91 284.876 128.997 L 284.876 128.997 Z " fill="url(#_lgradient_24)"/>
<linearGradient id="_lgradient_25" x1="0.19818255730806933" y1="0.3655736891835346" x2="2.549500647616405" y2="2.716891779491871" gradientTransform="matrix(10.118,-1.526,-2.915,22.313,115.741,267.643)" gradientUnits="userSpaceOnUse">
<stop offset="0%" stop-opacity="1" style="stop-color:rgb(255,229,72)"/>
<stop offset="100%" stop-opacity="1" style="stop-color:rgb(255,178,17)"/>
</linearGradient>
<path d=" M 124.633 268.662 C 124.35 268.334 124.069 268.006 123.79 267.677 C 122.202 265.797 118.597 267.03 117.38 269.891 C 113.338 279.388 112.592 286.297 115.857 289.498 C 114.44 288.109 117.618 282.215 124.321 273.104 C 125.442 271.579 125.576 269.747 124.633 268.662 Z " fill="url(#_lgradient_25)"/>
<linearGradient id="_lgradient_26" x1="0.5223064800391013" y1="0.06942000541313575" x2="0.43872992665157007" y2="0.6425138778024637" gradientTransform="matrix(22.25,-3.355,-1.326,10.147,271.8,108.476)" gradientUnits="userSpaceOnUse">
<stop offset="0%" stop-opacity="1" style="stop-color:rgb(255,229,72)"/>
<stop offset="100%" stop-opacity="1" style="stop-color:rgb(255,178,17)"/>
</linearGradient>
<path d=" M 271.992 116.524 C 272.328 116.795 272.661 117.07 272.994 117.347 C 274.098 118.268 275.927 118.098 277.429 116.946 C 286.406 110.065 292.236 106.772 293.652 108.161 C 290.387 104.961 283.496 105.841 274.08 110.07 C 271.243 111.344 270.082 114.971 271.992 116.524 Z " fill="url(#_lgradient_26)"/>
<linearGradient id="_lgradient_27" x1="-0.046145741891312875" y1="-0.6947091701554573" x2="1.3303941202007892" y2="0.6818306919366455" gradientTransform="matrix(22.25,-3.355,-1.326,10.146,116.786,282.391)" gradientUnits="userSpaceOnUse">
<stop offset="0%" stop-opacity="1" style="stop-color:rgb(255,229,72)"/>
<stop offset="100%" stop-opacity="1" style="stop-color:rgb(255,178,17)"/>
</linearGradient>
<path d=" M 137.517 281.135 C 137.182 280.863 136.849 280.589 136.517 280.312 C 135.412 279.391 133.583 279.561 132.081 280.712 C 123.104 287.593 117.273 290.887 115.858 289.497 C 119.121 292.699 126.014 291.817 135.43 287.589 C 138.266 286.315 139.428 282.687 137.517 281.135 L 137.517 281.135 Z " fill="url(#_lgradient_27)"/>
<linearGradient id="_lgradient_28" x1="0.42363118650846765" y1="0.04967013575996204" x2="0.5299457131252893" y2="0.7358719806862293" gradientTransform="matrix(15.562,-2.346,-2.416,18.492,273.436,131.461)" gradientUnits="userSpaceOnUse">
<stop offset="0%" stop-opacity="1" style="stop-color:rgb(255,229,72)"/>
<stop offset="100%" stop-opacity="1" style="stop-color:rgb(255,178,17)"/>
</linearGradient>
<path d=" M 282.512 145.723 C 284.363 142.745 286.037 139.889 287.521 137.17 C 288.512 135.353 288.503 133.402 287.499 132.146 C 287.228 131.807 286.955 131.47 286.679 131.134 C 284.985 129.07 281.283 129.744 279.096 132.503 C 277.339 134.72 275.444 137.06 273.419 139.512 C 271.714 141.574 271.439 144.192 272.751 145.734 C 273.316 146.397 273.872 147.065 274.421 147.737 C 276.29 150.029 280.481 148.99 282.512 145.723 Z " fill="url(#_lgradient_28)"/>
<linearGradient id="_lgradient_29" x1="0.524400384883033" y1="0.3388553017632323" x2="0.30831290021039326" y2="1.275237912311317" gradientTransform="matrix(18.44,-2.78,-2.039,15.605,254.354,116.008)" gradientUnits="userSpaceOnUse">
<stop offset="0%" stop-opacity="1" style="stop-color:rgb(255,229,72)"/>
<stop offset="100%" stop-opacity="1" style="stop-color:rgb(255,178,17)"/>
</linearGradient>
<path d=" M 270.821 115.585 C 270.479 115.317 270.137 115.05 269.793 114.786 C 268.517 113.807 266.566 113.836 264.769 114.864 C 262.08 116.402 259.258 118.13 256.317 120.04 C 253.091 122.135 252.135 126.346 254.464 128.169 C 255.146 128.704 255.824 129.247 256.5 129.799 C 258.067 131.08 260.678 130.754 262.708 129.009 C 265.118 126.935 267.42 124.994 269.602 123.195 C 272.317 120.954 272.918 117.239 270.821 115.585 L 270.821 115.585 Z " fill="url(#_lgradient_29)"/>
<linearGradient id="_lgradient_30" x1="-0.38712115093739086" y1="-0.5143390180749243" x2="1.2318349224636953" y2="1.1046170553261627" gradientTransform="matrix(18.386,-2.772,-2.036,15.583,138.78,268.837)" gradientUnits="userSpaceOnUse">
<stop offset="0%" stop-opacity="1" style="stop-color:rgb(255,229,72)"/>
<stop offset="100%" stop-opacity="1" style="stop-color:rgb(255,178,17)"/>
</linearGradient>
<path d=" M 138.729 282.104 C 139.051 282.358 139.374 282.608 139.698 282.858 C 140.985 283.847 142.953 283.816 144.766 282.78 C 147.426 281.258 150.218 279.549 153.124 277.664 C 156.36 275.565 157.371 271.311 155.037 269.482 C 154.367 268.957 153.701 268.424 153.038 267.884 C 151.454 266.587 148.817 266.918 146.767 268.681 C 144.388 270.726 142.115 272.642 139.959 274.421 C 137.218 276.685 136.61 280.436 138.729 282.104 L 138.729 282.104 Z " fill="url(#_lgradient_30)"/>
<linearGradient id="_lgradient_31" x1="0.5673014087301663" y1="0.5867237970304622" x2="2.340781695296069" y2="2.3602040835963622" gradientTransform="matrix(15.539,-2.343,-2.409,18.437,122.932,250.078)" gradientUnits="userSpaceOnUse">
<stop offset="0%" stop-opacity="1" style="stop-color:rgb(255,229,72)"/>
<stop offset="100%" stop-opacity="1" style="stop-color:rgb(255,178,17)"/>
</linearGradient>
<path d=" M 126.954 252.005 C 125.126 254.947 123.473 257.771 122.004 260.461 C 121.003 262.294 121.013 264.263 122.025 265.531 C 122.281 265.849 122.538 266.168 122.798 266.484 C 124.508 268.57 128.246 267.888 130.455 265.103 C 132.192 262.912 134.063 260.602 136.06 258.183 C 137.782 256.098 138.061 253.455 136.735 251.897 C 136.181 251.245 135.634 250.59 135.097 249.93 C 133.221 247.633 128.99 248.728 126.954 252.005 Z " fill="url(#_lgradient_31)"/>
<linearGradient id="_lgradient_32" x1="0.46755885712806666" y1="-0.09629115404355959" x2="0.502145614436591" y2="0.5781393728652784" gradientTransform="matrix(18.831,-2.839,-2.689,20.577,258.784,148.338)" gradientUnits="userSpaceOnUse">
<stop offset="0%" stop-opacity="1" style="stop-color:rgb(255,229,72)"/>
<stop offset="100%" stop-opacity="1" style="stop-color:rgb(255,178,17)"/>
</linearGradient>
<path d=" M 258.254 164.585 C 258.714 165.116 259.169 165.649 259.621 166.182 C 261.993 168.99 267.136 167.921 270.006 164.031 C 271.801 161.598 273.514 159.209 275.143 156.875 C 276.977 154.243 277.155 151.173 275.636 149.252 C 275.366 148.909 275.093 148.568 274.819 148.227 C 272.612 145.495 267.827 146.202 264.798 149.717 C 263.048 151.747 261.235 153.831 259.36 155.964 C 256.896 158.764 256.41 162.457 258.254 164.585 L 258.254 164.585 Z " fill="url(#_lgradient_32)"/>
<linearGradient id="_lgradient_33" x1="0.5290744933949112" y1="0.2060432065841391" x2="0.373728437789806" y2="1.5653291779134633" gradientTransform="matrix(20.52,-3.094,-2.467,18.884,236.117,128.025)" gradientUnits="userSpaceOnUse">
<stop offset="0%" stop-opacity="1" style="stop-color:rgb(255,229,72)"/>
<stop offset="100%" stop-opacity="1" style="stop-color:rgb(255,178,17)"/>
</linearGradient>
<path d=" M 246.535 143.391 C 248.63 141.473 250.678 139.618 252.673 137.83 C 256.128 134.732 256.74 129.933 253.965 127.782 C 253.62 127.513 253.273 127.247 252.926 126.984 C 250.973 125.503 247.908 125.742 245.314 127.627 C 243.011 129.301 240.657 131.062 238.259 132.905 C 234.427 135.85 233.459 141.013 236.313 143.33 C 236.857 143.77 237.398 144.215 237.938 144.664 C 240.101 146.467 243.783 145.908 246.535 143.391 L 246.535 143.391 Z " fill="url(#_lgradient_33)"/>
<linearGradient id="_lgradient_34" x1="-0.43613333260180887" y1="-0.5027196710890633" x2="1.0930572951553894" y2="1.0264709566681356" gradientTransform="matrix(20.521,-3.094,-2.468,18.886,155.34,253.842)" gradientUnits="userSpaceOnUse">
<stop offset="0%" stop-opacity="1" style="stop-color:rgb(255,229,72)"/>
<stop offset="100%" stop-opacity="1" style="stop-color:rgb(255,178,17)"/>
</linearGradient>
<path d=" M 162.978 254.264 C 160.883 256.182 158.833 258.038 156.838 259.828 C 153.382 262.926 152.77 267.726 155.545 269.878 C 155.891 270.145 156.237 270.411 156.584 270.675 C 158.535 272.156 161.602 271.916 164.196 270.03 C 166.499 268.356 168.854 266.595 171.252 264.753 C 175.084 261.808 176.051 256.646 173.199 254.33 C 172.654 253.888 172.11 253.441 171.568 252.99 C 169.406 251.19 165.728 251.75 162.978 254.264 L 162.978 254.264 Z " fill="url(#_lgradient_34)"/>
<linearGradient id="_lgradient_35" x1="0.4981492842201527" y1="0.44721968287223035" x2="0.5305129098250474" y2="1.7482412175466913" gradientTransform="matrix(18.833,-2.839,-2.689,20.579,134.583,231.581)" gradientUnits="userSpaceOnUse">
<stop offset="0%" stop-opacity="1" style="stop-color:rgb(255,229,72)"/>
<stop offset="100%" stop-opacity="1" style="stop-color:rgb(255,178,17)"/>
</linearGradient>
<path d=" M 151.259 233.077 C 150.797 232.544 150.339 232.01 149.886 231.475 C 147.515 228.668 142.374 229.736 139.506 233.625 C 137.709 236.06 135.995 238.448 134.367 240.784 C 132.533 243.416 132.353 246.486 133.873 248.408 C 134.144 248.749 134.416 249.09 134.69 249.431 C 136.897 252.163 141.683 251.457 144.713 247.941 C 146.463 245.909 148.278 243.825 150.154 241.691 C 152.614 238.893 153.101 235.204 151.259 233.077 L 151.259 233.077 Z " fill="url(#_lgradient_35)"/>
<linearGradient id="_lgradient_36" x1="0.6599626650313573" y1="-0.06660364787250561" x2="0.48439560409541604" y2="0.5381308324909538" gradientTransform="matrix(21.622,-3.26,-2.713,20.766,173.233,237.172)" gradientUnits="userSpaceOnUse">
<stop offset="0%" stop-opacity="1" style="stop-color:rgb(255,229,72)"/>
<stop offset="100%" stop-opacity="1" style="stop-color:rgb(255,178,17)"/>
</linearGradient>
<path d=" M 180.245 238.094 C 178.445 239.816 176.666 241.508 174.91 243.166 C 171.095 246.769 170.474 252.132 173.559 254.621 C 173.927 254.919 174.297 255.215 174.667 255.509 C 177.103 257.441 181.087 256.958 184.231 254.327 C 186.151 252.72 188.09 251.073 190.044 249.382 C 194.089 245.886 194.958 240.34 191.901 237.697 C 191.455 237.31 191.007 236.92 190.561 236.53 C 187.997 234.283 183.512 234.969 180.245 238.094 Z " fill="url(#_lgradient_36)"/>
<linearGradient id="_lgradient_37" x1="0.49261332526228085" y1="0.41246347699767405" x2="0.6032158888336216" y2="1.8871355028567611" gradientTransform="matrix(20.708,-3.122,-2.833,21.682,149.165,212.541)" gradientUnits="userSpaceOnUse">
<stop offset="0%" stop-opacity="1" style="stop-color:rgb(255,229,72)"/>
<stop offset="100%" stop-opacity="1" style="stop-color:rgb(255,178,17)"/>
</linearGradient>
<path d=" M 154.501 214.533 C 152.85 216.521 151.24 218.492 149.673 220.443 C 147.104 223.639 146.7 227.631 148.68 230.028 C 148.98 230.393 149.284 230.757 149.589 231.119 C 152.138 234.154 157.488 233.427 161.015 229.542 C 162.638 227.754 164.294 225.942 165.981 224.108 C 169.041 220.78 169.638 216.284 167.342 213.764 C 166.941 213.324 166.544 212.885 166.148 212.445 C 163.445 209.443 157.917 210.421 154.501 214.533 L 154.501 214.533 Z " fill="url(#_lgradient_37)"/>
<linearGradient id="_lgradient_38" x1="0.5157657601952739" y1="0.3064300523409089" x2="0.36833800078881485" y2="1.9650027300347304" gradientTransform="matrix(21.623,-3.26,-2.713,20.765,217.369,142.98)" gradientUnits="userSpaceOnUse">
<stop offset="0%" stop-opacity="1" style="stop-color:rgb(255,229,72)"/>
<stop offset="100%" stop-opacity="1" style="stop-color:rgb(255,178,17)"/>
</linearGradient>
<path d=" M 235.953 143.039 C 235.584 142.74 235.213 142.444 234.841 142.149 C 232.407 140.217 228.423 140.701 225.277 143.331 C 223.359 144.936 221.421 146.585 219.467 148.274 C 215.421 151.771 214.552 157.319 217.61 159.963 C 218.056 160.348 218.501 160.736 218.947 161.126 C 221.513 163.374 225.998 162.689 229.266 159.562 C 231.068 157.84 232.847 156.148 234.602 154.49 C 238.415 150.889 239.035 145.527 235.953 143.039 L 235.953 143.039 Z " fill="url(#_lgradient_38)"/>
<linearGradient id="_lgradient_39" x1="0.45526647487155714" y1="-0.010386642892108" x2="0.5209186605238824" y2="0.7610268192747782" gradientTransform="matrix(20.708,-3.122,-2.833,21.682,242.47,166.556)" gradientUnits="userSpaceOnUse">
<stop offset="0%" stop-opacity="1" style="stop-color:rgb(255,229,72)"/>
<stop offset="100%" stop-opacity="1" style="stop-color:rgb(255,178,17)"/>
</linearGradient>
<path d=" M 255.01 183.123 C 256.66 181.135 258.27 179.166 259.837 177.216 C 262.405 174.019 262.81 170.027 260.83 167.631 C 260.528 167.265 260.225 166.901 259.919 166.536 C 257.37 163.504 252.022 164.23 248.496 168.114 C 246.873 169.902 245.217 171.714 243.531 173.548 C 240.469 176.877 239.872 181.377 242.169 183.897 C 242.569 184.334 242.965 184.772 243.36 185.21 C 246.064 188.215 251.593 187.237 255.01 183.123 L 255.01 183.123 Z " fill="url(#_lgradient_39)"/>
<linearGradient id="_lgradient_40" x1="0.49727124962803293" y1="0.4031360663061627" x2="0.5417693561564723" y2="1.8970326049409498" gradientTransform="matrix(20.894,-3.15,-2.696,20.632,199.98,159.497)" gradientUnits="userSpaceOnUse">
<stop offset="0%" stop-opacity="1" style="stop-color:rgb(255,229,72)"/>
<stop offset="100%" stop-opacity="1" style="stop-color:rgb(255,178,17)"/>
</linearGradient>
<path d=" M 217.767 160.1 C 217.373 159.759 216.979 159.419 216.584 159.082 C 213.855 156.742 209.152 157.411 205.659 160.652 C 204.459 161.765 203.257 162.891 202.05 164.029 C 198.09 167.768 197.276 173.322 200.273 176.125 C 200.664 176.49 201.055 176.857 201.447 177.225 C 204.226 179.835 209.279 179.08 212.874 175.52 C 214.022 174.385 215.163 173.259 216.297 172.143 C 220.18 168.326 220.871 162.787 217.767 160.1 Z " fill="url(#_lgradient_40)"/>
<linearGradient id="_lgradient_41" x1="0.5196247663825377" y1="0.018751170933593464" x2="0.489344413198586" y2="0.7555847161020133" gradientTransform="matrix(20.894,-3.15,-2.696,20.632,191.331,220.68)" gradientUnits="userSpaceOnUse">
<stop offset="0%" stop-opacity="1" style="stop-color:rgb(255,229,72)"/>
<stop offset="100%" stop-opacity="1" style="stop-color:rgb(255,178,17)"/>
</linearGradient>
<path d=" M 191.742 237.559 C 192.136 237.9 192.529 238.24 192.924 238.577 C 195.655 240.915 200.358 240.248 203.849 237.008 C 205.05 235.894 206.253 234.768 207.46 233.628 C 211.418 229.889 212.234 224.337 209.235 221.533 C 208.846 221.167 208.453 220.802 208.063 220.433 C 205.283 217.824 200.23 218.578 196.634 222.139 C 195.488 223.273 194.347 224.4 193.211 225.515 C 189.329 229.332 188.639 234.872 191.742 237.559 L 191.742 237.559 Z " fill="url(#_lgradient_41)"/>
<linearGradient id="_lgradient_42" x1="0.4120951723071826" y1="-0.1857673783942917" x2="0.5055070720051125" y2="0.5530250528759156" gradientTransform="matrix(20.574,-3.102,-2.738,20.952,226.337,184.977)" gradientUnits="userSpaceOnUse">
<stop offset="0%" stop-opacity="1" style="stop-color:rgb(255,229,72)"/>
<stop offset="100%" stop-opacity="1" style="stop-color:rgb(255,178,17)"/>
</linearGradient>
<path d=" M 226.42 201.71 C 226.796 202.095 227.17 202.478 227.543 202.861 C 230.404 205.804 235.941 204.88 239.601 200.847 C 240.716 199.618 241.818 198.393 242.907 197.172 C 246.078 193.616 246.654 188.901 244.262 186.218 C 243.916 185.83 243.57 185.442 243.22 185.055 C 240.472 182.006 234.948 182.806 231.208 186.761 C 230.116 187.919 229.012 189.082 227.901 190.25 C 224.411 193.917 223.757 198.983 226.42 201.71 L 226.42 201.71 Z " fill="url(#_lgradient_42)"/>
<linearGradient id="_lgradient_43" x1="0.49932624258949065" y1="0.48687609660956044" x2="0.5692571314103878" y2="2.006265845977307" gradientTransform="matrix(20.575,-3.102,-2.738,20.952,165.336,194.831)" gradientUnits="userSpaceOnUse">
<stop offset="0%" stop-opacity="1" style="stop-color:rgb(255,229,72)"/>
<stop offset="100%" stop-opacity="1" style="stop-color:rgb(255,178,17)"/>
</linearGradient>
<path d=" M 183.09 195.948 C 182.714 195.563 182.34 195.179 181.967 194.797 C 179.104 191.854 173.569 192.779 169.909 196.812 C 168.794 198.04 167.692 199.266 166.601 200.487 C 163.432 204.042 162.856 208.757 165.247 211.441 C 165.594 211.828 165.94 212.215 166.29 212.603 C 169.038 215.652 174.562 214.853 178.302 210.897 C 179.394 209.74 180.498 208.577 181.609 207.408 C 185.099 203.742 185.753 198.676 183.09 195.948 L 183.09 195.948 Z " fill="url(#_lgradient_43)"/>
<linearGradient id="_lgradient_44" x1="0.48786066554110263" y1="0.4173700726795704" x2="0.7368906401943948" y2="2.0894287835221075" gradientTransform="matrix(22.401,-3.377,-2.935,22.464,181.674,176.199)" gradientUnits="userSpaceOnUse">
<stop offset="0%" stop-opacity="1" style="stop-color:rgb(255,229,72)"/>
<stop offset="100%" stop-opacity="1" style="stop-color:rgb(255,178,17)"/>
</linearGradient>
<path d=" M 197.125 191.348 C 197.929 190.529 198.731 189.712 199.531 188.899 C 203.316 185.058 203.999 179.618 201.036 176.84 C 200.655 176.481 200.273 176.125 199.893 175.77 C 197.029 173.095 191.821 173.896 188.16 177.588 C 187.329 178.425 186.499 179.268 185.668 180.116 C 184.837 180.963 184.011 181.81 183.191 182.656 C 179.571 186.391 178.874 191.613 181.604 194.424 C 181.966 194.797 182.331 195.17 182.696 195.546 C 185.532 198.454 190.957 197.662 194.723 193.804 C 195.521 192.987 196.32 192.168 197.125 191.348 Z " fill="url(#_lgradient_44)"/>
<linearGradient id="_lgradient_45" x1="0.41238670741943295" y1="0.010435358738734912" x2="0.4915714899537287" y2="0.45386558989439774" gradientTransform="matrix(22.402,-3.378,-2.935,22.463,208.369,202.374)" gradientUnits="userSpaceOnUse">
<stop offset="0%" stop-opacity="1" style="stop-color:rgb(255,229,72)"/>
<stop offset="100%" stop-opacity="1" style="stop-color:rgb(255,178,17)"/>
</linearGradient>
<path d=" M 212.384 206.311 C 211.581 207.13 210.777 207.948 209.977 208.76 C 206.194 212.601 205.509 218.041 208.473 220.819 C 208.855 221.176 209.235 221.534 209.617 221.889 C 212.481 224.562 217.687 223.763 221.35 220.07 C 222.181 219.233 223.011 218.391 223.842 217.543 C 224.673 216.696 225.499 215.849 226.319 215.003 C 229.939 211.268 230.636 206.046 227.905 203.235 C 227.542 202.862 227.179 202.489 226.814 202.113 C 223.978 199.205 218.553 199.997 214.787 203.855 C 213.989 204.672 213.188 205.49 212.384 206.311 L 212.384 206.311 Z " fill="url(#_lgradient_45)"/>
<linearGradient id="_lgradient_46" x1="0.4777566023582054" y1="0.04550997616334729" x2="0.5273219393120474" y2="0.7063816387850556" gradientTransform="matrix(16.079,-2.424,-2.107,16.123,278.134,110.013)" gradientUnits="userSpaceOnUse">
<stop offset="0%" stop-opacity="1" style="stop-color:rgb(255,229,72)"/>
<stop offset="100%" stop-opacity="1" style="stop-color:rgb(255,178,17)"/>
</linearGradient>
<path d=" M 278.98 115.77 C 276.862 117.359 276.26 120.16 277.727 121.539 C 278.212 121.996 278.695 122.459 279.173 122.928 C 279.652 123.397 280.124 123.871 280.591 124.347 C 281.999 125.785 284.787 125.131 286.334 122.98 C 292.25 114.765 294.986 109.468 293.652 108.161 C 292.319 106.853 287.077 109.693 278.98 115.77 Z " fill="url(#_lgradient_46)"/>
<linearGradient id="_lgradient_47" x1="0.23664732919685438" y1="0.3779783202380784" x2="1.0161432313668088" y2="1.1574742224080317" gradientTransform="matrix(16.078,-2.424,-2.107,16.123,117.404,273.946)" gradientUnits="userSpaceOnUse">
<stop offset="0%" stop-opacity="1" style="stop-color:rgb(255,229,72)"/>
<stop offset="100%" stop-opacity="1" style="stop-color:rgb(255,178,17)"/>
</linearGradient>
<path d=" M 130.53 281.889 C 132.648 280.299 133.248 277.498 131.783 276.117 C 131.298 275.661 130.815 275.198 130.337 274.73 C 129.858 274.261 129.386 273.788 128.921 273.311 C 127.511 271.873 124.723 272.528 123.174 274.679 C 117.26 282.892 114.524 288.189 115.858 289.497 C 117.19 290.805 122.433 287.965 130.53 281.889 L 130.53 281.889 Z " fill="url(#_lgradient_47)"/>
<linearGradient id="_lgradient_48" x1="0.3167018709164753" y1="0.354823734583265" x2="0.9810484801753208" y2="1.0191703438421107" gradientTransform="matrix(19.868,-2.996,-2.603,19.925,129.241,258.578)" gradientUnits="userSpaceOnUse">
<stop offset="0%" stop-opacity="1" style="stop-color:rgb(255,229,72)"/>
<stop offset="100%" stop-opacity="1" style="stop-color:rgb(255,178,17)"/>
</linearGradient>
<path d=" M 144.527 260.256 C 143.791 259.535 143.067 258.806 142.353 258.072 C 140.572 256.24 137.075 256.942 134.931 259.556 C 132.841 262.105 130.898 264.526 129.113 266.807 C 127.441 268.944 127.251 271.596 128.682 273.068 C 129.226 273.627 129.777 274.181 130.337 274.73 C 130.896 275.278 131.461 275.818 132.03 276.351 C 133.531 277.754 136.178 277.512 138.281 275.798 C 140.527 273.968 142.909 271.977 145.416 269.838 C 147.988 267.642 148.621 264.131 146.754 262.387 C 146.006 261.688 145.263 260.978 144.527 260.256 Z " fill="url(#_lgradient_48)"/>
<linearGradient id="_lgradient_49" x1="0.4543078778375289" y1="-0.09707229909369253" x2="0.5255947726613838" y2="0.7761757009836868" gradientTransform="matrix(19.907,-3.001,-2.608,19.962,262.983,122.139)" gradientUnits="userSpaceOnUse">
<stop offset="0%" stop-opacity="1" style="stop-color:rgb(255,229,72)"/>
<stop offset="100%" stop-opacity="1" style="stop-color:rgb(255,178,17)"/>
</linearGradient>
<path d=" M 264.983 137.401 C 265.729 138.133 266.464 138.872 267.187 139.616 C 268.951 141.433 272.417 140.737 274.543 138.146 C 276.658 135.566 278.624 133.118 280.428 130.812 C 282.082 128.698 282.27 126.074 280.853 124.617 C 280.301 124.049 279.742 123.486 279.173 122.928 C 278.605 122.371 278.031 121.822 277.452 121.281 C 275.968 119.894 273.347 120.134 271.267 121.829 C 268.997 123.679 266.587 125.691 264.049 127.858 C 261.501 130.033 260.874 133.513 262.725 135.242 C 263.483 135.951 264.236 136.67 264.983 137.401 Z " fill="url(#_lgradient_49)"/>
<linearGradient id="_lgradient_50" x1="0.34759465471954676" y1="0.36691333465172704" x2="0.9250124395229612" y2="0.9443311194551418" gradientTransform="matrix(23.35,-3.52,-3.059,23.416,142.888,241.634)" gradientUnits="userSpaceOnUse">
<stop offset="0%" stop-opacity="1" style="stop-color:rgb(255,229,72)"/>
<stop offset="100%" stop-opacity="1" style="stop-color:rgb(255,178,17)"/>
</linearGradient>
<path d=" M 149.057 242.941 C 147.083 245.195 145.179 247.392 143.349 249.528 C 140.87 252.421 140.509 256.181 142.516 258.241 C 143.178 258.918 143.847 259.589 144.527 260.256 C 145.207 260.923 145.893 261.58 146.582 262.227 C 148.681 264.194 152.433 263.76 155.277 261.224 C 157.376 259.353 159.535 257.404 161.75 255.385 C 164.994 252.429 165.712 247.933 163.305 245.66 C 162.534 244.933 161.768 244.197 161.006 243.449 C 160.244 242.701 159.492 241.95 158.75 241.194 C 156.431 238.833 151.949 239.639 149.057 242.941 L 149.057 242.941 Z " fill="url(#_lgradient_50)"/>
<linearGradient id="_lgradient_51" x1="0.41954216271617195" y1="0.13714724606504203" x2="0.6094746643573377" y2="0.9500667534560452" gradientTransform="matrix(23.348,-3.52,-3.059,23.413,246.333,136.13)" gradientUnits="userSpaceOnUse">
<stop offset="0%" stop-opacity="1" style="stop-color:rgb(255,229,72)"/>
<stop offset="100%" stop-opacity="1" style="stop-color:rgb(255,178,17)"/>
</linearGradient>
<path d=" M 260.454 154.716 C 262.428 152.463 264.331 150.265 266.16 148.132 C 268.64 145.237 269.001 141.477 266.993 139.417 C 266.332 138.739 265.662 138.068 264.983 137.401 C 264.302 136.736 263.618 136.079 262.928 135.432 C 260.829 133.465 257.077 133.899 254.233 136.437 C 252.134 138.306 249.976 140.252 247.761 142.271 C 244.516 145.227 243.799 149.726 246.207 152 C 246.976 152.727 247.742 153.464 248.503 154.21 C 249.265 154.956 250.016 155.708 250.757 156.462 C 253.078 158.824 257.562 158.018 260.454 154.716 Z " fill="url(#_lgradient_51)"/>
<linearGradient id="_lgradient_52" x1="0.3614353047893142" y1="0.37108745557201495" x2="0.9024989111774129" y2="0.9121510619601139" gradientTransform="matrix(25.393,-3.829,-3.327,25.464,158.932,223.494)" gradientUnits="userSpaceOnUse">
<stop offset="0%" stop-opacity="1" style="stop-color:rgb(255,229,72)"/>
<stop offset="100%" stop-opacity="1" style="stop-color:rgb(255,178,17)"/>
</linearGradient>
<path d=" M 178.634 225.47 C 177.838 224.691 177.049 223.909 176.269 223.126 C 173.611 220.459 168.55 221.307 165.173 224.988 C 163.376 226.946 161.617 228.876 159.894 230.779 C 156.827 234.167 156.316 238.716 158.731 241.175 C 159.48 241.937 160.238 242.695 161.006 243.449 C 161.775 244.202 162.549 244.946 163.325 245.679 C 165.831 248.045 170.368 247.445 173.696 244.31 C 175.564 242.551 177.46 240.753 179.38 238.919 C 182.993 235.47 183.743 230.393 181.025 227.788 C 180.226 227.024 179.429 226.251 178.634 225.47 L 178.634 225.47 Z " fill="url(#_lgradient_52)"/>
<linearGradient id="_lgradient_53" x1="0.39515795866154146" y1="0.04119758457858791" x2="0.6117085253132615" y2="0.970267643718184" gradientTransform="matrix(25.394,-3.829,-3.327,25.463,228.512,152.528)" gradientUnits="userSpaceOnUse">
<stop offset="0%" stop-opacity="1" style="stop-color:rgb(255,229,72)"/>
<stop offset="100%" stop-opacity="1" style="stop-color:rgb(255,178,17)"/>
</linearGradient>
<path d=" M 230.876 172.188 C 231.671 172.967 232.459 173.748 233.238 174.531 C 235.898 177.197 240.961 176.349 244.34 172.667 C 246.135 170.71 247.896 168.778 249.618 166.876 C 252.684 163.49 253.193 158.943 250.78 156.485 C 250.032 155.722 249.273 154.963 248.503 154.209 C 247.734 153.454 246.96 152.711 246.183 151.977 C 243.678 149.613 239.142 150.213 235.817 153.345 C 233.949 155.105 232.053 156.902 230.131 158.736 C 226.517 162.187 225.767 167.266 228.486 169.872 C 229.285 170.636 230.081 171.408 230.876 172.188 L 230.876 172.188 Z " fill="url(#_lgradient_53)"/>
<linearGradient id="_lgradient_54" x1="0.48208861339311637" y1="0.08366228120509023" x2="0.5238479540647618" y2="1.0608481565157983" gradientTransform="matrix(25.251,-3.807,-3.308,25.321,176.117,206.09)" gradientUnits="userSpaceOnUse">
<stop offset="0%" stop-opacity="1" style="stop-color:rgb(255,229,72)"/>
<stop offset="100%" stop-opacity="1" style="stop-color:rgb(255,178,17)"/>
</linearGradient>
<path d=" M 195.445 208.325 C 194.629 207.525 193.82 206.728 193.014 205.931 C 190.189 203.138 184.87 203.979 181.237 207.8 C 180.017 209.083 178.808 210.359 177.61 211.628 C 174.14 215.304 173.517 220.363 176.205 223.062 C 177.006 223.867 177.817 224.669 178.633 225.47 C 179.45 226.272 180.269 227.066 181.09 227.851 C 183.841 230.485 188.886 229.762 192.493 226.221 C 193.738 224.998 194.99 223.764 196.249 222.519 C 199.998 218.811 200.734 213.477 197.885 210.708 C 197.073 209.919 196.26 209.124 195.445 208.325 L 195.445 208.325 Z " fill="url(#_lgradient_54)"/>
<linearGradient id="_lgradient_55" x1="0.4553885782370637" y1="0.02257027568161618" x2="0.5472598353914702" y2="0.9997432284393292" gradientTransform="matrix(25.251,-3.807,-3.308,25.321,211.45,170.054)" gradientUnits="userSpaceOnUse">
<stop offset="0%" stop-opacity="1" style="stop-color:rgb(255,229,72)"/>
<stop offset="100%" stop-opacity="1" style="stop-color:rgb(255,178,17)"/>
</linearGradient>
<path d=" M 228.272 189.859 C 229.493 188.576 230.702 187.298 231.898 186.031 C 235.369 182.353 235.992 177.295 233.303 174.596 C 232.502 173.791 231.693 172.989 230.876 172.188 C 230.059 171.386 229.241 170.593 228.42 169.808 C 225.669 167.173 220.623 167.897 217.015 171.438 C 215.771 172.661 214.52 173.893 213.261 175.139 C 209.51 178.848 208.776 184.181 211.623 186.95 C 212.435 187.74 213.249 188.535 214.064 189.334 C 214.88 190.133 215.69 190.931 216.496 191.728 C 219.321 194.52 224.64 193.68 228.272 189.859 L 228.272 189.859 Z " fill="url(#_lgradient_55)"/>
<linearGradient id="_lgradient_56" x1="0.4586085999047267" y1="0.1688981246786403" x2="0.5504557338946126" y2="0.9036805832104858" gradientTransform="matrix(27.038,-4.077,-3.543,27.113,193.007,187.31)" gradientUnits="userSpaceOnUse">
<stop offset="0%" stop-opacity="1" style="stop-color:rgb(255,229,72)"/>
<stop offset="100%" stop-opacity="1" style="stop-color:rgb(255,178,17)"/>
</linearGradient>
<path d=" M 197.924 210.744 C 200.776 213.518 206.073 212.722 209.781 208.96 C 210.646 208.082 211.514 207.198 212.384 206.311 C 213.255 205.423 214.121 204.538 214.982 203.654 C 218.671 199.873 219.363 194.561 216.533 191.764 C 215.716 190.955 214.893 190.145 214.064 189.334 C 213.237 188.523 212.411 187.715 211.586 186.914 C 208.734 184.14 203.437 184.936 199.729 188.699 C 198.863 189.578 197.996 190.461 197.125 191.348 C 196.255 192.236 195.388 193.122 194.526 194.005 C 190.839 197.785 190.147 203.097 192.977 205.894 C 193.794 206.703 194.617 207.512 195.445 208.325 C 196.273 209.136 197.099 209.943 197.924 210.744 L 197.924 210.744 Z " fill="url(#_lgradient_56)"/>
<linearGradient id="_lgradient_57" x1="0.3876053633291338" y1="0.9850047190288036" x2="0.5950665480435287" y2="-0.17743780560071487" gradientTransform="matrix(18.937,-2.855,-2.929,22.415,111.551,277.432)" gradientUnits="userSpaceOnUse">
<stop offset="0%" stop-opacity="0" style="stop-color:rgb(151,160,59)"/>
<stop offset="100%" stop-opacity="1" style="stop-color:rgb(87,92,85)"/>
</linearGradient>
<path d=" M 118.76 296.424 C 119.8 295.363 121.118 294.661 122.418 294.477 L 122.958 294.401 C 124.258 294.217 125.576 293.514 126.616 292.454 L 128.388 290.646 L 126.367 288.666 L 116.482 278.973 L 114.461 276.993 L 112.691 278.799 C 111.885 279.62 111.303 280.604 111.005 281.61 L 111.006 281.623 L 108.953 297.331 L 109.459 297.827 C 111.692 300.015 115.855 299.387 118.76 296.424 L 118.76 296.424 Z " fill="url(#_lgradient_57)"/>
<linearGradient id="_lgradient_58" x1="0.8334279326187488" y1="0.6182120556462649" x2="0.44626919691680655" y2="0.2916520445860301" gradientTransform="matrix(123.094,-18.559,-22.874,175.072,111.051,137.525)" gradientUnits="userSpaceOnUse">
<stop offset="0%" stop-opacity="0" style="stop-color:rgb(255,178,17)"/>
<stop offset="16.91%" stop-opacity="0.168627" style="stop-color:rgb(255,172,19)"/>
<stop offset="38.379999999999995%" stop-opacity="0.384314" style="stop-color:rgb(255,157,26)"/>
<stop offset="62.32%" stop-opacity="0.623529" style="stop-color:rgb(255,131,38)"/>
<stop offset="87.87%" stop-opacity="0.878431" style="stop-color:rgb(255,95,53)"/>
<stop offset="100%" stop-opacity="1" style="stop-color:rgb(255,75,62)"/>
</linearGradient>
<path d=" M 185.992 263.723 C 186.029 263.747 186.067 263.772 186.104 263.796 C 188.456 265.347 191.978 264.912 194.91 262.692 C 195.003 262.622 195.096 262.55 195.188 262.479 C 195.188 262.479 211.368 137.45 211.271 137.525 C 210.578 138.064 209.884 138.607 209.189 139.159 C 205.443 142.126 204.116 146.847 205.82 149.847 C 205.718 149.936 205.615 150.024 205.512 150.114 C 205.422 150.036 205.331 149.96 205.236 149.886 C 205.198 149.858 205.16 149.828 205.123 149.8 C 202.414 147.733 198.009 148.383 194.643 151.368 C 193.621 152.274 192.598 153.192 191.574 154.121 C 187.889 157.463 186.807 162.388 188.834 165.414 C 188.786 165.461 188.738 165.509 188.688 165.555 C 185.768 163.293 180.879 164.159 177.389 167.661 C 176.662 168.391 175.937 169.126 175.212 169.864 C 174.487 170.604 173.767 171.344 173.052 172.086 C 169.618 175.643 168.85 180.548 171.17 183.423 C 171.122 183.473 171.077 183.522 171.031 183.571 C 167.966 181.604 163.063 182.783 159.793 186.534 C 158.885 187.576 157.988 188.617 157.102 189.656 C 154.184 193.081 153.62 197.498 155.741 200.165 C 155.77 200.202 155.801 200.239 155.83 200.277 C 155.904 200.371 155.983 200.46 156.063 200.548 C 155.975 200.653 155.889 200.756 155.801 200.862 C 152.77 199.215 148.076 200.637 145.183 204.439 C 143.783 206.279 142.421 208.11 141.098 209.931 C 138.935 212.907 138.57 216.437 140.166 218.758 C 140.192 218.794 140.217 218.831 140.242 218.868 C 140.472 219.201 140.734 219.497 141.021 219.754 C 140.865 219.968 140.706 220.184 140.551 220.396 C 137.755 219.174 133.594 220.704 131.328 224.28 C 129.784 226.718 128.319 229.125 126.937 231.494 C 125.59 233.806 125.43 236.346 126.549 238.107 C 126.571 238.14 126.591 238.174 126.613 238.206 C 126.945 238.73 127.361 239.149 127.837 239.47 C 127.645 239.787 127.459 240.102 127.271 240.418 C 124.98 239.601 121.661 241.082 120.213 244.084 C 118.641 247.344 117.26 250.504 116.078 253.542 C 115.496 255.04 115.58 256.536 116.288 257.618 C 116.657 258.182 117.158 258.571 117.731 258.816 C 117.429 259.522 117.141 260.218 116.864 260.907 C 115.06 261.038 113.034 262.543 112.51 264.726 C 109.847 275.82 110.753 284.497 115.856 289.499 C 120.957 294.502 129.65 295.237 140.689 292.355 C 142.862 291.789 144.325 289.734 144.422 287.927 C 145.106 287.636 145.796 287.335 146.496 287.019 C 146.752 287.587 147.151 288.08 147.722 288.438 C 148.817 289.125 150.315 289.179 151.8 288.567 C 154.815 287.326 157.946 285.883 161.176 284.247 C 164.148 282.74 165.564 279.392 164.702 277.118 C 165.013 276.924 165.325 276.731 165.638 276.533 C 165.969 277.003 166.396 277.41 166.925 277.732 C 166.959 277.753 166.993 277.773 167.027 277.794 C 168.808 278.878 171.344 278.668 173.63 277.275 C 175.972 275.847 178.35 274.336 180.757 272.744 C 184.287 270.407 185.735 266.217 184.457 263.446 C 184.667 263.287 184.88 263.124 185.091 262.963 C 185.354 263.245 185.654 263.499 185.992 263.723 L 185.992 263.723 Z  M 115.51 289.123 C 115.515 289.13 115.521 289.135 115.527 289.142 C 115.531 289.148 115.536 289.154 115.541 289.16 C 115.53 289.149 115.52 289.136 115.51 289.123 Z  M 116.201 289.806 C 116.207 289.812 116.213 289.816 116.219 289.821 C 116.226 289.826 116.231 289.832 116.238 289.839 C 116.225 289.828 116.212 289.818 116.201 289.806 Z " fill="url(#_lgradient_58)"/>
<linearGradient id="_lgradient_59" x1="0.4896535250136221" y1="0.41824188355325587" x2="0.5894476440068618" y2="0.6326928662462725" gradientTransform="matrix(153.076,-23.079,-11.551,88.411,125.96,211.943)" gradientUnits="userSpaceOnUse">
<stop offset="0%" stop-opacity="1" style="stop-color:rgb(172,193,48)"/>
<stop offset="100%" stop-opacity="1" style="stop-color:rgb(151,160,59)"/>
</linearGradient>
<path d=" M 115.831 289.472 C 115.831 289.472 181.577 203.564 274.935 189.482 C 278.36 188.966 279.779 192.809 277.215 195.634 C 251.521 223.935 155.939 323.788 115.831 289.472 L 115.831 289.472 Z " fill="url(#_lgradient_59)"/>
<linearGradient id="_lgradient_60" x1="0.5673048698833052" y1="0.5585412559734588" x2="0.30460892164559616" y2="0.29584530773574974" gradientTransform="matrix(153.071,-23.078,-11.19,85.644,125.599,214.71)" gradientUnits="userSpaceOnUse">
<stop offset="0%" stop-opacity="0" style="stop-color:rgb(151,160,59)"/>
<stop offset="100%" stop-opacity="1" style="stop-color:rgb(87,92,85)"/>
</linearGradient>
<path d=" M 277.215 195.634 C 278.377 194.353 278.714 192.867 278.423 191.669 C 221.426 205.034 115.831 289.472 115.831 289.472 C 155.939 323.788 251.521 223.935 277.215 195.634 Z " fill="url(#_lgradient_60)"/>
<linearGradient id="_lgradient_61" x1="0.6428163697135006" y1="0.5532679826641538" x2="0.15445968680065836" y2="0.36886788747597876" gradientTransform="matrix(153.072,-23.079,-11.389,87.169,125.798,213.185)" gradientUnits="userSpaceOnUse">
<stop offset="0%" stop-opacity="0" style="stop-color:rgb(151,160,59)"/>
<stop offset="100%" stop-opacity="1" style="stop-color:rgb(87,92,85)"/>
</linearGradient>
<path d=" M 277.215 195.634 C 278.896 193.781 278.856 191.499 277.67 190.287 C 276.852 191.081 276.025 191.889 275.179 192.721 C 181.906 284.523 115.831 289.472 115.831 289.472 C 155.939 323.788 251.521 223.935 277.215 195.634 Z " fill="url(#_lgradient_61)"/>
<linearGradient id="_lgradient_62" x1="0.5817599849520084" y1="0.5103474415735598" x2="0.23227209698793927" y2="0.34771430536588865" gradientTransform="matrix(88.166,-13.293,-20.056,153.501,125.087,137.659)" gradientUnits="userSpaceOnUse">
<stop offset="0%" stop-opacity="1" style="stop-color:rgb(172,193,48)"/>
<stop offset="100%" stop-opacity="1" style="stop-color:rgb(151,160,59)"/>
</linearGradient>
<path d=" M 115.883 289.523 C 115.883 289.523 200.478 222.095 212.716 128.48 C 213.165 125.044 209.294 123.701 206.52 126.32 C 178.731 152.567 80.783 250.1 115.883 289.523 L 115.883 289.523 Z " fill="url(#_lgradient_62)"/>
<linearGradient id="_lgradient_63" x1="0.4414574419707836" y1="0.4326948010689045" x2="0.8226951511020713" y2="0.8139325102001924" gradientTransform="matrix(85.406,-12.877,-20.055,153.496,125.087,137.663)" gradientUnits="userSpaceOnUse">
<stop offset="0%" stop-opacity="0" style="stop-color:rgb(151,160,59)"/>
<stop offset="100%" stop-opacity="1" style="stop-color:rgb(87,92,85)"/>
</linearGradient>
<path d=" M 206.52 126.321 C 207.778 125.134 209.257 124.766 210.461 125.034 C 198.223 182.283 115.883 289.523 115.883 289.523 C 80.784 250.1 178.731 152.567 206.52 126.321 Z " fill="url(#_lgradient_63)"/>
<linearGradient id="_lgradient_64" x1="0.4467307680388563" y1="0.3571837658742223" x2="0.653896508935967" y2="0.9058319318876544" gradientTransform="matrix(86.927,-13.106,-20.055,153.498,125.087,137.662)" gradientUnits="userSpaceOnUse">
<stop offset="0%" stop-opacity="0" style="stop-color:rgb(151,160,59)"/>
<stop offset="100%" stop-opacity="1" style="stop-color:rgb(87,92,85)"/>
</linearGradient>
<path d=" M 206.52 126.321 C 208.339 124.603 210.622 124.597 211.857 125.76 C 211.079 126.593 210.288 127.435 209.472 128.298 C 119.528 223.364 115.883 289.523 115.883 289.523 C 80.784 250.1 178.731 152.567 206.52 126.321 L 206.52 126.321 Z " fill="url(#_lgradient_64)"/>
</g>
</g>
</svg>
