<?xml version="1.0" standalone="no"?>
<!-- Generator: Gravit.io -->
<svg xmlns="http://www.w3.org/2000/svg" xmlns:xlink="http://www.w3.org/1999/xlink" style="isolation:isolate" viewBox="0 0 400 400" width="400" height="400">
<defs>
<clipPath id="_clipPath_Y5cfwkV9VOWZ0HyN2m7gfO4xCFlbEjGN">
<rect width="400" height="400"/>
</clipPath>
</defs>
<g clip-path="url(#_clipPath_Y5cfwkV9VOWZ0HyN2m7gfO4xCFlbEjGN)">
<rect width="400" height="400" style="fill:rgb(0,0,0)"/>
<rect x="50" y="150" width="50" height="50" transform="matrix(1,0,0,1,0,0)" fill="rgb(255,255,255)"/>
<rect x="150" y="150" width="50" height="50" transform="matrix(1,0,0,1,0,0)" fill="rgb(255,255,255)"/>
<rect x="100" y="150" width="50" height="50" transform="matrix(1,0,0,1,0,0)" fill="rgb(255,255,255)"/>
<rect x="250" y="150" width="50" height="50" transform="matrix(1,0,0,1,0,0)" fill="rgb(255,255,255)"/>
<rect x="200" y="150" width="50" height="50" transform="matrix(1,0,0,1,0,0)" fill="rgb(255,255,255)"/>
<rect x="100" y="300" width="50" height="50" transform="matrix(1,0,0,1,0,0)" fill="rgb(255,255,255)"/>
<rect x="50" y="300" width="50" height="50" transform="matrix(1,0,0,1,0,0)" fill="rgb(255,255,255)"/>
<rect x="200" y="300" width="50" height="50" transform="matrix(1,0,0,1,0,0)" fill="rgb(255,255,255)"/>
<rect x="150" y="300" width="50" height="50" transform="matrix(1,0,0,1,0,0)" fill="rgb(255,255,255)"/>
<rect x="50" y="250" width="50" height="50" transform="matrix(1,0,0,1,0,0)" fill="rgb(255,255,255)"/>
<rect x="100" y="250" width="50" height="50" transform="matrix(1,0,0,1,0,0)" fill="rgb(255,255,255)"/>
<rect x="100" y="200" width="50" height="50" transform="matrix(1,0,0,1,0,0)" fill="rgb(255,255,255)"/>
<rect x="50" y="200" width="50" height="50" transform="matrix(1,0,0,1,0,0)" fill="rgb(255,255,255)"/>
<rect x="150" y="250" width="50" height="50" transform="matrix(1,0,0,1,0,0)" fill="rgb(255,255,255)"/>
<rect x="200" y="250" width="50" height="50" transform="matrix(1,0,0,1,0,0)" fill="rgb(255,255,255)"/>
<rect x="200" y="200" width="50" height="50" transform="matrix(1,0,0,1,0,0)" fill="rgb(255,255,255)"/>
<rect x="250" y="200" width="50" height="50" transform="matrix(1,0,0,1,0,0)" fill="rgb(255,255,255)"/>
<rect x="300" y="250" width="50" height="50" transform="matrix(1,0,0,1,0,0)" fill="rgb(255,255,255)"/>
<rect x="250" y="250" width="50" height="50" transform="matrix(1,0,0,1,0,0)" fill="rgb(255,255,255)"/>
<rect x="150" y="200" width="50" height="50" transform="matrix(1,0,0,1,0,0)" fill="rgb(255,255,255)"/>
<rect x="100" y="50" width="50" height="50" transform="matrix(1,0,0,1,0,0)" fill="rgb(255,255,255)"/>
<rect x="250" y="50" width="50" height="50" transform="matrix(1,0,0,1,0,0)" fill="rgb(255,255,255)"/>
<rect x="300" y="100" width="50" height="50" transform="matrix(1,0,0,1,0,0)" fill="rgb(255,255,255)"/>
<rect x="100" y="100" width="50" height="50" transform="matrix(1,0,0,1,0,0)" fill="rgb(255,255,255)"/>
<rect x="200" y="100" width="50" height="50" transform="matrix(1,0,0,1,0,0)" fill="rgb(255,255,255)"/>
<rect x="250" y="100" width="50" height="50" transform="matrix(1,0,0,1,0,0)" fill="rgb(255,255,255)"/>
<rect x="150" y="100" width="50" height="50" transform="matrix(1,0,0,1,0,0)" fill="rgb(255,255,255)"/>
<g>
<g>
<path d=" M 333.126 145.585 C 336.558 141.885 335.051 135.524 330.436 133.467 C 319.687 128.685 324.093 112.789 315.108 113.631 C 304.801 114.594 297.233 107.031 298.201 96.725 C 299.164 86.418 291.601 78.85 281.294 79.818 C 270.988 80.781 281.031 64.759 264.388 62.912 C 264.388 62.912 252.76 58.422 251.654 69.554 L 251.481 112.944 L 184.482 112.944 C 119 123 65 187 65 238.426 L 65 334.141 L 165.89 334.141 C 178.988 334.141 191.598 332.047 203.402 328.177 C 247 309 286.197 267.178 286.197 213.834 L 286.197 147.122 L 329.503 147.522 C 331.034 147.283 332.212 146.566 333.126 145.585 Z " fill="rgb(105,139,158)"/>
<path d=" M 195.165 300.537 L 183.209 300.537 C 183.209 254.384 145.665 216.841 99.513 216.841 L 99.513 204.884 C 152.253 204.884 195.165 247.79 195.165 300.537 Z " fill="rgb(93,121,137)"/>
<path d=" M 214.625 281.077 L 202.668 281.077 C 202.668 234.925 165.124 197.381 118.972 197.381 L 118.972 185.425 C 171.712 185.425 214.625 228.337 214.625 281.077 Z " fill="rgb(93,121,137)"/>
<path d=" M 233.211 262.485 L 221.255 262.485 C 221.255 216.333 183.711 178.789 137.558 178.789 L 137.558 166.832 C 190.299 166.832 233.211 209.744 233.211 262.485 Z " fill="rgb(93,121,137)"/>
<path d=" M 252.67 244.032 L 240.714 244.032 C 240.714 197.879 203.17 160.336 157.018 160.336 L 157.018 148.379 C 209.758 148.379 252.67 191.285 252.67 244.032 Z " fill="rgb(93,121,137)"/>
<path d=" M 155.299 123.134 C 152.609 112.703 138.947 84.001 130 73 C 130 73 96.067 114.653 115.902 146.962 C 126.987 136.374 140.371 128.186 155.299 123.134 Z " fill="rgb(84,106,121)"/>
<path d=" M 278.801 251.033 C 273.125 267.545 263.609 281.999 251.449 293.588 C 266.29 297.517 305.164 299.279 329.503 286.556 C 329.503 286.556 302.592 254.625 278.801 251.033 Z " fill="rgb(84,106,121)"/>
<circle vector-effect="non-scaling-stroke" cx="99.51266198073247" cy="261.58817107509736" r="11.956577855788098" fill="rgb(56,69,79)"/>
</g>
</g>
</g>
</svg>
