<?xml version="1.0" standalone="no"?>
<!-- Generator: Gravit.io -->
<svg xmlns="http://www.w3.org/2000/svg" xmlns:xlink="http://www.w3.org/1999/xlink" style="isolation:isolate" viewBox="0 0 400 400" width="400" height="400">
<defs>
<clipPath id="_clipPath_5lk9Rfn0BHZ541UDE5tiDJvj4sowMCSJ">
<rect width="400" height="400"/>
</clipPath>
</defs>
<g clip-path="url(#_clipPath_5lk9Rfn0BHZ541UDE5tiDJvj4sowMCSJ)">
<rect width="400" height="400" style="fill:rgb(0,0,0)"/>
<rect x="250" y="150" width="50" height="50" transform="matrix(1,0,0,1,0,0)" fill="rgb(255,255,255)"/>
<rect x="200" y="150" width="50" height="50" transform="matrix(1,0,0,1,0,0)" fill="rgb(255,255,255)"/>
<rect x="100" y="250" width="50" height="50" transform="matrix(1,0,0,1,0,0)" fill="rgb(255,255,255)"/>
<rect x="150" y="250" width="50" height="50" transform="matrix(1,0,0,1,0,0)" fill="rgb(255,255,255)"/>
<rect x="200" y="250" width="50" height="50" transform="matrix(1,0,0,1,0,0)" fill="rgb(255,255,255)"/>
<rect x="200" y="200" width="50" height="50" transform="matrix(1,0,0,1,0,0)" fill="rgb(255,255,255)"/>
<rect x="250" y="200" width="50" height="50" transform="matrix(1,0,0,1,0,0)" fill="rgb(255,255,255)"/>
<rect x="150" y="200" width="50" height="50" transform="matrix(1,0,0,1,0,0)" fill="rgb(255,255,255)"/>
<rect x="200" y="100" width="50" height="50" transform="matrix(1,0,0,1,0,0)" fill="rgb(255,255,255)"/>
<rect x="250" y="100" width="50" height="50" transform="matrix(1,0,0,1,0,0)" fill="rgb(255,255,255)"/>
<g>
<g>
<path d=" M 267.513 136.055 C 266.599 136.055 265.681 135.713 264.972 135.03 C 263.511 133.628 263.463 131.3 264.87 129.838 C 268.681 125.873 270.708 121.43 270.036 118.522 C 269.602 116.653 267.921 115.173 265.035 114.12 C 263.129 113.426 262.152 111.314 262.846 109.409 C 263.54 107.503 265.655 106.534 267.557 107.22 C 274.236 109.662 276.483 113.815 277.188 116.866 C 278.444 122.293 275.815 129.042 270.161 134.931 C 269.437 135.676 268.479 136.055 267.513 136.055 Z " fill="rgb(101,156,53)"/>
<path d=" M 226.889 163.185 C 226.386 164.9 225.89 166.721 225.42 168.788 C 212.569 225.396 165.306 255.258 112.011 284.775 C 109.573 286.126 109.239 290.294 111.633 289.934 C 145.971 284.772 235.598 293.477 279.435 190.749 C 279.435 190.749 302.064 143.545 273.149 135.743 C 273.153 135.743 233.175 116.962 226.889 163.185 Z " fill="rgb(209,56,52)"/>
<path d=" M 288.339 171.649 C 291.615 156.833 291.497 139.088 274.244 134.432 C 274.244 134.432 235.194 116.121 225.813 157.619 C 234.956 156.925 247.208 155.085 250.638 150.169 C 250.638 150.169 258.752 158.283 254.574 169.842 C 254.574 169.842 271.787 167.874 270.311 154.105 C 270.311 154.105 280.886 163.204 278.18 177.711 C 278.176 177.711 283.28 176.165 288.339 171.649 Z " fill="rgb(136,192,87)"/>
<path d=" M 163.331 275.882 C 161.778 275.882 160.339 274.891 159.835 273.338 C 159.215 271.41 160.272 269.339 162.204 268.715 C 241.719 243.094 250.491 188.697 250.572 188.153 C 250.862 186.145 252.727 184.713 254.732 185.047 C 256.74 185.337 258.128 187.198 257.838 189.207 C 257.486 191.623 248.284 248.693 164.455 275.71 C 164.08 275.824 163.702 275.882 163.331 275.882 Z " fill="rgb(247,91,87)"/>
</g>
</g>
</g>
</svg>
