<?xml version="1.0" standalone="no"?>
<!-- Generator: Gravit.io -->
<svg xmlns="http://www.w3.org/2000/svg" xmlns:xlink="http://www.w3.org/1999/xlink" style="isolation:isolate" viewBox="0 0 400 400" width="400" height="400">
<defs>
<clipPath id="_clipPath_KtgQJc3rPQaxVdsEzOOpTLECHQyuX6Sx">
<rect width="400" height="400"/>
</clipPath>
</defs>
<g clip-path="url(#_clipPath_KtgQJc3rPQaxVdsEzOOpTLECHQyuX6Sx)">
<rect width="400" height="400" style="fill:rgb(0,0,0)"/>
<rect x="150" y="150" width="50" height="50" transform="matrix(1,0,0,1,0,0)" fill="rgb(255,255,255)"/>
<rect x="100" y="150" width="50" height="50" transform="matrix(1,0,0,1,0,0)" fill="rgb(255,255,255)"/>
<rect x="250" y="150" width="50" height="50" transform="matrix(1,0,0,1,0,0)" fill="rgb(255,255,255)"/>
<rect x="200" y="150" width="50" height="50" transform="matrix(1,0,0,1,0,0)" fill="rgb(255,255,255)"/>
<rect x="100" y="250" width="50" height="50" transform="matrix(1,0,0,1,0,0)" fill="rgb(255,255,255)"/>
<rect x="100" y="200" width="50" height="50" transform="matrix(1,0,0,1,0,0)" fill="rgb(255,255,255)"/>
<rect x="150" y="250" width="50" height="50" transform="matrix(1,0,0,1,0,0)" fill="rgb(255,255,255)"/>
<rect x="200" y="250" width="50" height="50" transform="matrix(1,0,0,1,0,0)" fill="rgb(255,255,255)"/>
<rect x="200" y="200" width="50" height="50" transform="matrix(1,0,0,1,0,0)" fill="rgb(255,255,255)"/>
<rect x="250" y="200" width="50" height="50" transform="matrix(1,0,0,1,0,0)" fill="rgb(255,255,255)"/>
<rect x="250" y="250" width="50" height="50" transform="matrix(1,0,0,1,0,0)" fill="rgb(255,255,255)"/>
<rect x="150" y="200" width="50" height="50" transform="matrix(1,0,0,1,0,0)" fill="rgb(255,255,255)"/>
<rect x="150" y="50" width="50" height="50" transform="matrix(1,0,0,1,0,0)" fill="rgb(255,255,255)"/>
<rect x="200" y="50" width="50" height="50" transform="matrix(1,0,0,1,0,0)" fill="rgb(255,255,255)"/>
<rect x="100" y="100" width="50" height="50" transform="matrix(1,0,0,1,0,0)" fill="rgb(255,255,255)"/>
<rect x="200" y="100" width="50" height="50" transform="matrix(1,0,0,1,0,0)" fill="rgb(255,255,255)"/>
<rect x="250" y="100" width="50" height="50" transform="matrix(1,0,0,1,0,0)" fill="rgb(255,255,255)"/>
<rect x="150" y="100" width="50" height="50" transform="matrix(1,0,0,1,0,0)" fill="rgb(255,255,255)"/>


<g>

<g>
  <path d=" M 216.226 60.028 C 208.6 60.028 208.6 56.564 200.974 56.564 C 193.36 56.564 193.36 60.028 185.746 60.028 C 180.562 60.028 178.908 58.422 175.977 57.397 C 173.33 56.471 170.536 58.382 170.797 60.95 C 171.572 68.577 174.522 84.445 185.761 94.662 L 216.239 94.662 C 227.48 84.443 230.429 68.572 231.203 60.946 C 231.463 58.38 228.673 56.471 226.026 57.392 C 223.081 58.417 221.427 60.028 216.226 60.028 Z " fill="rgb(174,139,112)"/>
  <path d=" M 288.625 274.581 L 288.625 199.627 C 288.625 152.114 251.679 111.646 204.195 109.958 C 154.345 108.186 113.375 148.072 113.375 197.527 L 113.375 274.58 C 113.375 276.58 112.837 278.625 111.501 280.113 C 110.176 281.589 109.418 283.578 109.589 285.76 C 109.906 289.807 113.6 292.771 117.659 292.771 L 284.342 292.771 C 288.402 292.771 292.094 289.807 292.411 285.76 C 292.582 283.578 291.825 281.589 290.5 280.113 C 289.163 278.626 288.625 276.581 288.625 274.581 Z " fill="rgb(174,139,112)"/>
</g>
<path d=" M 164.896 148.375 C 173.528 130.515 192.422 121.109 212.258 121.33 C 218.044 121.395 223.036 118.197 225.671 113.499 C 218.84 111.446 211.647 110.224 204.195 109.958 C 154.345 108.186 113.375 148.072 113.375 197.527 L 113.375 274.581 C 113.375 276.582 112.837 278.627 111.5 280.116 C 110.175 281.591 109.419 283.579 109.59 285.76 C 109.907 289.808 113.6 292.772 117.66 292.772 L 157.197 292.772 C 154.044 292.772 151.487 290.218 151.482 287.065 C 151.481 286.384 151.6 285.731 151.82 285.127 C 153.881 279.445 154.172 273.268 154.172 267.224 L 154.172 197.527 C 154.171 179.287 158.13 162.376 164.896 148.375 Z " fill="rgb(155,115,90)"/>
<path d=" M 212.429 109.902 L 189.57 109.902 C 185.362 109.902 181.951 106.49 181.951 102.282 L 181.951 102.282 C 181.951 98.074 185.362 94.663 189.57 94.663 L 212.429 94.663 C 216.637 94.663 220.049 98.074 220.049 102.282 L 220.049 102.282 C 220.049 106.49 216.638 109.902 212.429 109.902 Z " fill="rgb(255,220,100)"/>
<g>
  <path d=" M 197.19 102.282 C 197.19 98.074 200.602 94.663 204.81 94.663 L 189.57 94.663 C 185.362 94.663 181.951 98.074 181.951 102.282 C 181.951 106.49 185.362 109.902 189.57 109.902 L 204.81 109.902 C 200.602 109.902 197.19 106.49 197.19 102.282 Z " fill="rgb(255,200,80)"/>
  <path d=" M 227.669 182.288 C 227.669 197.016 215.729 208.956 201 208.956 C 201 194.228 212.94 182.288 227.669 182.288 Z " fill="rgb(255,200,80)"/>
  <path d=" M 174.331 182.288 C 174.331 197.016 186.271 208.956 201 208.956 C 201 194.228 189.06 182.288 174.331 182.288 Z " fill="rgb(255,200,80)"/>
  <path d=" M 227.669 216.576 C 227.669 231.304 215.729 243.244 201 243.244 C 201 228.516 212.94 216.576 227.669 216.576 Z " fill="rgb(255,200,80)"/>
  <path d=" M 174.331 216.576 C 174.331 231.304 186.271 243.244 201 243.244 C 201 228.516 189.06 216.576 174.331 216.576 Z " fill="rgb(255,200,80)"/>
  <path d=" M 201 140.15 C 190.801 150.711 190.801 167.834 201 178.395 C 211.199 167.834 211.199 150.711 201 140.15 Z " fill="rgb(255,200,80)"/>
</g>
<path d=" M 293.152 277.732 C 292.532 277.042 292.19 275.922 292.19 274.581 L 292.19 199.627 C 292.19 175.604 283.182 152.716 266.824 135.177 C 254.378 121.834 238.712 112.745 221.574 108.709 C 222.857 106.89 223.614 104.673 223.614 102.283 C 223.614 99.476 222.572 96.909 220.858 94.944 C 234.874 78.992 235.043 57.514 235.043 56.565 C 235.043 54.597 233.447 53.001 231.478 53.001 C 226.825 53.001 224.293 54.266 222.26 55.282 C 220.483 56.17 219.198 56.811 216.226 56.811 C 213.254 56.811 211.97 56.169 210.193 55.282 C 208.159 54.265 205.628 53 200.973 53 C 196.324 53 193.796 54.265 191.765 55.282 C 189.992 56.169 188.711 56.81 185.746 56.81 C 182.782 56.81 181.501 56.169 179.729 55.282 C 177.698 54.265 175.17 53 170.522 53 C 168.553 53 166.957 54.596 166.957 56.564 C 166.957 57.513 167.127 78.991 181.142 94.943 C 179.428 96.908 178.386 99.475 178.386 102.282 C 178.386 104.651 179.129 106.848 180.39 108.658 C 164.457 112.317 149.776 120.231 137.681 131.904 C 119.708 149.25 109.81 172.555 109.81 197.527 L 109.81 274.581 C 109.81 275.922 109.468 277.042 108.848 277.733 C 106.794 280.021 105.795 282.971 106.035 286.039 C 106.488 291.813 111.593 296.336 117.658 296.336 L 284.342 296.336 C 290.407 296.336 295.513 291.813 295.965 286.039 C 296.205 282.971 295.206 280.021 293.152 277.732 Z  M 189.571 98.227 L 212.43 98.227 C 214.666 98.227 216.485 100.046 216.485 102.282 C 216.485 104.517 214.665 106.337 212.43 106.337 L 189.571 106.337 C 187.335 106.337 185.516 104.517 185.516 102.282 C 185.516 100.046 187.335 98.227 189.571 98.227 Z  M 176.538 61.657 C 178.569 62.674 181.097 63.939 185.746 63.939 C 190.395 63.939 192.923 62.674 194.955 61.657 C 196.727 60.77 198.009 60.129 200.974 60.129 C 203.946 60.129 205.23 60.771 207.007 61.658 C 209.041 62.674 211.572 63.939 216.226 63.939 C 220.88 63.939 223.412 62.674 225.445 61.658 C 226.204 61.279 226.872 60.945 227.621 60.686 C 226.866 67.428 224.166 81.08 214.533 91.299 C 213.851 91.169 213.149 91.098 212.429 91.098 L 210.107 91.098 C 210.947 87.795 211.637 84.043 212.157 79.864 C 212.4 77.911 211.014 76.13 209.061 75.886 C 207.105 75.643 205.326 77.029 205.083 78.982 C 204.499 83.662 203.704 87.716 202.72 91.098 L 199.281 91.098 C 198.296 87.716 197.501 83.662 196.918 78.982 C 196.675 77.029 194.893 75.643 192.94 75.886 C 190.987 76.129 189.6 77.91 189.844 79.864 C 190.364 84.043 191.053 87.795 191.894 91.098 L 189.571 91.098 C 188.852 91.098 188.149 91.169 187.468 91.299 C 177.879 81.122 175.158 67.448 174.389 60.694 C 175.128 60.951 175.789 61.282 176.538 61.657 Z  M 288.858 285.482 C 288.697 287.536 286.671 289.207 284.342 289.207 L 117.658 289.207 C 115.329 289.207 113.303 287.536 113.142 285.482 C 113.056 284.378 113.415 283.317 114.152 282.495 C 115.949 280.494 116.939 277.683 116.939 274.581 L 116.939 197.527 C 116.939 174.507 126.063 153.024 142.632 137.034 C 157.595 122.593 176.851 114.388 197.436 113.543 L 197.436 117.522 C 197.436 119.49 199.032 121.086 201 121.086 C 202.969 121.086 204.565 119.49 204.565 117.522 L 204.565 113.545 C 226.259 114.447 246.501 123.841 261.61 140.04 C 276.732 156.254 285.061 177.416 285.061 199.627 L 285.061 274.581 C 285.061 277.684 286.05 280.494 287.847 282.495 C 288.585 283.317 288.944 284.378 288.858 285.482 Z " fill="rgb(0,0,0)"/>
<path d=" M 246.718 273.969 L 132.423 273.969 C 130.455 273.969 128.859 275.564 128.859 277.533 C 128.859 279.502 130.455 281.097 132.423 281.097 L 246.717 281.097 C 248.686 281.097 250.282 279.502 250.282 277.533 C 250.282 275.564 248.686 273.969 246.718 273.969 Z " fill="rgb(0,0,0)"/>
<path d=" M 269.577 273.969 L 261.958 273.969 C 259.99 273.969 258.394 275.564 258.394 277.533 C 258.394 279.502 259.99 281.097 261.958 281.097 L 269.577 281.097 C 271.545 281.097 273.141 279.502 273.141 277.533 C 273.141 275.564 271.545 273.969 269.577 273.969 Z " fill="rgb(0,0,0)"/>
<path d=" M 197.436 212.304 L 197.436 212.766 C 197.436 214.735 199.032 216.331 201 216.331 C 202.969 216.331 204.565 214.735 204.565 212.766 L 204.565 212.304 C 219.56 210.533 231.233 197.752 231.233 182.288 L 231.233 174.668 C 231.233 172.7 229.637 171.104 227.669 171.104 C 225.7 171.104 224.104 172.7 224.104 174.668 L 224.104 178.94 C 214.092 180.122 205.564 186.21 201 194.732 C 196.436 186.21 187.908 180.122 177.896 178.94 L 177.896 174.668 C 177.896 172.7 176.3 171.104 174.331 171.104 C 172.363 171.104 170.767 172.7 170.767 174.668 L 170.767 182.288 C 170.767 197.752 182.44 210.533 197.436 212.304 Z  M 223.776 186.18 C 222.136 195.807 214.519 203.423 204.892 205.064 C 206.533 195.437 214.15 187.821 223.776 186.18 Z  M 197.108 205.064 C 187.481 203.423 179.864 195.807 178.224 186.18 C 187.85 187.821 195.467 195.437 197.108 205.064 Z " fill="rgb(0,0,0)"/>
<path d=" M 197.436 246.592 L 197.436 258.484 C 197.436 260.452 199.032 262.048 201 262.048 C 202.969 262.048 204.565 260.452 204.565 258.484 L 204.565 246.592 C 219.56 244.821 231.233 232.04 231.233 216.576 L 231.233 208.956 C 231.233 206.988 229.637 205.392 227.669 205.392 C 225.7 205.392 224.104 206.988 224.104 208.956 L 224.104 213.228 C 214.092 214.41 205.564 220.498 201 229.021 C 196.436 220.499 187.908 214.41 177.896 213.228 L 177.896 208.956 C 177.896 206.988 176.3 205.392 174.331 205.392 C 172.363 205.392 170.767 206.988 170.767 208.956 L 170.767 216.576 C 170.767 232.04 182.44 244.821 197.436 246.592 Z  M 223.776 220.468 C 222.136 230.095 214.519 237.712 204.892 239.352 C 206.533 229.726 214.15 222.109 223.776 220.468 Z  M 197.108 239.352 C 187.481 237.712 179.864 230.095 178.224 220.469 C 187.85 222.109 195.467 229.726 197.108 239.352 Z " fill="rgb(0,0,0)"/>
<path d=" M 197.436 182.288 C 197.436 184.256 199.032 185.852 201 185.852 C 202.969 185.852 204.565 184.256 204.565 182.288 L 204.565 179.864 C 215.014 167.931 214.682 149.416 203.564 137.904 C 202.893 137.209 201.967 136.816 201 136.816 C 200.033 136.816 199.108 137.209 198.436 137.904 C 187.319 149.416 186.986 167.931 197.436 179.864 L 197.436 182.288 L 197.436 182.288 Z  M 201 146.023 C 206.406 154.045 206.406 164.813 201 172.835 C 195.594 164.813 195.594 154.045 201 146.023 Z " fill="rgb(0,0,0)"/>
</g>
</g>


</svg>
