<?xml version="1.0" standalone="no"?>
<!-- Generator: Gravit.io -->
<svg xmlns="http://www.w3.org/2000/svg" xmlns:xlink="http://www.w3.org/1999/xlink" style="isolation:isolate" viewBox="0 0 400 400" width="400" height="400">
<defs>
<clipPath id="_clipPath_8E4clzRZEbK1mWdLMGA7bkwcVTpPYNi5">
<rect width="400" height="400"/>
</clipPath>
</defs>
<g clip-path="url(#_clipPath_8E4clzRZEbK1mWdLMGA7bkwcVTpPYNi5)">
<rect width="400" height="400" style="fill:rgb(0,0,0)"/>
<rect x="200" y="300" width="50" height="50" transform="matrix(1,0,0,1,0,0)" fill="rgb(255,255,255)"/>
<rect x="150" y="300" width="50" height="50" transform="matrix(1,0,0,1,0,0)" fill="rgb(255,255,255)"/>
<rect x="150" y="250" width="50" height="50" transform="matrix(1,0,0,1,0,0)" fill="rgb(255,255,255)"/>
<rect x="200" y="250" width="50" height="50" transform="matrix(1,0,0,1,0,0)" fill="rgb(255,255,255)"/>
<rect x="200" y="200" width="50" height="50" transform="matrix(1,0,0,1,0,0)" fill="rgb(255,255,255)"/>
<rect x="250" y="200" width="50" height="50" transform="matrix(1,0,0,1,0,0)" fill="rgb(255,255,255)"/>
<rect x="250" y="300" width="50" height="50" transform="matrix(1,0,0,1,0,0)" fill="rgb(255,255,255)"/>
<rect x="250" y="250" width="50" height="50" transform="matrix(1,0,0,1,0,0)" fill="rgb(255,255,255)"/>
<g>
<g>
<path d=" M 275.18 268.409 L 269.679 263.149 L 283.436 244.881 L 293.66 253.25 L 275.18 268.409 Z " fill="rgb(101,156,53)"/>
<path d=" M 286.157 280.268 C 289.75 281.113 293.396 281.124 296.907 279.994 C 293.318 265.662 285.371 265.89 285.371 265.89 C 287.493 264.19 287.279 261.847 286.012 259.525 L 275.184 268.409 L 275.184 268.409 L 275.184 268.409 L 275.184 268.409 L 269.679 263.149 L 269.679 263.149 L 269.679 263.149 L 269.682 263.144 L 278.108 251.955 C 276.804 251.238 275.723 250.893 275.259 251.162 C 275.259 251.162 278.325 243.825 266.241 235.33 C 263.862 238.284 262.508 241.789 262.044 245.564 C 254.445 237.28 245.496 231.015 234.814 232.101 C 243.141 258.013 257.903 257.293 257.903 257.293 C 244.708 268.27 248.041 282.041 248.599 284.086 C 250.307 285.341 261.961 293.399 276.946 285.029 C 276.946 285.029 268.196 294.505 289.388 311.587 C 293.956 301.48 291.186 290.357 286.157 280.268 Z " fill="rgb(136,192,87)"/>
<g>
<path d=" M 285.837 308.75 C 285.853 308.693 285.878 308.639 285.894 308.582 C 269.244 293.401 276.944 285.027 276.944 285.027 C 261.96 293.397 250.306 285.339 248.598 284.084 C 248.04 282.039 244.706 268.268 257.901 257.291 C 257.901 257.291 245.74 257.777 237.266 238.447 C 237.205 238.434 237.141 238.422 237.078 238.407 C 237.104 238.463 237.127 238.527 237.152 238.581 C 228.564 237.011 218.804 239.775 206.806 248.013 C 179.988 266.429 162.671 317.978 173.66 333.984 C 184.65 349.989 238.978 352.348 265.8 333.932 C 278.022 325.541 284.107 317.276 285.59 308.52 C 285.667 308.597 285.758 308.676 285.837 308.75 Z " fill="rgb(226,47,55)"/>
</g>
<path d=" M 233.556 258.374 C 234.198 257.558 233.404 256.401 232.413 256.71 C 232.413 256.71 219.162 261.141 218.093 261.875 C 217.024 262.609 216.304 263.716 216.067 264.993 C 215.828 266.268 216.102 267.56 216.836 268.629 C 217.57 269.698 218.677 270.418 219.953 270.653 C 221.23 270.891 222.52 270.618 223.591 269.882 C 224.662 269.147 233.556 258.374 233.556 258.374 Z " fill="rgb(153,69,48)"/>
<path d=" M 242.175 288.86 C 242.818 288.043 242.024 286.886 241.032 287.195 C 241.032 287.195 227.782 291.626 226.713 292.36 C 225.644 293.094 224.924 294.201 224.686 295.478 C 224.448 296.753 224.722 298.045 225.456 299.114 C 226.19 300.183 227.297 300.903 228.573 301.138 C 229.85 301.376 231.139 301.103 232.21 300.367 C 233.281 299.632 242.175 288.86 242.175 288.86 Z " fill="rgb(153,69,48)"/>
<path d=" M 266.612 306.466 C 267.254 305.649 266.46 304.493 265.469 304.801 C 265.469 304.801 252.218 309.233 251.149 309.967 C 250.08 310.701 249.36 311.808 249.123 313.085 C 248.884 314.36 249.158 315.652 249.892 316.721 C 250.626 317.789 251.733 318.51 253.009 318.745 C 254.286 318.982 255.576 318.709 256.647 317.974 C 257.718 317.239 266.612 306.466 266.612 306.466 Z " fill="rgb(153,69,48)"/>
<path d=" M 213.27 287.162 C 213.913 286.345 213.119 285.188 212.127 285.497 C 212.127 285.497 198.876 289.928 197.808 290.662 C 196.739 291.396 196.018 292.503 195.781 293.78 C 195.542 295.055 195.817 296.347 196.551 297.416 C 197.285 298.485 198.392 299.205 199.667 299.44 C 200.944 299.678 202.234 299.405 203.305 298.669 C 204.376 297.934 213.27 287.162 213.27 287.162 Z " fill="rgb(153,69,48)"/>
<path d=" M 204.55 314.693 C 205.193 313.876 204.399 312.719 203.407 313.028 C 203.407 313.028 190.156 317.46 189.087 318.193 C 188.019 318.927 187.298 320.034 187.061 321.311 C 186.822 322.586 187.097 323.878 187.831 324.947 C 188.564 326.016 189.672 326.736 190.947 326.971 C 192.224 327.209 193.514 326.936 194.585 326.2 C 195.656 325.465 204.55 314.693 204.55 314.693 Z " fill="rgb(153,69,48)"/>
<path d=" M 233.403 316.427 C 234.046 315.61 233.252 314.453 232.26 314.762 C 232.26 314.762 219.009 319.193 217.941 319.927 C 216.872 320.661 216.151 321.768 215.914 323.045 C 215.675 324.32 215.95 325.612 216.684 326.681 C 217.418 327.75 218.525 328.47 219.8 328.705 C 221.077 328.943 222.367 328.67 223.438 327.934 C 224.509 327.199 233.403 316.427 233.403 316.427 Z " fill="rgb(153,69,48)"/>
</g>
</g>
</g>
</svg>
