<?xml version="1.0" standalone="no"?><!-- Generator: Gravit.io --><svg xmlns="http://www.w3.org/2000/svg" xmlns:xlink="http://www.w3.org/1999/xlink" style="isolation:isolate" viewBox="0 0 400 400" width="400" height="400"><defs><clipPath id="_clipPath_jlg2971ygXudcSAMIxWxdT84ItloHwUo"><rect width="400" height="400"/></clipPath></defs><g clip-path="url(#_clipPath_jlg2971ygXudcSAMIxWxdT84ItloHwUo)"><rect width="400" height="400" style="fill:rgb(0,0,0)"/>
<rect x="150" y="150" width="50" height="50" transform="matrix(1,0,0,1,0,0)" fill="rgb(255,255,255)"/><rect x="100" y="150" width="50" height="50" transform="matrix(1,0,0,1,0,0)" fill="rgb(255,255,255)"/><rect x="200" y="150" width="50" height="50" transform="matrix(1,0,0,1,0,0)" fill="rgb(255,255,255)"/><rect x="150" y="300" width="50" height="50" transform="matrix(1,0,0,1,0,0)" fill="rgb(255,255,255)"/><rect x="100" y="200" width="50" height="50" transform="matrix(1,0,0,1,0,0)" fill="rgb(255,255,255)"/><rect x="150" y="250" width="50" height="50" transform="matrix(1,0,0,1,0,0)" fill="rgb(255,255,255)"/><rect x="200" y="200" width="50" height="50" transform="matrix(1,0,0,1,0,0)" fill="rgb(255,255,255)"/><rect x="150" y="200" width="50" height="50" transform="matrix(1,0,0,1,0,0)" fill="rgb(255,255,255)"/><rect x="150" y="50" width="50" height="50" transform="matrix(1,0,0,1,0,0)" fill="rgb(255,255,255)"/><rect x="100" y="100" width="50" height="50" transform="matrix(1,0,0,1,0,0)" fill="rgb(255,255,255)"/><rect x="200" y="100" width="50" height="50" transform="matrix(1,0,0,1,0,0)" fill="rgb(255,255,255)"/><rect x="150" y="100" width="50" height="50" transform="matrix(1,0,0,1,0,0)" fill="rgb(255,255,255)"/><g><g><path d=" M 177.356 162.684 C 177.356 162.684 189.214 116.302 232.094 122.206 C 232.094 122.206 242.433 122.956 244.056 131.95 C 245.649 140.796 236.445 147.782 226.882 146.279 C 218.256 144.925 203.161 147.35 177.356 162.684 Z " fill="rgb(136,192,87)"/><path d=" M 177.356 162.684 C 177.356 162.684 166.394 116.302 126.755 122.206 C 126.755 122.206 112.485 122.965 108.102 132.158 C 104.022 140.706 112.66 149.674 121.798 147.194 C 131.814 144.479 149.651 144.875 177.356 162.684 Z " fill="rgb(136,192,87)"/><path d=" M 232.984 124.317 C 232.984 124.317 233.345 124.362 233.833 124.435 C 233.897 123.286 233.899 122.114 233.748 120.896 C 232.365 109.679 223.551 108.745 223.551 108.745 C 186.998 101.384 176.888 159.216 176.888 159.216 C 178.637 157.694 180.312 156.311 181.947 154.987 C 188.117 141.73 202.92 120.179 232.984 124.317 Z " fill="rgb(136,192,87)"/><path d=" M 126.758 122.203 C 157.333 117.647 170.839 144.195 175.418 156.575 C 175.617 156.759 175.803 156.917 176.001 157.102 C 176.001 157.102 166.656 99.27 132.869 106.631 C 132.869 106.631 120.703 107.58 116.968 119.039 C 116.327 121.007 116.06 122.991 116.091 124.9 C 121.293 122.501 126.758 122.203 126.758 122.203 Z " fill="rgb(164,232,105)"/><path d=" M 175.225 86.118 C 161.045 89.148 158.541 108.488 158.541 108.488 C 158.9 112.471 159.591 116.451 160.474 120.368 C 169.937 132.842 174.647 151.845 176.426 160.73 C 176.957 161.681 177.429 162.507 177.773 163.097 C 179.125 156.214 183.636 136.74 193.487 123.015 C 194.473 118.15 195.131 113.23 195.247 108.49 C 195.87 83.089 175.225 86.118 175.225 86.118 Z " fill="rgb(101,156,53)"/><path d=" M 177.356 162.684 C 177.356 162.684 189.214 116.302 232.094 122.206 C 232.094 122.206 242.433 122.956 244.056 131.95 C 245.649 140.796 236.445 147.782 226.882 146.279 C 218.256 144.925 203.161 147.35 177.356 162.684 Z " fill="rgb(164,232,105)"/><g><path d=" M 176.374 158.442 C 177.002 160.395 177.282 161.577 177.282 161.577 C 177.282 161.577 177.735 159.822 178.766 157.059 C 177.981 157.505 177.193 157.958 176.374 158.442 Z " fill="rgb(242,104,28)"/><path d=" M 207.068 158.779 C 205.296 155.021 202.493 152.34 199.289 150.377 C 192.994 152.949 185.72 156.561 177.282 161.577 C 168.156 155.712 160.125 151.762 153.068 149.164 C 148.924 151.17 145.182 154.152 143.002 158.777 C 136.162 173.29 156.762 287.785 171.535 320.117 C 172.925 323.158 176.4 323.155 177.787 320.117 C 192.56 287.785 213.905 173.29 207.068 158.779 Z " fill="rgb(237,143,32)"/></g><g><path d=" M 171.693 281.83 C 169.343 282.661 166.87 283.279 164.343 283.668 C 162.517 283.947 161.274 285.652 161.554 287.472 C 161.835 289.291 163.539 290.541 165.358 290.26 C 168.295 289.81 171.176 289.09 173.915 288.12 C 174.399 287.948 174.821 287.677 175.164 287.335 C 176.044 286.455 176.393 285.114 175.952 283.862 C 175.336 282.127 173.427 281.214 171.693 281.83 Z " fill="rgb(221,112,23)"/><path d=" M 199.751 163.958 C 193.083 166.945 185.295 168.118 176.608 167.438 C 174.77 167.294 173.165 168.667 173.021 170.505 C 172.877 172.343 174.25 173.948 176.088 174.092 C 185.901 174.859 194.782 173.5 202.483 170.05 C 202.863 169.878 203.198 169.647 203.479 169.366 C 204.43 168.415 204.744 166.94 204.163 165.638 C 203.408 163.958 201.433 163.205 199.751 163.958 Z " fill="rgb(221,112,23)"/><g><path d=" M 142.382 184.162 C 143.538 183.482 145.046 183.518 146.162 184.412 C 150.434 187.84 157.414 190.841 163.378 189.808 C 165.193 189.494 166.92 190.712 167.234 192.531 C 167.427 193.64 167.042 194.718 166.302 195.459 C 165.832 195.928 165.219 196.263 164.511 196.386 C 156.46 197.778 148.129 194.142 142.967 190.339" fill="rgb(221,112,23)"/><path d=" M 164.511 196.386 C 165.216 196.266 165.83 195.931 166.302 195.459 C 167.042 194.718 167.427 193.64 167.234 192.531 C 166.917 190.714 165.195 189.496 163.378 189.808 C 157.414 190.837 150.432 187.838 146.162 184.412 C 145.048 183.52 143.538 183.482 142.382 184.162 C 142.552 186.148 142.74 188.196 142.965 190.336 C 148.129 194.142 156.46 197.778 164.511 196.386 Z " fill="rgb(221,112,23)"/></g><g><path d=" M 204.331 210.125 C 199.15 213.862 190.951 217.361 183.028 215.993 C 181.213 215.679 179.996 213.952 180.307 212.135 C 180.619 210.323 182.348 209.103 184.165 209.415 C 190.125 210.443 197.109 207.447 201.382 204.019 C 202.528 203.098 204.074 203.096 205.246 203.844" fill="rgb(221,112,23)"/><path d=" M 201.384 204.016 C 197.109 207.447 190.127 210.446 184.167 209.412 C 182.353 209.099 180.619 210.318 180.31 212.133 C 179.993 213.949 181.211 215.677 183.03 215.99 C 190.953 217.359 199.152 213.86 204.333 210.123 C 204.654 207.994 204.963 205.901 205.251 203.844 C 204.076 203.094 202.528 203.098 201.384 204.016 Z " fill="rgb(221,112,23)"/></g><g><path d=" M 148.271 227.641 C 149.434 226.922 150.97 226.943 152.103 227.849 C 154.785 230.003 159.143 231.893 162.824 231.261 C 164.638 230.947 166.365 232.164 166.679 233.983 C 166.87 235.095 166.488 236.171 165.747 236.911 C 165.278 237.381 164.664 237.716 163.956 237.839 C 158.612 238.761 153.103 236.612 149.413 234.144" fill="rgb(221,112,23)"/><path d=" M 163.959 237.836 C 164.664 237.716 165.278 237.381 165.749 236.909 C 166.49 236.168 166.873 235.092 166.681 233.981 C 166.368 232.167 164.643 230.947 162.826 231.258 C 159.143 231.893 154.79 230.003 152.105 227.847 C 150.972 226.936 149.436 226.915 148.273 227.639 C 148.641 229.795 149.024 231.961 149.415 234.141 C 153.105 236.609 158.615 238.759 163.959 237.836 Z " fill="rgb(221,112,23)"/></g><g><path d=" M 195.235 259.184 C 191.616 261.969 185.486 264.743 179.545 263.714 C 177.728 263.398 176.511 261.676 176.822 259.859 C 177.134 258.038 178.866 256.825 180.678 257.136 C 184.361 257.771 188.714 255.881 191.396 253.727 C 192.833 252.573 194.933 252.804 196.087 254.241 C 196.153 254.322 196.174 254.423 196.231 254.508" fill="rgb(221,112,23)"/><path d=" M 191.399 253.729 C 188.716 255.884 184.358 257.773 180.68 257.139 C 178.866 256.825 177.138 258.038 176.825 259.862 C 176.511 261.676 177.728 263.403 179.547 263.717 C 185.491 264.743 191.618 261.971 195.238 259.187 C 195.575 257.637 195.905 256.075 196.236 254.513 C 196.179 254.428 196.158 254.326 196.092 254.246 C 194.94 252.807 192.836 252.576 191.399 253.729 Z " fill="rgb(221,112,23)"/>
</g></g></g></g></g></svg>