<?xml version="1.0" standalone="no"?>
<!-- Generator: Gravit.io -->
<svg xmlns="http://www.w3.org/2000/svg" xmlns:xlink="http://www.w3.org/1999/xlink" style="isolation:isolate" viewBox="0 0 400 400" width="400" height="400">
<defs>
<clipPath id="_clipPath_uC6i81G78nDZVlPtbkEs7pLmJ7Uw4Whn">
<rect width="400" height="400"/>
</clipPath>
</defs>
<g clip-path="url(#_clipPath_uC6i81G78nDZVlPtbkEs7pLmJ7Uw4Whn)">
<rect width="400" height="400" style="fill:rgb(0,0,0)"/>
<rect x="50" y="150" width="50" height="50" transform="matrix(1,0,0,1,0,0)" fill="rgb(255,255,255)"/>
<rect x="150" y="150" width="50" height="50" transform="matrix(1,0,0,1,0,0)" fill="rgb(255,255,255)"/>
<rect x="100" y="150" width="50" height="50" transform="matrix(1,0,0,1,0,0)" fill="rgb(255,255,255)"/>
<rect x="250" y="150" width="50" height="50" transform="matrix(1,0,0,1,0,0)" fill="rgb(255,255,255)"/>
<rect x="200" y="150" width="50" height="50" transform="matrix(1,0,0,1,0,0)" fill="rgb(255,255,255)"/>
<rect x="300" y="200" width="50" height="50" transform="matrix(1,0,0,1,0,0)" fill="rgb(255,255,255)"/>
<rect x="300" y="150" width="50" height="50" transform="matrix(1,0,0,1,0,0)" fill="rgb(255,255,255)"/>
<rect x="200" y="300" width="50" height="50" transform="matrix(1,0,0,1,0,0)" fill="rgb(255,255,255)"/>
<rect x="150" y="300" width="50" height="50" transform="matrix(1,0,0,1,0,0)" fill="rgb(255,255,255)"/>
<rect x="100" y="250" width="50" height="50" transform="matrix(1,0,0,1,0,0)" fill="rgb(255,255,255)"/>
<rect x="100" y="200" width="50" height="50" transform="matrix(1,0,0,1,0,0)" fill="rgb(255,255,255)"/>
<rect x="50" y="200" width="50" height="50" transform="matrix(1,0,0,1,0,0)" fill="rgb(255,255,255)"/>
<rect x="150" y="250" width="50" height="50" transform="matrix(1,0,0,1,0,0)" fill="rgb(255,255,255)"/>
<rect x="200" y="250" width="50" height="50" transform="matrix(1,0,0,1,0,0)" fill="rgb(255,255,255)"/>
<rect x="200" y="200" width="50" height="50" transform="matrix(1,0,0,1,0,0)" fill="rgb(255,255,255)"/>
<rect x="250" y="200" width="50" height="50" transform="matrix(1,0,0,1,0,0)" fill="rgb(255,255,255)"/>
<rect x="150" y="200" width="50" height="50" transform="matrix(1,0,0,1,0,0)" fill="rgb(255,255,255)"/>
<rect x="150" y="50" width="50" height="50" transform="matrix(1,0,0,1,0,0)" fill="rgb(255,255,255)"/>
<rect x="100" y="50" width="50" height="50" transform="matrix(1,0,0,1,0,0)" fill="rgb(255,255,255)"/>
<rect x="250" y="50" width="50" height="50" transform="matrix(1,0,0,1,0,0)" fill="rgb(255,255,255)"/>
<rect x="200" y="50" width="50" height="50" transform="matrix(1,0,0,1,0,0)" fill="rgb(255,255,255)"/>
<rect x="300" y="100" width="50" height="50" transform="matrix(1,0,0,1,0,0)" fill="rgb(255,255,255)"/>
<rect x="100" y="100" width="50" height="50" transform="matrix(1,0,0,1,0,0)" fill="rgb(255,255,255)"/>
<rect x="50" y="100" width="50" height="50" transform="matrix(1,0,0,1,0,0)" fill="rgb(255,255,255)"/>
<rect x="200" y="100" width="50" height="50" transform="matrix(1,0,0,1,0,0)" fill="rgb(255,255,255)"/>
<rect x="250" y="100" width="50" height="50" transform="matrix(1,0,0,1,0,0)" fill="rgb(255,255,255)"/>
<rect x="150" y="100" width="50" height="50" transform="matrix(1,0,0,1,0,0)" fill="rgb(255,255,255)"/>
<g>
<path d=" M 215.699 83.09 L 204.859 313.008 C 179.664 313.008 150.22 301.401 134.254 282.064 C 123.853 269.467 115.65 255.063 109.498 239.975 C 98.219 235.874 89.088 226.645 86.011 215.072 C 83.961 207.456 84.546 199.252 87.476 191.929 C 81.325 187.093 77.429 180.356 75.232 172.592 C 72.741 163.217 74.061 153.403 78.892 144.907 C 82.702 138.316 87.623 133.334 94.216 130.112 C 92.896 112.826 104.516 96.566 121.802 91.88 C 127.076 90.562 132.495 90.268 137.917 91.441 C 142.895 78.256 153.882 68.148 167.506 64.486 C 181.274 60.825 195.63 64.047 206.324 72.837 C 209.986 75.62 213.063 78.989 215.699 83.09 L 215.699 83.09 Z " fill="rgb(86,194,37)"/>
<path d=" M 215.699 83.09 L 206.324 281.626 L 206.324 72.837 C 209.986 75.62 213.063 78.989 215.699 83.09 L 215.699 83.09 Z " fill="rgb(86,194,37)"/>
<path d=" M 324 150.913 C 324 132.018 311.988 115.611 294.558 109.457 C 294.849 106.236 294.703 103.159 293.825 98.911 C 291.187 86.459 283.082 74.888 271.803 68.736 C 250.71 57.016 226.978 64.341 214.675 81.333 C 212.037 80.013 209.254 78.989 206.324 78.403 C 203.981 77.964 201.49 77.671 199.001 77.671 C 181.129 77.671 166.188 90.562 162.964 107.554 C 145.972 110.775 133.083 125.719 133.083 143.588 C 133.083 151.499 135.719 159.263 140.553 165.561 C 135.719 171.86 133.083 179.625 133.083 187.534 C 133.083 199.545 139.088 210.679 148.904 217.564 C 153.15 253.305 178.638 287.96 204.714 313.008 C 204.567 312.714 204.567 312.275 204.567 311.982 C 204.567 310.519 205.299 309.067 206.326 307.749 C 207.789 305.551 209.547 303.354 208.962 301.157 L 218.631 310.093 C 222.585 307.457 225.66 303.356 229.908 297.935 C 237.38 288.267 239.869 275.621 236.941 263.754 C 235.915 260.092 235.621 257.164 235.621 253.648 C 235.621 243.393 240.163 233.091 248.22 226.498 C 256.276 219.908 266.677 217.417 276.93 219.32 L 300.564 224.009 C 304.519 224.742 308.328 222.397 309.205 218.588 C 310.817 211.41 311.697 201.89 304.519 192.076 C 303.786 191.049 302.762 189.878 301.882 188.852 C 315.065 181.382 324 167.026 324 150.913 L 324 150.913 Z " fill="rgb(112,218,64)"/>
<path d=" M 261.989 152.378 L 244.703 139.779 L 259.353 135.972 C 263.307 135.092 265.651 131.138 264.625 127.182 C 263.746 123.228 259.791 120.883 255.837 121.91 C 245.729 125.572 224.783 125.864 206.326 141.391 C 202.078 144.762 198.121 149.01 194.314 154.135 L 191.529 141.979 C 190.652 138.022 186.55 135.533 182.741 136.411 C 178.785 137.29 176.296 141.246 177.175 145.2 L 183.912 174.79 C 173.806 207.164 182.449 226.727 204.714 313.008 L 206.326 313.008 C 211.745 313.155 215.407 312.144 218.631 310.093 C 213.942 291.197 197.097 222.838 196.365 219.029 L 216.872 208.776 C 220.535 206.87 222 202.477 220.241 198.962 C 218.337 195.299 213.942 193.834 210.427 195.591 L 194.606 203.501 C 194.314 186.509 198.562 172.594 206.326 162.194 C 211.745 154.87 218.923 149.157 227.419 145.2 L 253.201 164.098 C 256.423 166.587 261.109 165.855 263.454 162.633 C 265.943 159.263 265.212 154.723 261.989 152.378 L 261.989 152.378 Z " fill="rgb(86,194,37)"/>
</g>
</g>
</svg>
