<?xml version="1.0" standalone="no"?>
<!-- Generator: Gravit.io -->
<svg xmlns="http://www.w3.org/2000/svg" xmlns:xlink="http://www.w3.org/1999/xlink" style="isolation:isolate" viewBox="0 0 400 400" width="400" height="400">
<defs>
<clipPath id="_clipPath_BvekzGpZbOjqc6hYJk22EvPBC3jMwS7t">
<rect width="400" height="400"/>
</clipPath>
</defs>
<g clip-path="url(#_clipPath_BvekzGpZbOjqc6hYJk22EvPBC3jMwS7t)">
<rect width="400" height="400" style="fill:rgb(0,0,0)"/>
<rect x="200" y="150" width="50" height="50" transform="matrix(1,0,0,1,0,0)" fill="rgb(255,255,255)"/>
<rect x="150" y="250" width="50" height="50" transform="matrix(1,0,0,1,0,0)" fill="rgb(255,255,255)"/>
<rect x="200" y="250" width="50" height="50" transform="matrix(1,0,0,1,0,0)" fill="rgb(255,255,255)"/>
<rect x="200" y="200" width="50" height="50" transform="matrix(1,0,0,1,0,0)" fill="rgb(255,255,255)"/>
<rect x="250" y="200" width="50" height="50" transform="matrix(1,0,0,1,0,0)" fill="rgb(255,255,255)"/>
<rect x="250" y="250" width="50" height="50" transform="matrix(1,0,0,1,0,0)" fill="rgb(255,255,255)"/>
<rect x="150" y="200" width="50" height="50" transform="matrix(1,0,0,1,0,0)" fill="rgb(255,255,255)"/>
<rect x="200" y="50" width="50" height="50" transform="matrix(1,0,0,1,0,0)" fill="rgb(255,255,255)"/>
<rect x="200" y="100" width="50" height="50" transform="matrix(1,0,0,1,0,0)" fill="rgb(255,255,255)"/>
<rect x="250" y="100" width="50" height="50" transform="matrix(1,0,0,1,0,0)" fill="rgb(255,255,255)"/>
<rect x="150" y="100" width="50" height="50" transform="matrix(1,0,0,1,0,0)" fill="rgb(255,255,255)"/>
<g>
<g>
<path d=" M 239 87.359 C 239 81.639 231.866 77 226.233 77 C 220.6 77 214 81.639 214 87.359 C 214 90.748 217.636 93.757 220.113 95.647 L 220.113 111.531 L 232.353 111.531 L 232.353 95.647 C 234.83 93.757 239 90.748 239 87.359 Z " fill="rgb(255,218,68)"/>
<path d=" M 226.233 77 C 220.6 77 214 81.639 214 87.359 C 214 90.748 217.636 93.757 220.113 95.647 L 220.113 111.531 L 226.233 111.531 C 226.233 111.531 226.233 83.216 226.233 77 Z " fill="rgb(255,173,65)"/>
<path d=" M 226.233 104.625 C 210.461 104.625 184 113.901 184 125.344 C 184 136.786 204 148 204 148 L 205.834 180.594 L 246.632 180.594 L 249 148 C 249 148 269 136.786 269 125.344 C 269 113.901 242.005 104.625 226.233 104.625 Z " fill="rgb(189,114,13)"/>
<path d=" M 197.675 125.344 C 197.675 136.786 204 148 204 148 L 205.834 194.406 L 246.632 194.406 L 249 148 C 249 148 269 136.786 269 125.344 C 255.129 125.344 208.282 125.344 197.675 125.344 Z " fill="rgb(128,76,9)"/>
<path d=" M 226.233 194.406 L 226.233 125.344 L 184 125.344 C 184 136.786 204 148 204 148 L 205.834 194.406 L 226.233 194.406 Z " fill="rgb(64,38,4)"/>
<path d=" M 205.834 180.594 C 205.834 180.594 188 265.05 188 274.519 C 188 287.412 199.806 298 207.466 298 L 245 298 C 252.661 298 287 287.412 287 274.519 C 287 265.05 243.367 221.429 246.632 180.594 L 205.834 180.594 Z " fill="rgb(189,114,13)"/>
<path d=" M 226.233 180.594 Q 221.939 181.122 205.834 180.594 C 203.061 221.939 166 265.05 166 274.519 C 166 287.412 199.806 298 207.466 298 L 226.233 298 L 226.233 180.594 Z " fill="rgb(128,76,9)"/>
</g>
</g>
</g>
</svg>
