<?xml version="1.0" standalone="no"?>
<!-- Generator: Gravit.io -->
<svg xmlns="http://www.w3.org/2000/svg" xmlns:xlink="http://www.w3.org/1999/xlink" style="isolation:isolate" viewBox="0 0 400 400" width="400" height="400">
<defs>
<clipPath id="_clipPath_y7kGypNrzlwa6McgdZydStlSTm1FIl0U">
<rect width="400" height="400"/>
</clipPath>
</defs>
<g clip-path="url(#_clipPath_y7kGypNrzlwa6McgdZydStlSTm1FIl0U)">
<rect width="400" height="400" style="fill:rgb(0,0,0)"/>
<rect x="150" y="150" width="50" height="50" transform="matrix(1,0,0,1,0,0)" fill="rgb(255,255,255)"/>
<rect x="100" y="150" width="50" height="50" transform="matrix(1,0,0,1,0,0)" fill="rgb(255,255,255)"/>
<rect x="250" y="150" width="50" height="50" transform="matrix(1,0,0,1,0,0)" fill="rgb(255,255,255)"/>
<rect x="200" y="150" width="50" height="50" transform="matrix(1,0,0,1,0,0)" fill="rgb(255,255,255)"/>
<rect x="300" y="200" width="50" height="50" transform="matrix(1,0,0,1,0,0)" fill="rgb(255,255,255)"/>
<rect x="300" y="150" width="50" height="50" transform="matrix(1,0,0,1,0,0)" fill="rgb(255,255,255)"/>
<rect x="200" y="250" width="50" height="50" transform="matrix(1,0,0,1,0,0)" fill="rgb(255,255,255)"/>
<rect x="200" y="200" width="50" height="50" transform="matrix(1,0,0,1,0,0)" fill="rgb(255,255,255)"/>
<rect x="250" y="200" width="50" height="50" transform="matrix(1,0,0,1,0,0)" fill="rgb(255,255,255)"/>
<rect x="250" y="250" width="50" height="50" transform="matrix(1,0,0,1,0,0)" fill="rgb(255,255,255)"/>
<rect x="150" y="50" width="50" height="50" transform="matrix(1,0,0,1,0,0)" fill="rgb(255,255,255)"/>
<rect x="100" y="50" width="50" height="50" transform="matrix(1,0,0,1,0,0)" fill="rgb(255,255,255)"/>
<rect x="250" y="50" width="50" height="50" transform="matrix(1,0,0,1,0,0)" fill="rgb(255,255,255)"/>
<rect x="200" y="50" width="50" height="50" transform="matrix(1,0,0,1,0,0)" fill="rgb(255,255,255)"/>
<rect x="300" y="100" width="50" height="50" transform="matrix(1,0,0,1,0,0)" fill="rgb(255,255,255)"/>
<rect x="100" y="100" width="50" height="50" transform="matrix(1,0,0,1,0,0)" fill="rgb(255,255,255)"/>
<rect x="200" y="100" width="50" height="50" transform="matrix(1,0,0,1,0,0)" fill="rgb(255,255,255)"/>
<rect x="250" y="100" width="50" height="50" transform="matrix(1,0,0,1,0,0)" fill="rgb(255,255,255)"/>
<rect x="150" y="100" width="50" height="50" transform="matrix(1,0,0,1,0,0)" fill="rgb(255,255,255)"/>
<g>
<path d=" M 340 172.097 C 340 216.617 303.779 252.836 259.261 252.836 L 259.261 238.891 C 274.666 238.891 287.193 226.358 287.193 210.959 C 287.193 209.955 287.139 208.96 287.035 207.979 C 286.525 203.158 284.776 198.7 282.122 194.927 C 277.767 188.735 270.965 184.388 263.128 183.295 C 261.864 183.124 260.572 183.032 259.261 183.032 L 187.081 183.032 L 186.867 183.017 C 186.723 183.008 185.955 182.957 184.695 182.794 C 178.643 182.008 162.996 178.899 148.512 167.022 C 140.164 160.18 133.573 151.519 128.919 141.279 C 128.362 140.056 127.835 138.815 127.334 137.546 C 122.858 126.208 120.594 113.04 120.594 98.336 L 120.594 91.363 L 259.261 91.363 C 262.088 91.363 264.877 91.508 267.628 91.795 C 272.654 92.313 277.544 93.297 282.252 94.697 C 300.437 100.108 315.953 111.762 326.314 127.171 C 326.314 127.171 326.32 127.171 326.32 127.176 C 331.279 134.552 335.054 142.794 337.363 151.617 C 339.085 158.157 340 165.023 340 172.097 L 340 172.097 Z " fill="rgb(255,99,61)"/>
<path d=" M 127.566 105.308 L 127.154 105.308 C 113.283 105.308 102 94.023 102 80.154 C 102 66.283 113.283 55 127.154 55 L 234.48 55 L 234.48 68.945 L 127.154 68.945 C 120.973 68.945 115.945 73.973 115.945 80.154 C 115.945 86.333 120.973 91.363 127.154 91.363 L 127.566 91.363 L 127.566 105.308 Z " fill="rgb(255,99,61)"/>
<path d=" M 102 112.641 L 127.566 112.641 L 127.566 126.586 L 102 126.586 L 102 112.641 Z " fill="rgb(255,99,61)"/>
<path d=" M 175.91 110.509 L 189.855 110.509 L 189.855 124.454 L 175.91 124.454 L 175.91 110.509 Z " fill="rgb(240,231,223)"/>
<path d=" M 306.647 196.944 C 306.647 205.455 304.389 213.646 300.292 220.78 C 296.198 227.916 290.267 234.001 282.917 238.292 L 269.957 245.864 L 259.261 245.864 L 259.261 238.891 C 274.666 238.891 287.193 226.358 287.193 210.959 C 287.193 209.955 287.139 208.96 287.035 207.979 C 286.525 203.158 284.776 198.7 282.122 194.927 C 277.767 188.735 270.965 184.388 263.128 183.295 C 261.864 183.124 260.572 183.032 259.261 183.032 L 187.081 183.032 L 186.867 183.017 C 186.723 183.008 185.955 182.957 184.695 182.794 C 178.643 182.008 162.996 178.899 148.512 167.022 C 140.164 160.18 133.573 151.519 128.919 141.279 C 128.362 140.056 127.835 138.815 127.334 137.546 L 247.249 137.546 C 280.053 137.546 306.647 164.14 306.647 196.944 L 306.647 196.944 Z " fill="rgb(231,0,33)"/>
<path d=" M 225.118 137.546 C 224.761 150.854 221.274 166.372 211.68 183.032 L 195.228 183.032 C 205.433 168.062 210.783 152.835 211.229 137.546 C 211.429 131.006 210.726 124.451 209.123 117.906 C 205.785 104.268 199.348 94.67 196.897 91.363 L 213.461 91.363 C 216.608 96.941 220.139 104.598 222.496 113.908 C 224.179 120.561 225.36 128.547 225.118 137.546 Z " fill="rgb(255,183,77)"/>
<path d=" M 283.549 120.63 C 283.155 129.816 281.844 138.685 279.639 147.144 C 276.227 160.285 270.678 172.446 263.128 183.295 C 261.864 183.124 260.572 183.032 259.261 183.032 L 245.72 183.032 C 257.332 169.528 263.622 154.722 266.805 140.836 C 271.632 119.802 269.335 100.88 267.628 91.795 C 272.654 92.313 277.544 93.297 282.252 94.697 C 283.215 101.377 283.992 110.347 283.549 120.63 L 283.549 120.63 Z " fill="rgb(255,183,77)"/>
<path d=" M 337.363 151.617 C 336.802 153.801 336.132 156.051 335.346 158.342 C 331.159 170.508 322.908 185.41 306.647 197.213 C 301.097 201.244 294.612 204.907 287.035 207.979 C 286.525 203.158 284.776 198.7 282.122 194.927 C 290.828 191.366 298.298 186.736 304.499 181.065 C 312.538 173.715 318.441 164.609 322.16 153.807 C 326.102 142.347 326.445 132.102 326.32 127.176 C 331.279 134.552 335.054 142.794 337.363 151.617 L 337.363 151.617 Z " fill="rgb(255,183,77)"/>
<g>
<path d=" M 211.229 137.546 L 225.118 137.546 C 224.761 150.854 221.274 166.372 211.68 183.032 L 195.228 183.032 C 205.433 168.062 210.783 152.835 211.229 137.546 Z " fill="rgb(255,154,0)"/>
<path d=" M 266.805 140.836 C 271.361 142.427 275.666 144.555 279.639 147.144 C 276.227 160.285 270.678 172.446 263.128 183.295 C 261.864 183.124 260.572 183.032 259.261 183.032 L 245.72 183.032 C 257.332 169.528 263.622 154.722 266.805 140.836 L 266.805 140.836 Z " fill="rgb(255,154,0)"/>
<path d=" M 306.647 196.944 L 306.647 197.213 C 301.097 201.244 294.612 204.907 287.035 207.979 C 286.525 203.158 284.776 198.7 282.122 194.927 C 290.828 191.366 298.298 186.736 304.499 181.065 C 305.899 186.117 306.647 191.444 306.647 196.944 Z " fill="rgb(255,154,0)"/>
<path d=" M 269.957 238.891 L 269.957 252.836 L 269.785 252.836 C 268.134 268.605 254.767 280.936 238.571 280.936 L 204.647 280.936 L 204.647 270.277 C 204.647 260.423 209.212 251.623 216.337 245.864 C 209.212 240.104 204.647 231.305 204.647 221.45 L 204.647 210.792 L 238.571 210.792 C 254.767 210.792 268.134 223.125 269.785 238.891 L 269.957 238.891 Z " fill="rgb(255,154,0)"/>
</g>
<path d=" M 269.957 238.891 L 269.957 245.864 L 216.337 245.864 C 209.212 240.104 204.647 231.305 204.647 221.45 L 204.647 210.792 L 238.571 210.792 C 254.767 210.792 268.134 223.125 269.785 238.891 L 269.957 238.891 Z " fill="rgb(255,183,77)"/>
</g>
</g>
</svg>
