<?xml version="1.0" standalone="no"?><!-- Generator: Gravit.io --><svg xmlns="http://www.w3.org/2000/svg" xmlns:xlink="http://www.w3.org/1999/xlink" style="isolation:isolate" viewBox="0 0 400 400" width="400" height="400"><defs><clipPath id="_clipPath_lMdVaGCYH0pfYoQZdseYegs3q7LWbvDU"><rect width="400" height="400"/></clipPath></defs><g clip-path="url(#_clipPath_lMdVaGCYH0pfYoQZdseYegs3q7LWbvDU)"><rect width="400" height="400" style="fill:rgb(0,0,0)"/><rect x="300" y="200" width="50" height="50" transform="matrix(1,0,0,1,0,0)" fill="rgb(255,255,255)"/><rect x="100" y="300" width="50" height="50" transform="matrix(1,0,0,1,0,0)" fill="rgb(255,255,255)"/><rect x="50" y="300" width="50" height="50" transform="matrix(1,0,0,1,0,0)" fill="rgb(255,255,255)"/><rect x="200" y="300" width="50" height="50" transform="matrix(1,0,0,1,0,0)" fill="rgb(255,255,255)"/><rect x="150" y="300" width="50" height="50" transform="matrix(1,0,0,1,0,0)" fill="rgb(255,255,255)"/><rect x="50" y="250" width="50" height="50" transform="matrix(1,0,0,1,0,0)" fill="rgb(255,255,255)"/><rect x="100" y="250" width="50" height="50" transform="matrix(1,0,0,1,0,0)" fill="rgb(255,255,255)"/><rect x="100" y="200" width="50" height="50" transform="matrix(1,0,0,1,0,0)" fill="rgb(255,255,255)"/><rect x="50" y="200" width="50" height="50" transform="matrix(1,0,0,1,0,0)" fill="rgb(255,255,255)"/><rect x="150" y="250" width="50" height="50" transform="matrix(1,0,0,1,0,0)" fill="rgb(255,255,255)"/><rect x="200" y="250" width="50" height="50" transform="matrix(1,0,0,1,0,0)" fill="rgb(255,255,255)"/><rect x="250" y="200" width="50" height="50" transform="matrix(1,0,0,1,0,0)" fill="rgb(255,255,255)"/><rect x="250" y="300" width="50" height="50" transform="matrix(1,0,0,1,0,0)" fill="rgb(255,255,255)"/><rect x="300" y="300" width="50" height="50" transform="matrix(1,0,0,1,0,0)" fill="rgb(255,255,255)"/><rect x="300" y="250" width="50" height="50" transform="matrix(1,0,0,1,0,0)" fill="rgb(255,255,255)"/><rect x="250" y="250" width="50" height="50" transform="matrix(1,0,0,1,0,0)" fill="rgb(255,255,255)"/><rect x="150" y="50" width="50" height="50" transform="matrix(1,0,0,1,0,0)" fill="rgb(255,255,255)"/><rect x="100" y="50" width="50" height="50" transform="matrix(1,0,0,1,0,0)" fill="rgb(255,255,255)"/><rect x="250" y="50" width="50" height="50" transform="matrix(1,0,0,1,0,0)" fill="rgb(255,255,255)"/><rect x="200" y="50" width="50" height="50" transform="matrix(1,0,0,1,0,0)" fill="rgb(255,255,255)"/><rect x="100" y="100" width="50" height="50" transform="matrix(1,0,0,1,0,0)" fill="rgb(255,255,255)"/><rect x="200" y="100" width="50" height="50" transform="matrix(1,0,0,1,0,0)" fill="rgb(255,255,255)"/><rect x="250" y="100" width="50" height="50" transform="matrix(1,0,0,1,0,0)" fill="rgb(255,255,255)"/><rect x="150" y="100" width="50" height="50" transform="matrix(1,0,0,1,0,0)" fill="rgb(255,255,255)"/><g><g><path d=" M 222.369 138.611 C 224.14 138.855 225.944 138.979 227.749 138.979 C 235.091 138.979 242.057 136.984 247.363 133.364 C 254.12 128.755 257.183 122.201 256.092 115.824 C 263.482 112.05 268.052 105.875 268.052 99 C 268.052 92.123 263.482 85.949 256.092 82.175 C 257.183 75.796 254.12 69.242 247.364 64.636 C 242.056 61.014 235.089 59.02 227.749 59.02 C 225.944 59.02 224.14 59.144 222.369 59.388 C 217.099 54.209 208.631 51 199.354 51 C 190.079 51 181.61 54.21 176.339 59.389 C 174.567 59.145 172.763 59.02 170.958 59.02 C 163.62 59.02 156.655 61.015 151.347 64.634 C 144.589 69.239 141.524 75.795 142.616 82.174 C 135.224 85.948 130.654 92.123 130.654 98.999 C 130.654 105.875 135.224 112.049 142.614 115.823 C 141.523 122.2 144.586 128.756 151.344 133.363 C 156.653 136.984 163.619 138.978 170.956 138.979 C 170.957 138.979 170.957 138.979 170.958 138.979 C 172.762 138.979 174.567 138.854 176.338 138.61 C 181.609 143.79 190.078 146.999 199.354 146.999 C 208.631 147 217.099 143.79 222.369 138.611 Z " fill="rgb(144,72,168)"/><path d=" M 268.052 99 C 268.052 92.123 263.483 85.949 256.092 82.175 C 257.183 75.796 254.121 69.242 247.365 64.636 C 242.056 61.014 235.09 59.02 227.75 59.02 C 225.945 59.02 224.14 59.144 222.37 59.388 C 217.099 54.209 208.632 51 199.355 51 L 199.354 51 L 199.354 147 L 199.355 147 C 208.631 147 217.099 143.79 222.37 138.611 C 224.141 138.855 225.945 138.98 227.75 138.98 C 235.091 138.98 242.057 136.985 247.364 133.364 C 254.121 128.756 257.183 122.201 256.092 115.824 C 263.483 112.05 268.052 105.875 268.052 99 Z " fill="rgb(93,54,106)"/></g><g><g><path d=" M 242.003 275.181 C 240.506 276.159 239.062 277.247 237.699 278.431 C 232.156 283.244 228.204 289.318 226.571 295.531 C 224.491 303.441 226.476 310.397 231.481 314.497 C 228.375 322.192 228.973 329.851 233.481 335.042 C 237.989 340.235 245.488 341.901 253.542 339.904 C 256.901 345.436 263.511 348.377 271.632 347.426 C 278.015 346.68 284.582 343.618 290.124 338.806 C 291.487 337.622 292.768 336.345 293.945 335 C 301.32 335.455 309.818 332.327 316.823 326.244 C 323.827 320.163 328.117 312.187 328.701 304.82 C 330.199 303.843 331.643 302.754 333.006 301.571 C 338.547 296.76 342.498 290.687 344.133 284.474 C 346.217 276.566 344.232 269.607 339.225 265.505 C 342.333 257.809 341.735 250.151 337.226 244.958 C 332.718 239.767 325.22 238.101 317.165 240.097 C 313.808 234.566 307.197 231.624 299.073 232.577 C 292.69 233.323 286.123 236.385 280.582 241.195 C 280.582 241.195 280.582 241.195 280.582 241.196 C 279.219 242.379 277.938 243.657 276.761 245.002 C 269.385 244.547 260.886 247.676 253.882 253.758 C 246.877 259.839 242.587 267.815 242.003 275.181 Z " fill="rgb(144,72,168)"/><path d=" M 233.48 335.043 C 237.989 340.235 245.487 341.901 253.542 339.905 C 256.9 345.436 263.51 348.378 271.632 347.426 C 278.014 346.68 284.582 343.619 290.124 338.806 C 291.487 337.623 292.768 336.345 293.945 335.001 C 301.32 335.456 309.818 332.327 316.822 326.245 L 316.823 326.244 L 253.881 253.757 L 253.881 253.758 C 246.877 259.839 242.587 267.815 242.003 275.181 C 240.506 276.159 239.062 277.247 237.699 278.431 C 232.155 283.244 228.204 289.318 226.571 295.531 C 224.49 303.441 226.475 310.398 231.48 314.497 C 228.374 322.193 228.972 329.851 233.48 335.043 Z " fill="rgb(93,54,106)"/></g></g><g><g><path d=" M 71.003 305.821 C 69.506 304.844 68.062 303.756 66.699 302.572 C 61.156 297.759 57.204 291.685 55.571 285.472 C 53.491 277.562 55.476 270.605 60.481 266.505 C 57.375 258.81 57.973 251.152 62.481 245.96 C 66.989 240.768 74.488 239.102 82.542 241.098 C 85.901 235.567 92.511 232.625 100.632 233.577 C 107.015 234.323 113.582 237.385 119.124 242.197 C 120.487 243.38 121.768 244.658 122.945 246.002 C 130.32 245.548 138.818 248.676 145.823 254.759 C 152.827 260.84 157.117 268.816 157.701 276.182 C 159.199 277.16 160.643 278.249 162.006 279.432 C 167.547 284.243 171.498 290.316 173.133 296.528 C 175.217 304.437 173.232 311.396 168.225 315.497 C 171.333 323.193 170.735 330.852 166.226 336.044 C 161.718 341.236 154.22 342.902 146.165 340.905 C 142.808 346.437 136.197 349.378 128.073 348.426 C 121.69 347.679 115.123 344.618 109.582 339.808 C 109.582 339.807 109.582 339.807 109.582 339.807 C 108.219 338.624 106.938 337.346 105.761 336.001 C 98.385 336.456 89.886 333.327 82.882 327.245 C 75.877 321.163 71.587 313.187 71.003 305.821 Z " fill="rgb(144,72,168)"/><path d=" M 62.48 245.96 C 66.989 240.768 74.487 239.102 82.542 241.098 C 85.9 235.566 92.51 232.625 100.632 233.577 C 107.014 234.323 113.582 237.384 119.124 242.197 C 120.487 243.38 121.768 244.657 122.945 246.002 C 130.32 245.547 138.818 248.676 145.822 254.758 L 145.823 254.759 L 82.881 327.246 L 82.881 327.245 C 75.877 321.163 71.587 313.187 71.003 305.821 C 69.506 304.844 68.062 303.755 66.699 302.572 C 61.155 297.759 57.204 291.685 55.571 285.472 C 53.49 277.562 55.475 270.605 60.48 266.505 C 57.374 258.81 57.972 251.152 62.48 245.96 Z " fill="rgb(93,54,106)"/></g></g></g></g></svg>