<?xml version="1.0" standalone="no"?>
<!-- Generator: Gravit.io -->
<svg xmlns="http://www.w3.org/2000/svg" xmlns:xlink="http://www.w3.org/1999/xlink" style="isolation:isolate" viewBox="0 0 400 400" width="400" height="400">
<defs>
<clipPath id="_clipPath_xdYgfv4EQyHcfs6eLkuIWckwKYqzYBDK">
<rect width="400" height="400"/>
</clipPath>
</defs>
<g clip-path="url(#_clipPath_xdYgfv4EQyHcfs6eLkuIWckwKYqzYBDK)">
<rect width="400" height="400" style="fill:rgb(0,0,0)"/>
<rect x="150" y="150" width="50" height="50" transform="matrix(1,0,0,1,0,0)" fill="rgb(255,255,255)"/>
<rect x="100" y="150" width="50" height="50" transform="matrix(1,0,0,1,0,0)" fill="rgb(255,255,255)"/>
<rect x="250" y="150" width="50" height="50" transform="matrix(1,0,0,1,0,0)" fill="rgb(255,255,255)"/>
<rect x="200" y="150" width="50" height="50" transform="matrix(1,0,0,1,0,0)" fill="rgb(255,255,255)"/>
<rect x="100" y="300" width="50" height="50" transform="matrix(1,0,0,1,0,0)" fill="rgb(255,255,255)"/>
<rect x="200" y="300" width="50" height="50" transform="matrix(1,0,0,1,0,0)" fill="rgb(255,255,255)"/>
<rect x="150" y="300" width="50" height="50" transform="matrix(1,0,0,1,0,0)" fill="rgb(255,255,255)"/>
<rect x="100" y="250" width="50" height="50" transform="matrix(1,0,0,1,0,0)" fill="rgb(255,255,255)"/>
<rect x="100" y="200" width="50" height="50" transform="matrix(1,0,0,1,0,0)" fill="rgb(255,255,255)"/>
<rect x="150" y="250" width="50" height="50" transform="matrix(1,0,0,1,0,0)" fill="rgb(255,255,255)"/>
<rect x="200" y="250" width="50" height="50" transform="matrix(1,0,0,1,0,0)" fill="rgb(255,255,255)"/>
<rect x="200" y="200" width="50" height="50" transform="matrix(1,0,0,1,0,0)" fill="rgb(255,255,255)"/>
<rect x="250" y="200" width="50" height="50" transform="matrix(1,0,0,1,0,0)" fill="rgb(255,255,255)"/>
<rect x="250" y="300" width="50" height="50" transform="matrix(1,0,0,1,0,0)" fill="rgb(255,255,255)"/>
<rect x="250" y="250" width="50" height="50" transform="matrix(1,0,0,1,0,0)" fill="rgb(255,255,255)"/>
<rect x="150" y="200" width="50" height="50" transform="matrix(1,0,0,1,0,0)" fill="rgb(255,255,255)"/>
<rect x="150" y="50" width="50" height="50" transform="matrix(1,0,0,1,0,0)" fill="rgb(255,255,255)"/>
<rect x="250" y="50" width="50" height="50" transform="matrix(1,0,0,1,0,0)" fill="rgb(255,255,255)"/>
<rect x="200" y="50" width="50" height="50" transform="matrix(1,0,0,1,0,0)" fill="rgb(255,255,255)"/>
<rect x="100" y="100" width="50" height="50" transform="matrix(1,0,0,1,0,0)" fill="rgb(255,255,255)"/>
<rect x="200" y="100" width="50" height="50" transform="matrix(1,0,0,1,0,0)" fill="rgb(255,255,255)"/>
<rect x="250" y="100" width="50" height="50" transform="matrix(1,0,0,1,0,0)" fill="rgb(255,255,255)"/>
<rect x="150" y="100" width="50" height="50" transform="matrix(1,0,0,1,0,0)" fill="rgb(255,255,255)"/>
<g>
<g>
<g>
<path d=" M 185.521 69 L 185.521 102.779 L 151.741 102.779 L 151.741 136.559 L 117.962 136.559 L 117.962 208.944 L 282.034 107.605 L 282.034 69 L 185.521 69 Z " fill="rgb(76,49,44)"/>
</g>
<g>
<path d=" M 282.034 305.456 L 282.034 107.605 L 238.603 266.851 L 117.962 213.769 L 117.962 305.456 L 108.31 329.585 C 116.731 337.523 139.638 338.092 148.749 331.288 C 149.932 330.405 151.621 330.405 152.798 331.288 C 161.209 337.571 173.153 337.571 181.564 331.288 C 182.746 330.405 184.435 330.405 185.612 331.288 C 194.023 337.571 205.967 337.571 214.378 331.288 C 215.56 330.405 217.249 330.405 218.427 331.288 C 226.838 337.571 238.781 337.571 247.192 331.288 C 248.375 330.405 250.064 330.405 251.241 331.288 C 260.352 338.092 283.259 337.523 291.68 329.585 L 282.034 305.456 Z " fill="rgb(88,62,104)"/>
</g>
<path d=" M 282.034 97.954 L 257.905 97.954 L 257.905 69 L 248.254 69 L 248.254 97.954 L 224.126 97.954 L 224.126 69 L 214.475 69 L 214.475 97.954 L 190.346 97.954 L 190.346 69 L 185.521 69 L 185.521 102.779 L 151.741 102.779 L 151.741 136.559 L 117.962 136.559 L 117.962 141.385 L 146.916 141.385 L 146.916 165.513 L 117.962 165.513 L 117.962 175.164 L 146.916 175.164 L 146.916 185.39 L 117.962 203.273 L 117.962 208.944 L 282.034 107.605 L 282.034 97.954 Z  M 156.567 179.43 L 156.567 175.164 L 163.472 175.164 L 156.567 179.43 Z  M 180.695 164.524 L 179.098 165.513 L 156.567 165.513 L 156.567 141.385 L 180.695 141.385 L 180.695 164.524 Z  M 180.695 131.733 L 156.567 131.733 L 156.567 107.605 L 180.695 107.605 L 180.695 131.733 Z  M 214.475 143.662 L 190.346 158.564 L 190.346 141.385 L 214.475 141.385 L 214.475 143.662 Z  M 214.475 131.733 L 190.346 131.733 L 190.346 107.605 L 214.475 107.605 L 214.475 131.733 Z  M 248.254 122.796 L 233.777 131.738 L 233.777 131.733 L 224.126 131.733 L 224.126 107.605 L 248.254 107.605 L 248.254 122.796 Z  M 257.905 116.837 L 257.905 107.605 L 272.85 107.605 L 257.905 116.837 Z " fill="rgb(106,51,17)"/>
<path d=" M 130.19 340.896 C 120.403 340.896 110.438 338.227 105 333.098 L 111.621 326.076 C 118.174 332.248 138.34 333.04 145.864 327.423 C 148.749 325.256 152.788 325.261 155.689 327.418 C 162.348 332.393 172.014 332.388 178.678 327.423 C 181.578 325.256 185.617 325.256 188.508 327.423 C 195.157 332.388 204.828 332.388 211.497 327.423 C 214.383 325.256 218.422 325.261 221.322 327.418 C 227.981 332.393 237.647 332.388 244.311 327.423 C 247.202 325.256 251.241 325.261 254.136 327.418 C 261.669 333.04 281.826 332.253 288.379 326.076 L 295 333.098 C 285.247 342.291 260.965 343.574 249.234 335.771 C 239.428 342.546 226.22 342.542 216.41 335.776 C 206.599 342.546 193.401 342.542 183.595 335.776 C 173.78 342.546 160.577 342.542 150.771 335.771 C 145.584 339.217 137.94 340.896 130.19 340.896 Z " fill="rgb(111,88,168)"/>
<rect x="137.264" y="300.631" width="9.651" height="9.651" transform="matrix(1,0,0,1,0,0)" fill="rgb(111,88,168)"/>
<rect x="151.741" y="300.631" width="9.651" height="9.651" transform="matrix(1,0,0,1,0,0)" fill="rgb(111,88,168)"/>
<rect x="166.218" y="300.631" width="9.651" height="9.651" transform="matrix(1,0,0,1,0,0)" fill="rgb(111,88,168)"/>
<rect x="180.695" y="300.631" width="9.651" height="9.651" transform="matrix(1,0,0,1,0,0)" fill="rgb(111,88,168)"/>
<rect x="195.172" y="300.631" width="9.651" height="9.651" transform="matrix(1,0,0,1,0,0)" fill="rgb(111,88,168)"/>
<rect x="209.649" y="300.631" width="9.651" height="9.651" transform="matrix(1,0,0,1,0,0)" fill="rgb(111,88,168)"/>
<rect x="224.126" y="300.631" width="9.651" height="9.651" transform="matrix(1,0,0,1,0,0)" fill="rgb(111,88,168)"/>
<rect x="238.603" y="300.631" width="9.651" height="9.651" transform="matrix(1,0,0,1,0,0)" fill="rgb(111,88,168)"/>
<rect x="253.08" y="300.631" width="9.651" height="9.651" transform="matrix(1,0,0,1,0,0)" fill="rgb(111,88,168)"/>
<path d=" M 117.962 208.944 L 282.034 107.605 L 248.254 290.98 L 117.962 213.769 L 117.962 208.944 Z " fill="rgb(55,39,66)"/>
<g>
<path d=" M 117.962 208.944 L 282.034 107.605 L 238.603 266.851 L 117.962 213.769 L 117.962 208.944 Z " fill="rgb(230,230,230)"/>
<path d=" M 240.19 270.186 L 115.544 215.342 L 115.544 207.597 L 285.971 102.336 L 240.19 270.186 Z  M 120.374 212.196 L 237.01 263.517 L 278.096 112.875 L 120.374 210.29 L 120.374 212.196 Z " fill="rgb(230,230,230)"/>
</g>
</g>
</g>
</g>
</svg>
