<?xml version="1.0" standalone="no"?>
<!-- Generator: Gravit.io -->
<svg xmlns="http://www.w3.org/2000/svg" xmlns:xlink="http://www.w3.org/1999/xlink" style="isolation:isolate" viewBox="0 0 400 400" width="400" height="400">
<defs>
<clipPath id="_clipPath_nwSpFc9eIUF91zSG2w9ZGVbmQwSixa5I">
<rect width="400" height="400"/>
</clipPath>
</defs>
<g clip-path="url(#_clipPath_nwSpFc9eIUF91zSG2w9ZGVbmQwSixa5I)">
<rect width="400" height="400" style="fill:rgb(0,0,0)"/>
<rect x="150" y="150" width="50" height="50" transform="matrix(1,0,0,1,0,0)" fill="rgb(255,255,255)"/>
<rect x="100" y="150" width="50" height="50" transform="matrix(1,0,0,1,0,0)" fill="rgb(255,255,255)"/>
<rect x="200" y="150" width="50" height="50" transform="matrix(1,0,0,1,0,0)" fill="rgb(255,255,255)"/>
<rect x="100" y="200" width="50" height="50" transform="matrix(1,0,0,1,0,0)" fill="rgb(255,255,255)"/>
<rect x="150" y="250" width="50" height="50" transform="matrix(1,0,0,1,0,0)" fill="rgb(255,255,255)"/>
<rect x="200" y="200" width="50" height="50" transform="matrix(1,0,0,1,0,0)" fill="rgb(255,255,255)"/>
<rect x="150" y="200" width="50" height="50" transform="matrix(1,0,0,1,0,0)" fill="rgb(255,255,255)"/>
<rect x="150" y="100" width="50" height="50" transform="matrix(1,0,0,1,0,0)" fill="rgb(255,255,255)"/>
<g>
<g>
<g>
<path d=" M 163.265 263.185 C 162.523 263.185 161.783 262.833 161.215 262.124 C 160.08 260.707 160.078 258.407 161.212 256.986 L 172.718 242.545 C 173.846 241.121 175.685 241.117 176.819 242.542 C 177.954 243.959 177.956 246.259 176.822 247.68 L 165.316 262.121 C 164.753 262.833 164.011 263.185 163.265 263.185 Z " fill="rgb(164,111,62)"/>
<path d=" M 174.772 268 C 173.171 268 171.871 266.372 171.871 264.366 L 171.871 245.111 C 171.871 243.105 173.171 241.477 174.772 241.477 C 176.373 241.477 177.672 243.105 177.672 245.111 L 177.672 264.366 C 177.672 266.372 176.373 268 174.772 268 Z " fill="rgb(164,111,62)"/>
<path d=" M 186.278 263.185 C 185.535 263.185 184.793 262.829 184.224 262.121 L 172.718 247.68 C 171.584 246.259 171.587 243.959 172.721 242.542 C 173.855 241.121 175.688 241.124 176.822 242.545 L 188.329 256.986 C 189.463 258.407 189.46 260.707 188.326 262.124 C 187.76 262.833 187.021 263.185 186.278 263.185 Z " fill="rgb(164,111,62)"/>
<path d=" M 193.95 253.559 C 193.761 253.559 193.57 253.537 193.379 253.487 L 174.203 248.672 C 172.631 248.279 171.613 246.364 171.929 244.395 C 172.242 242.425 173.774 241.143 175.343 241.546 L 194.518 246.361 C 196.091 246.753 197.109 248.668 196.792 250.638 C 196.517 252.367 195.304 253.559 193.95 253.559 Z " fill="rgb(164,111,62)"/>
<path d=" M 155.593 253.16 C 154.201 253.16 152.971 251.902 152.736 250.125 C 152.472 248.149 153.54 246.273 155.121 245.943 L 174.296 241.931 C 175.874 241.611 177.371 242.938 177.634 244.918 C 177.898 246.895 176.831 248.77 175.25 249.101 L 156.075 253.112 C 155.912 253.141 155.75 253.16 155.593 253.16 Z " fill="rgb(164,111,62)"/>
</g>
<path d=" M 180.574 123 L 175.64 124.96 C 175.64 124.96 187.257 171.693 163.667 198.672 C 142.804 222.534 162.907 246.456 183.57 246.456 L 193.084 246.456 L 193.084 246.456 C 193.693 246.456 194.302 246.329 194.903 246.398 C 220.941 249.395 247.086 206.448 209.53 175.912 L 209.53 175.912 C 192.223 160.916 189.517 149.635 181.569 125.963 L 180.574 123 Z " fill="rgb(211,211,211)"/>
<path d=" M 163.664 198.672 C 180.87 178.996 179.347 148.834 177.265 133.934 C 166.895 152.718 166.054 159.872 148.175 170.859 C 127.985 182.434 121.142 199.588 122.279 214.197 C 122.207 215.005 123.57 246.722 155.111 246.292 C 160.503 246.22 165.581 245.077 170.069 243.03 C 155.897 235.592 147.534 217.119 163.664 198.672 Z " fill="rgb(230,230,230)"/>
<path d=" M 221.982 170.859 C 207.685 162.075 197.487 157.55 188.67 146.495 C 193.07 157.75 198.131 166.034 209.53 175.91 L 209.53 175.91 C 241.738 202.096 227.09 237.384 205.847 245.022 C 208.773 245.786 211.845 246.249 215.05 246.292 C 246.593 246.719 247.953 215.002 247.881 214.197 C 249.015 199.586 242.173 182.434 221.982 170.859 Z " fill="rgb(230,230,230)"/>
<path d=" M 122.103 214.197 C 120.966 199.586 127.808 182.434 147.998 170.859 C 156.926 165.374 161.605 160.843 165.344 155.346 C 155.287 160.829 142.287 164.848 132.501 170.859 C 112.31 182.434 98.93 199.586 100.067 214.197 C 99.995 215.005 99.154 246.292 139.436 246.292 C 141.858 246.292 144.202 246.003 146.464 245.53 C 123.147 240.754 122.036 214.923 122.103 214.197 Z " fill="rgb(211,211,211)"/>
</g>
</g>
</g>
</svg>
