<?xml version="1.0" standalone="no"?>
<!-- Generator: Gravit.io -->
<svg xmlns="http://www.w3.org/2000/svg" xmlns:xlink="http://www.w3.org/1999/xlink" style="isolation:isolate" viewBox="0 0 400 400" width="400" height="400">
<defs>
<clipPath id="_clipPath_sQxbUAnLrrONtaR21lUalaBNZRNmyyhW">
<rect width="400" height="400"/>
</clipPath>
</defs>
<g clip-path="url(#_clipPath_sQxbUAnLrrONtaR21lUalaBNZRNmyyhW)">
<rect width="400" height="400" style="fill:rgb(0,0,0)"/>
<rect x="150" y="150" width="50" height="50" transform="matrix(1,0,0,1,0,0)" fill="rgb(255,255,255)"/>
<rect x="100" y="150" width="50" height="50" transform="matrix(1,0,0,1,0,0)" fill="rgb(255,255,255)"/>
<rect x="250" y="150" width="50" height="50" transform="matrix(1,0,0,1,0,0)" fill="rgb(255,255,255)"/>
<rect x="200" y="150" width="50" height="50" transform="matrix(1,0,0,1,0,0)" fill="rgb(255,255,255)"/>
<rect x="100" y="200" width="50" height="50" transform="matrix(1,0,0,1,0,0)" fill="rgb(255,255,255)"/>
<rect x="150" y="250" width="50" height="50" transform="matrix(1,0,0,1,0,0)" fill="rgb(255,255,255)"/>
<rect x="200" y="250" width="50" height="50" transform="matrix(1,0,0,1,0,0)" fill="rgb(255,255,255)"/>
<rect x="200" y="200" width="50" height="50" transform="matrix(1,0,0,1,0,0)" fill="rgb(255,255,255)"/>
<rect x="250" y="200" width="50" height="50" transform="matrix(1,0,0,1,0,0)" fill="rgb(255,255,255)"/>
<rect x="250" y="250" width="50" height="50" transform="matrix(1,0,0,1,0,0)" fill="rgb(255,255,255)"/>
<rect x="150" y="200" width="50" height="50" transform="matrix(1,0,0,1,0,0)" fill="rgb(255,255,255)"/>
<rect x="100" y="100" width="50" height="50" transform="matrix(1,0,0,1,0,0)" fill="rgb(255,255,255)"/>
<rect x="200" y="100" width="50" height="50" transform="matrix(1,0,0,1,0,0)" fill="rgb(255,255,255)"/>
<rect x="150" y="100" width="50" height="50" transform="matrix(1,0,0,1,0,0)" fill="rgb(255,255,255)"/>
<g>
<g>
<path d=" M 267.765 233.819 C 269.337 232.668 271.323 232.152 273.504 232.425 C 274.231 232.515 274.979 232.695 275.744 232.964 C 276.376 233.189 276.987 233.488 277.579 233.828 C 278.127 234.128 278.649 234.487 279.164 234.866 L 280.698 227.516 C 281.985 221.348 280.334 214.93 276.23 210.146 L 230.259 144.009 C 228.143 145.116 225.425 145.078 222.674 143.556 C 217.583 140.736 214.377 134.038 215.513 128.594 C 215.806 127.192 216.362 126.021 217.106 125.088 L 209.238 113.768 C 203.228 106.832 195.458 103.974 189.491 105.225 L 135.794 118.578 C 130.985 119.563 127.316 123.47 126.287 128.405 C 126.278 128.444 126.278 128.444 126.28 128.434 L 115.47 180.241 C 117.052 180.279 118.727 180.694 120.422 181.635 C 126.324 184.906 130.043 192.671 128.726 198.982 C 127.409 205.292 121.556 207.758 115.654 204.487 C 113.958 203.549 112.475 202.213 111.207 200.672 L 109.723 207.788 C 108.564 213.341 111.334 218.969 116.439 221.439 L 251.199 293.698 C 258.437 297.199 267.041 292.969 268.683 285.097 L 274.409 257.655 L 274.406 257.655 C 271.421 256.51 268.784 254.157 266.933 251.231 C 266.892 251.167 266.862 251.096 266.824 251.029 C 266.411 250.359 266.029 249.672 265.702 248.955 C 265.593 248.719 265.525 248.468 265.428 248.228 C 265.202 247.666 264.965 247.108 264.797 246.528 C 264.663 246.07 264.596 245.6 264.501 245.134 C 264.425 244.758 264.312 244.38 264.263 244.003 C 264.153 243.149 264.112 242.292 264.149 241.442 C 264.187 240.585 264.3 239.777 264.482 239.022 C 264.845 237.512 265.487 236.214 266.338 235.177 C 266.763 234.654 267.242 234.201 267.765 233.819 Z " fill="rgb(238,175,75)"/>
<path d=" M 275.747 232.965 C 276.958 233.396 278.093 234.076 279.168 234.867 L 280.702 227.514 C 281.893 221.806 278.934 216.045 273.603 213.687 L 214.464 181.75 C 214.426 182.096 214.421 182.448 214.351 182.784 C 213.215 188.229 208.167 190.355 203.078 187.532 C 197.988 184.712 194.781 178.014 195.918 172.569 C 195.971 172.313 196.074 172.097 196.146 171.855 L 131.189 136.778 C 127.491 135.234 126.211 131.908 126.493 128.5 L 126.29 128.406 L 115.474 180.238 C 117.056 180.277 118.731 180.691 120.426 181.632 C 126.328 184.903 130.047 192.669 128.73 198.979 C 127.413 205.289 121.56 207.755 115.658 204.484 C 113.962 203.547 112.479 202.211 111.211 200.669 L 109.727 207.785 C 108.568 213.338 111.338 218.967 116.443 221.436 L 251.203 293.695 C 258.441 297.197 267.045 292.967 268.687 285.094 L 274.413 257.653 C 268.437 255.362 263.86 248.19 264.15 241.438 C 264.442 234.589 269.636 230.794 275.747 232.965 Z " fill="rgb(252,223,118)"/>
<path d=" M 196.768 215.404 C 195.22 222.819 188.344 225.714 181.407 221.873 C 174.471 218.03 170.102 208.906 171.649 201.49 C 173.197 194.075 180.073 191.18 187.01 195.021 C 193.947 198.861 198.315 207.988 196.768 215.404 Z " fill="rgb(244,196,78)"/>
<path d=" M 187.01 195.021 C 181.865 192.169 176.759 193.043 173.832 196.707 C 174.782 202.518 178.503 208.28 183.648 211.132 C 188.794 213.984 193.899 213.109 196.826 209.446 C 195.876 203.634 192.156 197.87 187.01 195.021 Z " fill="rgb(238,175,75)"/>
<path d=" M 248.56 245.203 C 247.477 250.395 242.663 252.422 237.807 249.73 C 232.951 247.041 229.893 240.652 230.976 235.461 C 232.059 230.269 236.873 228.242 241.729 230.934 C 246.585 233.626 249.643 240.015 248.56 245.203 Z " fill="rgb(244,196,78)"/>
<path d=" M 157.815 219.402 C 156.732 224.593 151.918 226.62 147.062 223.928 C 142.206 221.236 139.147 214.851 140.231 209.659 C 141.314 204.468 146.128 202.441 150.984 205.133 C 155.84 207.825 158.898 214.214 157.815 219.402 Z " fill="rgb(238,175,75)"/>
<path d=" M 218.379 258.22 C 217.675 261.593 214.547 262.911 211.389 261.163 C 208.235 259.417 206.245 255.263 206.949 251.891 C 207.652 248.519 210.78 247.201 213.938 248.948 C 217.096 250.695 219.083 254.845 218.379 258.22 Z " fill="rgb(238,175,75)"/>
<path d=" M 224.194 218.62 C 223.49 221.992 220.362 223.31 217.204 221.563 C 214.05 219.817 212.06 215.663 212.764 212.29 C 213.467 208.918 216.595 207.6 219.753 209.348 C 222.908 211.094 224.898 215.245 224.194 218.62 Z " fill="rgb(238,175,75)"/>
<path d=" M 149.155 166.907 C 148.381 170.615 144.941 172.064 141.476 170.143 C 138.008 168.221 135.825 163.659 136.599 159.951 C 137.372 156.244 140.813 154.795 144.277 156.716 C 147.742 158.637 149.928 163.2 149.155 166.907 Z " fill="rgb(244,196,78)"/>
<path d=" M 214.351 182.784 C 213.215 188.226 208.168 190.351 203.078 187.532 C 197.988 184.712 194.781 178.014 195.918 172.569 C 197.053 167.128 202.101 165.002 207.191 167.822 C 212.277 170.641 215.487 177.339 214.351 182.784 Z " fill="rgb(244,196,78)"/>
</g>
</g>
</g>
</svg>
