<?xml version="1.0" standalone="no"?><!-- Generator: Gravit.io --><svg xmlns="http://www.w3.org/2000/svg" xmlns:xlink="http://www.w3.org/1999/xlink" style="isolation:isolate" viewBox="0 0 400 400" width="400" height="400"><defs><clipPath id="_clipPath_AFSqevz7x225gqLfEhMK9UexBouI1X5i"><rect width="400" height="400"/></clipPath></defs><g clip-path="url(#_clipPath_AFSqevz7x225gqLfEhMK9UexBouI1X5i)"><rect width="400" height="400" style="fill:rgb(0,0,0)"/><rect x="0" y="150" width="50" height="50" transform="matrix(1,0,0,1,0,0)" fill="rgb(255,255,255)"/><rect x="50" y="100" width="50" height="50" transform="matrix(1,0,0,1,0,0)" fill="rgb(255,255,255)"/><rect x="50" y="150" width="50" height="50" transform="matrix(1,0,0,1,0,0)" fill="rgb(255,255,255)"/><rect x="50" y="100" width="50" height="50" transform="matrix(1,0,0,1,0,0)" fill="rgb(255,255,255)"/><rect x="0" y="100" width="50" height="50" transform="matrix(1,0,0,1,0,0)" fill="rgb(255,255,255)"/><rect x="150" y="150" width="50" height="50" transform="matrix(1,0,0,1,0,0)" fill="rgb(255,255,255)"/><rect x="100" y="150" width="50" height="50" transform="matrix(1,0,0,1,0,0)" fill="rgb(255,255,255)"/><rect x="250" y="150" width="50" height="50" transform="matrix(1,0,0,1,0,0)" fill="rgb(255,255,255)"/><rect x="200" y="150" width="50" height="50" transform="matrix(1,0,0,1,0,0)" fill="rgb(255,255,255)"/><rect x="0" y="300" width="50" height="50" transform="matrix(1,0,0,1,0,0)" fill="rgb(255,255,255)"/><rect x="100" y="300" width="50" height="50" transform="matrix(1,0,0,1,0,0)" fill="rgb(255,255,255)"/><rect x="50" y="300" width="50" height="50" transform="matrix(1,0,0,1,0,0)" fill="rgb(255,255,255)"/><rect x="200" y="300" width="50" height="50" transform="matrix(1,0,0,1,0,0)" fill="rgb(255,255,255)"/><rect x="150" y="300" width="50" height="50" transform="matrix(1,0,0,1,0,0)" fill="rgb(255,255,255)"/><rect x="50" y="250" width="50" height="50" transform="matrix(1,0,0,1,0,0)" fill="rgb(255,255,255)"/><rect x="100" y="250" width="50" height="50" transform="matrix(1,0,0,1,0,0)" fill="rgb(255,255,255)"/><rect x="100" y="200" width="50" height="50" transform="matrix(1,0,0,1,0,0)" fill="rgb(255,255,255)"/><rect x="50" y="200" width="50" height="50" transform="matrix(1,0,0,1,0,0)" fill="rgb(255,255,255)"/><rect x="150" y="250" width="50" height="50" transform="matrix(1,0,0,1,0,0)" fill="rgb(255,255,255)"/><rect x="200" y="250" width="50" height="50" transform="matrix(1,0,0,1,0,0)" fill="rgb(255,255,255)"/><rect x="200" y="200" width="50" height="50" transform="matrix(1,0,0,1,0,0)" fill="rgb(255,255,255)"/><rect x="250" y="200" width="50" height="50" transform="matrix(1,0,0,1,0,0)" fill="rgb(255,255,255)"/><rect x="250" y="300" width="50" height="50" transform="matrix(1,0,0,1,0,0)" fill="rgb(255,255,255)"/><rect x="300" y="300" width="50" height="50" transform="matrix(1,0,0,1,0,0)" fill="rgb(255,255,255)"/><rect x="300" y="250" width="50" height="50" transform="matrix(1,0,0,1,0,0)" fill="rgb(255,255,255)"/><rect x="250" y="250" width="50" height="50" transform="matrix(1,0,0,1,0,0)" fill="rgb(255,255,255)"/><rect x="150" y="200" width="50" height="50" transform="matrix(1,0,0,1,0,0)" fill="rgb(255,255,255)"/><g><g><path d=" M 270.006 327.618 C 270.006 331.373 266.959 334.42 263.194 334.42 L 59.247 334.42 C 55.492 334.42 52.45 331.373 52.45 327.618 L 52.45 191.659 C 52.45 187.904 55.492 184.858 59.247 184.858 L 263.194 184.858 C 266.958 184.858 270.006 187.905 270.006 191.659 L 270.006 327.618 Z " fill="rgb(255,227,171)"/></g><g><path d=" M 193.975 212.722 L 181.53 240.983 C 181.53 240.983 69.863 208.534 30.3 191.117 C 17.113 185.312 8.142 169.916 16.335 151.312 C 24.522 132.709 41.933 128.932 55.122 134.738 C 94.684 152.155 193.975 212.722 193.975 212.722 Z " fill="rgb(203,208,216)"/></g><g><path d=" M 173.313 257.103 L 167.168 235.304 L 181.397 202.996 L 338.506 272.141 C 338.507 272.142 356.629 337.809 173.313 257.103 Z " fill="rgb(229,232,236)"/></g><g><path d=" M 215.612 327.618 C 215.612 331.373 218.659 334.42 222.404 334.42 L 290.401 334.42 C 294.146 334.42 297.192 331.373 297.192 327.618 L 297.192 191.659 C 297.192 187.904 294.146 184.858 290.401 184.858 L 222.404 184.858 C 218.659 184.858 215.612 187.905 215.612 191.659 L 215.612 327.618 L 215.612 327.618 Z " fill="rgb(255,235,189)"/></g><g style="opacity:0.3;"><g opacity="0.3"><path d=" M 242.799 212.049 C 242.799 215.804 245.846 218.85 249.61 218.85 C 253.355 218.85 256.402 215.804 256.402 212.049 L 256.402 184.857 L 242.799 184.857 L 242.799 212.049 Z " fill="rgb(255,255,255)"/></g><g opacity="0.3"><path d=" M 276.797 300.431 C 276.797 296.676 273.75 293.629 270.006 293.629 C 266.241 293.629 263.194 296.676 263.194 300.431 L 263.194 300.431 L 263.194 324.431 L 276.797 324.431 L 276.797 300.431 L 276.797 300.431 Z " fill="rgb(255,255,255)"/></g></g><g style="opacity:0.3;"><g opacity="0.3"><path d=" M 120.433 184.857 L 120.433 232.444 C 120.433 236.198 123.48 239.246 127.235 239.246 C 130.99 239.246 134.032 236.198 134.032 232.444 L 134.032 184.857 L 120.433 184.857 L 120.433 184.857 Z " fill="rgb(255,255,255)"/></g><g opacity="0.3"><path d=" M 79.643 212.049 C 79.643 215.804 82.69 218.85 86.444 218.85 C 90.199 218.85 93.241 215.804 93.241 212.049 L 93.241 184.857 L 79.643 184.857 L 79.643 212.049 L 79.643 212.049 Z " fill="rgb(255,255,255)"/></g></g><path d=" M 331.191 320.826 L 18.457 320.826 L 18.457 320.826 L 18.457 320.826 C 14.703 320.826 11.66 323.864 11.66 327.618 C 11.66 331.372 14.703 334.42 18.457 334.42 L 18.457 334.42 L 18.457 334.42 L 331.191 334.42 C 334.936 334.42 337.983 331.372 337.983 327.618 C 337.983 323.863 334.936 320.826 331.191 320.826 Z " fill="rgb(66,73,83)"/></g></g></svg>