<?xml version="1.0" standalone="no"?>
<!-- Generator: Gravit.io -->
<svg xmlns="http://www.w3.org/2000/svg" xmlns:xlink="http://www.w3.org/1999/xlink" style="isolation:isolate" viewBox="0 0 400 400" width="400" height="400">
<defs>
<clipPath id="_clipPath_5oljYhBMrd0NiFaE8ekNYVNsxcAIdkUc">
<rect width="400" height="400"/>
</clipPath>
</defs>
<g clip-path="url(#_clipPath_5oljYhBMrd0NiFaE8ekNYVNsxcAIdkUc)">
<rect width="400" height="400" style="fill:rgb(0,0,0)"/>
<rect x="200" y="150" width="50" height="50" transform="matrix(1,0,0,1,0,0)" fill="rgb(255,255,255)"/>
<rect x="200" y="300" width="50" height="50" transform="matrix(1,0,0,1,0,0)" fill="rgb(255,255,255)"/>
<rect x="150" y="300" width="50" height="50" transform="matrix(1,0,0,1,0,0)" fill="rgb(255,255,255)"/>
<rect x="150" y="250" width="50" height="50" transform="matrix(1,0,0,1,0,0)" fill="rgb(255,255,255)"/>
<rect x="200" y="250" width="50" height="50" transform="matrix(1,0,0,1,0,0)" fill="rgb(255,255,255)"/>
<rect x="200" y="200" width="50" height="50" transform="matrix(1,0,0,1,0,0)" fill="rgb(255,255,255)"/>
<rect x="250" y="200" width="50" height="50" transform="matrix(1,0,0,1,0,0)" fill="rgb(255,255,255)"/>
<rect x="250" y="300" width="50" height="50" transform="matrix(1,0,0,1,0,0)" fill="rgb(255,255,255)"/>
<rect x="250" y="250" width="50" height="50" transform="matrix(1,0,0,1,0,0)" fill="rgb(255,255,255)"/>
<rect x="150" y="200" width="50" height="50" transform="matrix(1,0,0,1,0,0)" fill="rgb(255,255,255)"/>
<g>
<g>
<path d=" M 215.675 339.255 C 214.96 339.255 214.246 338.981 213.702 338.437 C 212.611 337.346 212.611 335.582 213.702 334.491 L 225.423 322.77 C 226.514 321.679 228.278 321.679 229.369 322.77 C 230.46 323.861 230.46 325.625 229.369 326.716 L 217.648 338.437 C 217.104 338.981 216.389 339.255 215.675 339.255 Z " fill="rgb(165,165,165)"/>
<path d=" M 227.396 343.162 C 225.852 343.162 224.605 341.912 224.605 340.371 L 224.605 324.743 C 224.605 323.203 225.852 321.953 227.396 321.953 C 228.939 321.953 230.186 323.203 230.186 324.743 L 230.186 340.371 C 230.186 341.912 228.939 343.162 227.396 343.162 Z " fill="rgb(165,165,165)"/>
<path d=" M 239.117 339.255 C 238.402 339.255 237.688 338.981 237.144 338.437 L 225.423 326.716 C 224.332 325.625 224.332 323.861 225.423 322.77 C 226.514 321.679 228.278 321.679 229.369 322.77 L 241.09 334.491 C 242.181 335.582 242.181 337.346 241.09 338.437 C 240.545 338.981 239.831 339.255 239.117 339.255 Z " fill="rgb(165,165,165)"/>
<path d=" M 246.933 331.441 C 246.752 331.441 246.568 331.424 246.384 331.385 L 226.849 327.478 C 225.339 327.177 224.357 325.706 224.661 324.194 C 224.959 322.684 226.413 321.699 227.946 322.006 L 247.48 325.913 C 248.99 326.214 249.972 327.685 249.668 329.197 C 249.403 330.523 248.237 331.441 246.933 331.441 Z " fill="rgb(165,165,165)"/>
<path d=" M 207.858 330.791 C 206.519 330.791 205.335 329.822 205.109 328.46 C 204.855 326.94 205.882 325.502 207.403 325.248 L 226.938 321.992 C 228.465 321.735 229.899 322.765 230.147 324.286 C 230.401 325.807 229.374 327.244 227.853 327.498 L 208.319 330.754 C 208.165 330.777 208.012 330.791 207.858 330.791 Z " fill="rgb(165,165,165)"/>
<path d=" M 230.186 204.956 L 231.208 171 L 217.648 157 L 219.024 205.182 C 188.519 208.721 164.977 235.104 166.034 266.798 C 167.056 297.375 191.614 322.717 222.149 324.623 C 257.033 326.8 286 299.156 286 264.744 C 286 233.019 261.361 207.113 230.186 204.956 Z " fill="rgb(233,211,234)"/>
<path d=" M 227.396 328.1 C 227.108 328.1 226.818 328.056 226.528 327.961 C 209.485 322.399 193.662 307.022 186.225 288.78 C 179.203 271.57 180.002 253.16 188.466 236.94 C 189.18 235.575 190.855 235.042 192.233 235.757 C 193.598 236.471 194.128 238.157 193.416 239.522 C 183.557 258.417 186.875 275.591 191.393 286.673 C 198.239 303.459 212.711 317.582 228.264 322.656 C 229.726 323.133 230.53 324.71 230.052 326.175 C 229.667 327.353 228.571 328.1 227.396 328.1 Z " fill="rgb(151,119,168)"/>
<path d=" M 227.396 328.1 C 226.221 328.1 225.127 327.353 224.742 326.175 C 224.265 324.71 225.066 323.136 226.531 322.656 C 242.083 317.582 256.556 303.459 263.401 286.673 C 267.919 275.591 271.24 258.417 261.378 239.522 C 260.666 238.157 261.196 236.471 262.561 235.757 C 263.934 235.042 265.617 235.575 266.329 236.94 C 274.793 253.16 275.588 271.57 268.569 288.78 C 261.132 307.02 245.309 322.399 228.266 327.961 C 227.973 328.056 227.683 328.1 227.396 328.1 Z " fill="rgb(151,119,168)"/>
<path d=" M 228.785 328.1 C 228.314 328.1 227.837 327.983 227.399 327.729 C 209.237 317.295 195.37 267.986 206.075 231.858 C 206.51 230.382 208.065 229.542 209.544 229.975 C 211.02 230.413 211.863 231.964 211.427 233.443 C 200.817 269.251 215.608 314.518 230.178 322.887 C 231.515 323.655 231.978 325.36 231.208 326.697 C 230.694 327.598 229.754 328.1 228.785 328.1 Z " fill="rgb(151,119,168)"/>
<path d=" M 226.006 328.1 C 225.038 328.1 224.097 327.598 223.584 326.7 C 222.816 325.363 223.279 323.658 224.613 322.89 C 239.184 314.521 253.974 269.253 243.364 233.446 C 242.929 231.967 243.771 230.416 245.248 229.977 C 246.727 229.542 248.281 230.385 248.717 231.861 C 259.422 267.989 245.555 317.298 227.393 327.732 C 226.955 327.98 226.478 328.1 226.006 328.1 Z " fill="rgb(151,119,168)"/>
<path d=" M 227.396 327.534 C 225.852 327.534 224.605 326.284 224.605 324.743 L 224.605 221.488 C 224.605 219.948 225.852 218.697 227.396 218.697 C 228.939 218.697 230.186 219.948 230.186 221.488 L 230.186 324.743 C 230.186 326.284 228.939 327.534 227.396 327.534 Z " fill="rgb(151,119,168)"/>
</g>
</g>
</g>
</svg>
