<?xml version="1.0" standalone="no"?>
<!-- Generator: Gravit.io -->
<svg xmlns="http://www.w3.org/2000/svg" xmlns:xlink="http://www.w3.org/1999/xlink" style="isolation:isolate" viewBox="0 0 400 400" width="400" height="400">
<defs>
<clipPath id="_clipPath_fYG0kWx7gSvTbIo1AkAG6aGZ4CIqglgy">
<rect width="400" height="400"/>
</clipPath>
</defs>
<g clip-path="url(#_clipPath_fYG0kWx7gSvTbIo1AkAG6aGZ4CIqglgy)">
<rect width="400" height="400" style="fill:rgb(0,0,0)"/>
<rect x="150" y="150" width="50" height="50" transform="matrix(1,0,0,1,0,0)" fill="rgb(255,255,255)"/>
<rect x="100" y="150" width="50" height="50" transform="matrix(1,0,0,1,0,0)" fill="rgb(255,255,255)"/>
<rect x="250" y="150" width="50" height="50" transform="matrix(1,0,0,1,0,0)" fill="rgb(255,255,255)"/>
<rect x="200" y="150" width="50" height="50" transform="matrix(1,0,0,1,0,0)" fill="rgb(255,255,255)"/>
<rect x="100" y="200" width="50" height="50" transform="matrix(1,0,0,1,0,0)" fill="rgb(255,255,255)"/>
<rect x="150" y="250" width="50" height="50" transform="matrix(1,0,0,1,0,0)" fill="rgb(255,255,255)"/>
<rect x="200" y="250" width="50" height="50" transform="matrix(1,0,0,1,0,0)" fill="rgb(255,255,255)"/>
<rect x="200" y="200" width="50" height="50" transform="matrix(1,0,0,1,0,0)" fill="rgb(255,255,255)"/>
<rect x="150" y="200" width="50" height="50" transform="matrix(1,0,0,1,0,0)" fill="rgb(255,255,255)"/>
<rect x="200" y="50" width="50" height="50" transform="matrix(1,0,0,1,0,0)" fill="rgb(255,255,255)"/>
<rect x="300.265" y="100" width="50" height="50" transform="matrix(1,0,0,1,0,0)" fill="rgb(255,255,255)"/>
<rect x="200" y="100" width="50" height="50" transform="matrix(1,0,0,1,0,0)" fill="rgb(255,255,255)"/>
<rect x="250" y="100" width="50" height="50" transform="matrix(1,0,0,1,0,0)" fill="rgb(255,255,255)"/>
<g>
<g>
<path d=" M 109.322 189.616 C 116.514 165.363 139.155 150.724 159.945 156.888 L 166.214 158.747 C 187.004 164.911 198.007 189.527 190.815 213.78 C 184.142 236.285 160.491 249.118 137.987 242.445 C 115.482 235.772 102.65 212.118 109.322 189.616 Z " fill="rgb(209,56,52)"/>
<path d=" M 154.31 235.721 C 161.501 211.467 184.143 196.828 204.933 202.992 L 211.202 204.851 C 231.992 211.015 242.994 235.631 235.803 259.884 C 229.13 282.389 205.479 295.222 182.974 288.549 C 160.47 281.876 147.638 258.222 154.31 235.721 Z " fill="rgb(237,63,50)"/>
<path d=" M 217.58 240.841 C 207.208 237.766 201.274 226.83 204.35 216.459 C 204.863 214.729 206.683 213.741 208.413 214.254 C 210.144 214.767 211.131 216.587 210.618 218.318 C 208.568 225.232 212.524 232.522 219.438 234.573 C 221.169 235.086 222.156 236.906 221.643 238.636 C 221.13 240.366 219.31 241.354 217.58 240.841 Z " fill="rgb(237,113,97)"/>
<path d=" M 178.808 277.483 C 178.583 277.416 178.358 277.322 178.144 277.204 C 167.738 271.404 161.09 260.567 160.792 248.923 C 160.747 247.119 162.171 245.618 163.978 245.571 C 165.786 245.524 167.286 246.951 167.33 248.757 C 167.565 257.959 173.062 266.882 181.328 271.492 C 182.905 272.372 183.47 274.364 182.594 275.939 C 181.829 277.301 180.241 277.908 178.808 277.483 Z " fill="rgb(237,113,97)"/>
<path d=" M 134.583 230.428 C 134.358 230.362 134.133 230.268 133.919 230.15 C 123.513 224.35 116.864 213.516 116.566 201.871 C 116.521 200.068 117.945 198.567 119.752 198.52 C 121.561 198.48 123.06 199.899 123.104 201.706 C 123.339 210.907 128.836 219.831 137.103 224.438 C 138.68 225.318 139.246 227.307 138.369 228.884 C 137.605 230.243 136.019 230.854 134.583 230.428 Z " fill="rgb(237,63,50)"/>
<path d=" M 122.937 188.873 C 122.733 188.812 122.529 188.731 122.332 188.625 C 120.737 187.781 120.128 185.799 120.972 184.205 C 123.086 180.215 125.827 176.687 129.116 173.713 C 130.457 172.505 132.525 172.613 133.735 173.947 C 134.944 175.288 134.84 177.354 133.501 178.567 C 130.78 181.027 128.508 183.954 126.754 187.27 C 126.012 188.666 124.397 189.306 122.937 188.873 Z " fill="rgb(237,63,50)"/>
<path d=" M 178.861 196.596 C 168.489 193.521 162.556 182.585 165.631 172.214 C 166.144 170.483 167.965 169.496 169.695 170.009 C 171.425 170.522 172.413 172.342 171.9 174.072 C 169.85 180.987 173.805 188.277 180.72 190.327 C 182.45 190.84 183.438 192.661 182.925 194.391 C 182.412 196.121 180.591 197.109 178.861 196.596 Z " fill="rgb(237,63,50)"/>
<path d=" M 216 226 C 215.486 225.848 215.404 225.41 215 225 C 215.248 223.576 215.037 223.47 216 222 C 236.325 202.077 267.786 180.329 257.132 141.557 C 241.935 174.604 202.826 193.376 177.199 185.778 C 175.469 185.265 174.481 183.444 174.994 181.714 C 175.507 179.984 177.328 178.996 179.058 179.509 C 203.672 186.808 244.077 165.115 254.39 130.333 C 254.799 128.954 256.067 128 257.505 127.994 C 258.944 127.984 260.22 128.922 260.648 130.296 C 271.25 170 258.499 185.48 242 204 C 236.34 211.521 228.264 219.482 219 225 C 218.122 225.858 217.1 226.326 216 226 Z " fill="rgb(76,49,44)"/>
<path d=" M 260.065 128.754 C 273.649 146.624 302.196 147.742 320.065 134.158 C 306.483 116.284 277.935 115.171 260.065 128.754 Z " fill="rgb(136,192,87)"/>
<path d=" M 211.309 88.693 C 211.965 111.569 234.971 129.43 257.847 128.774 C 257.186 105.897 234.18 88.036 211.309 88.693 Z " fill="rgb(101,156,53)"/>
</g>
</g>
</g>
</svg>
