<?xml version="1.0" standalone="no"?>
<!-- Generator: Gravit.io -->
<svg xmlns="http://www.w3.org/2000/svg" xmlns:xlink="http://www.w3.org/1999/xlink" style="isolation:isolate" viewBox="0 0 400 400" width="400" height="400">
<defs>
<clipPath id="_clipPath_oFUwOxP3C5D2YrcFmJD4eejOxbJ4VxnS">
<rect width="400" height="400"/>
</clipPath>
</defs>
<g clip-path="url(#_clipPath_oFUwOxP3C5D2YrcFmJD4eejOxbJ4VxnS)">
<rect width="400" height="400" style="fill:rgb(0,0,0)"/>
<rect x="150" y="150" width="50" height="50" transform="matrix(1,0,0,1,0,0)" fill="rgb(255,255,255)"/>
<rect x="250" y="150" width="50" height="50" transform="matrix(1,0,0,1,0,0)" fill="rgb(255,255,255)"/>
<rect x="200" y="150" width="50" height="50" transform="matrix(1,0,0,1,0,0)" fill="rgb(255,255,255)"/>
<rect x="300" y="200" width="50" height="50" transform="matrix(1,0,0,1,0,0)" fill="rgb(255,255,255)"/>
<rect x="300" y="150" width="50" height="50" transform="matrix(1,0,0,1,0,0)" fill="rgb(255,255,255)"/>
<rect x="100" y="300" width="50" height="50" transform="matrix(1,0,0,1,0,0)" fill="rgb(255,255,255)"/>
<rect x="200" y="300" width="50" height="50" transform="matrix(1,0,0,1,0,0)" fill="rgb(255,255,255)"/>
<rect x="150" y="300" width="50" height="50" transform="matrix(1,0,0,1,0,0)" fill="rgb(255,255,255)"/>
<rect x="50" y="250" width="50" height="50" transform="matrix(1,0,0,1,0,0)" fill="rgb(255,255,255)"/>
<rect x="100" y="250" width="50" height="50" transform="matrix(1,0,0,1,0,0)" fill="rgb(255,255,255)"/>
<rect x="100" y="200" width="50" height="50" transform="matrix(1,0,0,1,0,0)" fill="rgb(255,255,255)"/>
<rect x="50" y="200" width="50" height="50" transform="matrix(1,0,0,1,0,0)" fill="rgb(255,255,255)"/>
<rect x="150" y="250" width="50" height="50" transform="matrix(1,0,0,1,0,0)" fill="rgb(255,255,255)"/>
<rect x="200" y="250" width="50" height="50" transform="matrix(1,0,0,1,0,0)" fill="rgb(255,255,255)"/>
<rect x="200" y="200" width="50" height="50" transform="matrix(1,0,0,1,0,0)" fill="rgb(255,255,255)"/>
<rect x="250" y="200" width="50" height="50" transform="matrix(1,0,0,1,0,0)" fill="rgb(255,255,255)"/>
<rect x="250" y="300" width="50" height="50" transform="matrix(1,0,0,1,0,0)" fill="rgb(255,255,255)"/>
<rect x="300" y="250" width="50" height="50" transform="matrix(1,0,0,1,0,0)" fill="rgb(255,255,255)"/>
<rect x="250" y="250" width="50" height="50" transform="matrix(1,0,0,1,0,0)" fill="rgb(255,255,255)"/>
<rect x="150" y="200" width="50" height="50" transform="matrix(1,0,0,1,0,0)" fill="rgb(255,255,255)"/>
<rect x="150" y="50" width="50" height="50" transform="matrix(1,0,0,1,0,0)" fill="rgb(255,255,255)"/>
<rect x="250" y="50" width="50" height="50" transform="matrix(1,0,0,1,0,0)" fill="rgb(255,255,255)"/>
<rect x="200" y="50" width="50" height="50" transform="matrix(1,0,0,1,0,0)" fill="rgb(255,255,255)"/>
<rect x="300" y="100" width="50" height="50" transform="matrix(1,0,0,1,0,0)" fill="rgb(255,255,255)"/>
<rect x="200" y="100" width="50" height="50" transform="matrix(1,0,0,1,0,0)" fill="rgb(255,255,255)"/>
<rect x="250" y="100" width="50" height="50" transform="matrix(1,0,0,1,0,0)" fill="rgb(255,255,255)"/>
<rect x="150" y="100" width="50" height="50" transform="matrix(1,0,0,1,0,0)" fill="rgb(255,255,255)"/>
<g>
<g>
<path d=" M 85.782 275.97 C 85.782 275.97 101.76 310.702 143.015 324.346 C 152.184 327.377 161.839 328.115 171.454 328.973 C 210.927 332.501 305.511 324.1 327.351 233.747 C 334.211 205.363 331.165 175.475 320.18 148.421 C 304.362 109.465 268.918 59.563 195.571 92.985 C 153.779 112.029 156.951 144.567 165.898 167.19 C 176.723 194.569 154.643 222.797 125.451 218.958 C 89.375 214.211 71.841 235.889 85.782 275.97 Z " fill="rgb(153,69,48)"/>
<g>
<path d=" M 104.535 267.384 C 106.553 271.323 119.881 295.245 150.257 305.292 C 156.956 307.505 164.624 308.188 172.748 308.905 L 174.164 309.031 C 178.268 309.397 182.685 309.583 187.296 309.583 C 278.528 309.583 301.984 253.288 307.835 229.085 C 313.526 205.534 311.378 180.393 301.637 156.38 C 286.994 120.319 265.953 102.027 239.105 102.027 C 228.014 102.027 215.604 105.114 202.226 111.211 C 187.211 118.056 168.724 130.887 181.5 163.2 C 187.944 179.509 186.077 197.053 176.367 211.33 C 165.477 227.343 146.247 235.925 126.711 233.36 C 124.237 233.034 121.863 232.863 119.665 232.863 C 114.261 232.863 107.11 233.857 103.742 238.599 C 99.893 244.019 100.184 254.482 104.535 267.384 Z " fill="rgb(215,90,74)"/>
<path d=" M 187.306 314.601 C 182.549 314.601 177.982 314.41 173.727 314.029 L 172.307 313.903 C 163.906 313.166 155.962 312.463 148.691 310.054 C 116.694 299.476 102.583 274.56 100.074 269.672 L 99.783 268.985 C 94.845 254.347 94.8 242.524 99.652 235.689 C 104.229 229.24 114.155 226.621 127.373 228.382 C 145.123 230.721 162.295 223.093 172.216 208.505 C 180.978 195.633 182.664 179.785 176.838 165.042 C 160.835 124.569 190.423 111.075 200.148 106.639 C 248.725 84.524 284.505 100.843 306.294 154.488 C 316.436 179.484 318.659 205.685 312.718 230.259 C 306.585 255.621 282.096 314.601 187.306 314.601 Z  M 109.167 265.412 C 111.179 269.216 123.901 291.281 151.837 300.525 C 158.005 302.562 165.382 303.214 173.195 303.902 L 174.62 304.027 C 178.575 304.379 182.845 304.559 187.301 304.559 C 274.965 304.559 297.392 250.949 302.962 227.9 C 308.402 205.383 306.334 181.301 296.99 158.262 C 283.185 124.278 263.709 107.046 239.105 107.046 C 228.732 107.046 217.025 109.981 204.308 115.777 C 189.153 122.683 175.152 133.502 186.167 161.358 C 193.233 179.238 191.175 198.483 180.517 214.155 C 168.453 231.89 147.582 241.184 126.059 238.333 C 117.061 237.149 110.015 238.429 107.832 241.505 C 105.649 244.581 104.866 252.465 109.167 265.412 Z " fill="rgb(198,73,64)"/>
</g>
<g>
<circle vector-effect="non-scaling-stroke" cx="243.86716755494916" cy="144.93356158324872" r="20.07303230563035" fill="rgb(230,230,230)"/>
<path d=" M 243.867 170.025 C 230.032 170.025 218.776 158.769 218.776 144.934 C 218.776 131.098 230.032 119.842 243.867 119.842 C 257.703 119.842 268.958 131.098 268.958 144.934 C 268.958 158.769 257.703 170.025 243.867 170.025 Z  M 243.867 129.879 C 235.567 129.879 228.812 136.633 228.812 144.934 C 228.812 153.234 235.567 159.988 243.867 159.988 C 252.167 159.988 258.922 153.234 258.922 144.934 C 258.922 136.633 252.167 129.879 243.867 129.879 Z " fill="rgb(122,55,38)"/>
</g>
<path d=" M 209.552 310.059 L 199.812 307.656 C 201.995 298.818 194.477 291.517 182.519 283.272 C 168.091 273.316 158.346 257.593 155.787 240.14 C 154.853 233.787 153.654 228.673 153.639 228.623 L 163.284 225.873 C 163.334 226.014 168.754 241.45 183.247 247.522 C 193.755 251.923 206.667 250.523 221.626 243.347 C 279.728 215.475 307.448 230.068 308.603 230.701 L 303.75 239.493 C 303.549 239.387 278.809 227.047 225.967 252.39 C 208.253 260.89 192.535 262.346 179.237 256.72 C 175.217 255.019 171.76 252.811 168.809 250.372 C 172.668 260.278 179.398 268.915 188.215 274.997 C 197.167 281.189 213.843 292.686 209.552 310.059 Z " fill="rgb(198,73,64)"/>
<path d=" M 216.864 219.239 C 189.916 219.239 178.7 200.701 178.56 200.471 L 187.226 195.402 L 182.895 197.936 L 187.206 195.372 C 187.748 196.27 200.826 217.126 236.074 205.936 C 243.802 201.951 296.484 175.816 314.454 194.449 L 307.233 201.419 C 297.302 191.122 260.919 204.31 240.329 215.039 L 239.556 215.36 C 231.005 218.125 223.463 219.239 216.864 219.239 Z " fill="rgb(198,73,64)"/>
</g>
</g>
</g>
</svg>
