<?xml version="1.0" standalone="no"?>
<!-- Generator: Gravit.io -->
<svg xmlns="http://www.w3.org/2000/svg" xmlns:xlink="http://www.w3.org/1999/xlink" style="isolation:isolate" viewBox="0 0 400 400" width="400" height="400">
<defs>
<clipPath id="_clipPath_eCTicQfwZQzqhsa47aYjANQTx17ijGWa">
<rect width="400" height="400"/>
</clipPath>
</defs>
<g clip-path="url(#_clipPath_eCTicQfwZQzqhsa47aYjANQTx17ijGWa)">
<rect width="400" height="400" style="fill:rgb(0,0,0)"/>
<rect x="50" y="150" width="50" height="50" transform="matrix(1,0,0,1,0,0)" fill="rgb(255,255,255)"/>
<rect x="150" y="150" width="50" height="50" transform="matrix(1,0,0,1,0,0)" fill="rgb(255,255,255)"/>
<rect x="100" y="150" width="50" height="50" transform="matrix(1,0,0,1,0,0)" fill="rgb(255,255,255)"/>
<rect x="250" y="150" width="50" height="50" transform="matrix(1,0,0,1,0,0)" fill="rgb(255,255,255)"/>
<rect x="200" y="150" width="50" height="50" transform="matrix(1,0,0,1,0,0)" fill="rgb(255,255,255)"/>
<rect x="300" y="200" width="50" height="50" transform="matrix(1,0,0,1,0,0)" fill="rgb(255,255,255)"/>
<rect x="300" y="150" width="50" height="50" transform="matrix(1,0,0,1,0,0)" fill="rgb(255,255,255)"/>
<rect x="100" y="300" width="50" height="50" transform="matrix(1,0,0,1,0,0)" fill="rgb(255,255,255)"/>
<rect x="200" y="300" width="50" height="50" transform="matrix(1,0,0,1,0,0)" fill="rgb(255,255,255)"/>
<rect x="150" y="300" width="50" height="50" transform="matrix(1,0,0,1,0,0)" fill="rgb(255,255,255)"/>
<rect x="50" y="250" width="50" height="50" transform="matrix(1,0,0,1,0,0)" fill="rgb(255,255,255)"/>
<rect x="100" y="250" width="50" height="50" transform="matrix(1,0,0,1,0,0)" fill="rgb(255,255,255)"/>
<rect x="100" y="200" width="50" height="50" transform="matrix(1,0,0,1,0,0)" fill="rgb(255,255,255)"/>
<rect x="50" y="200" width="50" height="50" transform="matrix(1,0,0,1,0,0)" fill="rgb(255,255,255)"/>
<rect x="150" y="250" width="50" height="50" transform="matrix(1,0,0,1,0,0)" fill="rgb(255,255,255)"/>
<rect x="200" y="250" width="50" height="50" transform="matrix(1,0,0,1,0,0)" fill="rgb(255,255,255)"/>
<rect x="200" y="200" width="50" height="50" transform="matrix(1,0,0,1,0,0)" fill="rgb(255,255,255)"/>
<rect x="250" y="200" width="50" height="50" transform="matrix(1,0,0,1,0,0)" fill="rgb(255,255,255)"/>
<rect x="250" y="300" width="50" height="50" transform="matrix(1,0,0,1,0,0)" fill="rgb(255,255,255)"/>
<rect x="300" y="250" width="50" height="50" transform="matrix(1,0,0,1,0,0)" fill="rgb(255,255,255)"/>
<rect x="250" y="250" width="50" height="50" transform="matrix(1,0,0,1,0,0)" fill="rgb(255,255,255)"/>
<rect x="150" y="200" width="50" height="50" transform="matrix(1,0,0,1,0,0)" fill="rgb(255,255,255)"/>
<rect x="150" y="50" width="50" height="50" transform="matrix(1,0,0,1,0,0)" fill="rgb(255,255,255)"/>
<rect x="200" y="50" width="50" height="50" transform="matrix(1,0,0,1,0,0)" fill="rgb(255,255,255)"/>
<rect x="100" y="100" width="50" height="50" transform="matrix(1,0,0,1,0,0)" fill="rgb(255,255,255)"/>
<rect x="200" y="100" width="50" height="50" transform="matrix(1,0,0,1,0,0)" fill="rgb(255,255,255)"/>
<rect x="250" y="100" width="50" height="50" transform="matrix(1,0,0,1,0,0)" fill="rgb(255,255,255)"/>
<rect x="150" y="100" width="50" height="50" transform="matrix(1,0,0,1,0,0)" fill="rgb(255,255,255)"/>
<g>
<path d=" M 69 190.444 L 329 190.444 L 329 228.963 C 329 266.191 298.82 296.37 261.593 296.37 L 136.407 296.37 C 99.18 296.37 69 266.191 69 228.963 L 69 190.444 Z " fill="rgb(244,173,120)"/>
<path d=" M 261.593 281.926 C 258.934 281.926 256.778 279.77 256.778 277.111 C 256.778 274.452 258.934 272.296 261.593 272.296 C 285.514 272.268 304.898 252.884 304.926 228.963 L 304.926 214.519 L 203.815 214.519 C 201.156 214.519 199 212.363 199 209.704 C 199 207.045 201.156 204.889 203.815 204.889 L 309.741 204.889 C 312.4 204.889 314.556 207.045 314.556 209.704 L 314.556 228.963 C 314.52 258.2 290.829 281.891 261.593 281.926 Z " fill="rgb(211,132,61)"/>
<path d=" M 136.407 296.37 L 261.593 296.37 L 261.593 341 L 136.407 341 L 136.407 296.37 Z " fill="rgb(211,132,61)"/>
<path d=" M 265.346 143 C 262.835 143.008 260.336 143.334 257.912 143.969 C 262.593 135.291 262.256 124.875 257.021 116.5 C 251.785 108.125 242.413 103.006 232.303 103 C 232.303 85.326 217.509 71 199.259 71 C 181.009 71 166.216 85.326 166.216 103 C 156.105 103.006 146.733 108.125 141.498 116.5 C 136.262 124.875 135.925 135.291 140.606 143.969 C 131.93 141.693 122.655 143.471 115.525 148.771 C 108.396 154.074 104.229 162.295 104.259 171 L 104.259 191 L 294.259 191 L 294.259 171 C 294.259 155.535 281.315 143 265.346 143 Z " fill="rgb(207,223,232)"/>
<g>
<path d=" M 174.481 187 L 164.852 187 L 164.852 172.556 C 164.852 169.897 162.696 167.741 160.037 167.741 C 157.378 167.741 155.222 169.897 155.222 172.556 L 155.222 187 L 145.593 187 L 145.593 172.556 C 145.593 164.579 152.06 158.111 160.037 158.111 C 168.014 158.111 174.481 164.579 174.481 172.556 L 174.481 187 Z " fill="rgb(255,255,255)"/>
<path d=" M 193.741 134.037 L 184.111 134.037 L 184.111 119.593 C 184.111 116.934 181.955 114.778 179.296 114.778 C 176.637 114.778 174.481 116.934 174.481 119.593 L 174.481 134.037 L 164.852 134.037 L 164.852 119.593 C 164.852 111.616 171.319 105.148 179.296 105.148 C 187.273 105.148 193.741 111.616 193.741 119.593 L 193.741 134.037 Z " fill="rgb(255,255,255)"/>
<path d=" M 227.444 162.926 C 219.468 162.926 213 156.458 213 148.481 L 213 134.037 L 222.63 134.037 L 222.63 148.481 C 222.63 151.14 224.785 153.296 227.444 153.296 C 230.103 153.296 232.259 151.14 232.259 148.481 L 232.259 134.037 L 241.889 134.037 L 241.889 148.481 C 241.889 156.458 235.421 162.926 227.444 162.926 Z " fill="rgb(255,255,255)"/>
</g>
<path d=" M 184.556 214.519 L 174.926 214.519 C 172.267 214.519 170.111 212.363 170.111 209.704 C 170.111 207.045 172.267 204.889 174.926 204.889 L 184.556 204.889 C 187.215 204.889 189.37 207.045 189.37 209.704 C 189.37 212.363 187.215 214.519 184.556 214.519 Z " fill="rgb(211,132,61)"/>
</g>
</g>
</svg>
