<?xml version="1.0" standalone="no"?>
<!-- Generator: Gravit.io -->
<svg xmlns="http://www.w3.org/2000/svg" xmlns:xlink="http://www.w3.org/1999/xlink" style="isolation:isolate" viewBox="0 0 400 400" width="400" height="400">
<defs>
<clipPath id="_clipPath_VjUgw1B29cpjyF7s9VZXrpxUT7fQNfsJ">
<rect width="400" height="400"/>
</clipPath>
</defs>
<g clip-path="url(#_clipPath_VjUgw1B29cpjyF7s9VZXrpxUT7fQNfsJ)">
<rect width="400" height="400" style="fill:rgb(0,0,0)"/>
<rect x="150" y="150" width="50" height="50" transform="matrix(1,0,0,1,0,0)" fill="rgb(255,255,255)"/>
<rect x="100" y="150" width="50" height="50" transform="matrix(1,0,0,1,0,0)" fill="rgb(255,255,255)"/>
<rect x="250" y="150" width="50" height="50" transform="matrix(1,0,0,1,0,0)" fill="rgb(255,255,255)"/>
<rect x="200" y="150" width="50" height="50" transform="matrix(1,0,0,1,0,0)" fill="rgb(255,255,255)"/>
<rect x="100" y="300" width="50" height="50" transform="matrix(1,0,0,1,0,0)" fill="rgb(255,255,255)"/>
<rect x="100" y="250" width="50" height="50" transform="matrix(1,0,0,1,0,0)" fill="rgb(255,255,255)"/>
<rect x="100" y="200" width="50" height="50" transform="matrix(1,0,0,1,0,0)" fill="rgb(255,255,255)"/>
<rect x="150" y="250" width="50" height="50" transform="matrix(1,0,0,1,0,0)" fill="rgb(255,255,255)"/>
<rect x="200" y="250" width="50" height="50" transform="matrix(1,0,0,1,0,0)" fill="rgb(255,255,255)"/>
<rect x="200" y="200" width="50" height="50" transform="matrix(1,0,0,1,0,0)" fill="rgb(255,255,255)"/>
<rect x="250" y="200" width="50" height="50" transform="matrix(1,0,0,1,0,0)" fill="rgb(255,255,255)"/>
<rect x="250" y="300" width="50" height="50" transform="matrix(1,0,0,1,0,0)" fill="rgb(255,255,255)"/>
<rect x="250" y="250" width="50" height="50" transform="matrix(1,0,0,1,0,0)" fill="rgb(255,255,255)"/>
<rect x="150" y="200" width="50" height="50" transform="matrix(1,0,0,1,0,0)" fill="rgb(255,255,255)"/>
<rect x="50" y="50" width="50" height="50" transform="matrix(1,0,0,1,0,0)" fill="rgb(255,255,255)"/>
<rect x="100" y="50" width="50" height="50" transform="matrix(1,0,0,1,0,0)" fill="rgb(255,255,255)"/>
<rect x="250" y="50" width="50" height="50" transform="matrix(1,0,0,1,0,0)" fill="rgb(255,255,255)"/>
<rect x="300" y="100" width="50" height="50" transform="matrix(1,0,0,1,0,0)" fill="rgb(255,255,255)"/>
<rect x="300" y="50" width="50" height="50" transform="matrix(1,0,0,1,0,0)" fill="rgb(255,255,255)"/>
<rect x="100" y="100" width="50" height="50" transform="matrix(1,0,0,1,0,0)" fill="rgb(255,255,255)"/>
<rect x="50" y="100" width="50" height="50" transform="matrix(1,0,0,1,0,0)" fill="rgb(255,255,255)"/>
<rect x="200" y="100" width="50" height="50" transform="matrix(1,0,0,1,0,0)" fill="rgb(255,255,255)"/>
<rect x="250" y="100" width="50" height="50" transform="matrix(1,0,0,1,0,0)" fill="rgb(255,255,255)"/>
<rect x="150" y="100" width="50" height="50" transform="matrix(1,0,0,1,0,0)" fill="rgb(255,255,255)"/>
<g>
<path d=" M 212.203 142.031 L 286.191 68.043 C 291.383 62.86 298.272 60 305.61 60 C 318.235 60 329.732 68.547 332.785 80.796 L 344 125.625 L 311.188 109.219 L 311.188 125.625 C 311.188 134.67 303.279 142.031 294.234 142.031 L 212.203 142.031 Z " fill="rgb(234,155,88)"/>
<path d=" M 187.797 142.031 L 113.809 68.043 C 108.617 62.86 101.728 60 94.39 60 C 81.765 60 70.268 68.547 67.215 80.796 L 56 125.625 L 89.359 109.219 L 89.359 125.625 C 89.359 134.67 96.721 142.031 105.766 142.031 L 187.797 142.031 Z " fill="rgb(255,189,134)"/>
<g>
<path d=" M 137.28 342.834 L 104.95 337.228 L 113.453 288.194 L 132.422 274.832 L 145.783 293.8 L 137.28 342.834 Z " fill="rgb(250,236,216)"/>
<path d=" M 113.453 288.194 L 107.645 268.667 C 104.553 258.365 103.878 247.392 105.698 236.896 C 108.79 219.066 125.805 207.08 143.635 210.172 C 161.465 213.264 173.45 230.279 170.358 248.109 C 168.538 258.605 164.208 268.71 157.841 277.345 L 145.783 293.8 L 113.453 288.194 Z " fill="rgb(255,189,134)"/>
</g>
<g>
<path d=" M 294.275 336.564 L 261.878 341.768 L 253.985 292.632 L 267.582 273.832 L 286.382 287.428 L 294.275 336.564 Z " fill="rgb(248,229,202)"/>
<path d=" M 253.985 292.632 L 242.146 276.053 C 235.874 267.315 231.67 257.157 229.98 246.639 C 227.11 228.772 239.306 211.907 257.173 209.037 C 275.04 206.167 291.904 218.363 294.775 236.23 C 296.464 246.749 295.653 257.712 292.438 267.948 L 286.382 287.428 L 253.985 292.632 Z " fill="rgb(234,155,88)"/>
</g>
<g>
<path d=" M 208.532 105.016 L 191.468 105.016 C 151.437 105.016 119.118 133.326 117.64 168.46 C 117.148 181.961 117.64 195.801 119.118 208.723 C 121.414 227.162 131.752 243.856 148.485 255.907 C 158 262.586 164.562 269.408 168.993 277.247 C 174.735 287.556 186.384 294.089 199.509 294.234 L 200.329 294.234 C 213.454 294.089 225.265 287.556 231.336 276.813 C 235.438 269.408 242 262.586 251.515 255.907 C 268.25 243.856 278.586 227.162 280.882 208.723 C 282.36 195.803 282.852 181.961 282.36 168.46 C 280.882 133.471 248.725 105.016 208.532 105.016 L 208.532 105.016 Z " fill="rgb(254,210,164)"/>
<path d=" M 282.36 168.46 C 282.852 181.961 282.36 195.801 280.882 208.723 C 278.586 227.162 268.25 243.856 251.515 255.907 C 242 262.586 235.438 269.408 231.336 276.813 C 225.265 287.556 213.454 294.089 200.329 294.234 L 200 294.234 L 200 105.016 L 208.532 105.016 C 248.725 105.016 280.882 133.471 282.36 168.46 L 282.36 168.46 Z " fill="rgb(255,189,134)"/>
</g>
</g>
</g>
</svg>
