<?xml version="1.0" standalone="no"?><!-- Generator: Gravit.io --><svg xmlns="http://www.w3.org/2000/svg" xmlns:xlink="http://www.w3.org/1999/xlink" style="isolation:isolate" viewBox="0 0 50 50" width="50" height="50"><defs><clipPath id="_clipPath_xdiyOyz3nEryv4Ov3GB6ewSv8BN0JR1y"><rect width="50" height="50"/></clipPath></defs><g clip-path="url(#_clipPath_xdiyOyz3nEryv4Ov3GB6ewSv8BN0JR1y)"><rect x="0" y="0" width="50" height="50" transform="matrix(1,0,0,1,0,0)" fill="rgb(255,255,255)" vector-effect="non-scaling-stroke" stroke-width="2" stroke-dasharray="5,5,5" stroke="rgb(218,243,251)" stroke-linejoin="miter" stroke-linecap="square" stroke-miterlimit="2"/><g style="opacity:0.3;"><path d=" M 37.362 40 C 36.686 40 36.01 39.743 35.496 39.229 L 23.725 27.469 L 27.458 23.74 L 39.228 35.5 C 40.257 36.528 40.257 38.201 39.228 39.229 L 39.228 39.229 C 38.714 39.743 38.038 40 37.362 40 Z " fill="rgb(134,214,242)"/><path d=" M 22.291 27.693 L 13.419 18.83 C 12.418 17.83 11.823 16.473 11.696 14.906 C 11.585 13.532 11.832 12.028 12.412 10.557 L 12.631 10 L 13.706 10 L 26.853 23.135 L 22.291 27.693 Z " fill="rgb(172,227,252)"/><path d=" M 38.734 14.994 L 33.964 19.759 L 32.72 18.516 L 37.49 13.75 L 36.245 12.507 L 31.476 17.273 L 30.232 16.029 L 35.001 11.264 L 33.757 10.021 L 27.536 16.237 C 26.775 16.997 26.32 18.007 26.256 19.08 C 26.218 19.712 25.937 20.321 25.463 20.794 L 10.772 35.472 C 9.743 36.5 9.743 38.173 10.772 39.201 C 11.286 39.715 11.962 39.972 12.638 39.972 C 13.314 39.972 13.99 39.715 14.504 39.201 L 29.195 24.524 C 29.669 24.05 30.279 23.768 30.911 23.731 C 31.985 23.667 32.996 23.212 33.757 22.452 L 39.978 16.237 L 38.734 14.994 Z " fill="rgb(204,239,255)"/><path d=" M 33.964 19.759 L 32.72 18.516 L 37.49 13.75 L 36.868 13.129 L 10.772 39.201 C 11.286 39.715 11.962 39.972 12.638 39.972 C 13.314 39.972 13.99 39.715 14.504 39.201 L 29.195 24.524 C 29.669 24.05 30.279 23.768 30.911 23.731 C 31.985 23.667 32.996 23.212 33.757 22.452 L 39.978 16.237 L 38.734 14.994 L 33.964 19.759 Z " fill="rgb(172,227,252)"/></g></g></svg>